<?xml version="1.0" encoding="utf-8" standalone="no"?>
<!DOCTYPE svg PUBLIC "-//W3C//DTD SVG 1.1//EN"
  "http://www.w3.org/Graphics/SVG/1.1/DTD/svg11.dtd">
<svg xmlns:xlink="http://www.w3.org/1999/xlink" width="1000.753125pt" height="709.848pt" viewBox="0 0 1000.753125 709.848" xmlns="http://www.w3.org/2000/svg" version="1.1">
 <metadata>
  <rdf:RDF xmlns:dc="http://purl.org/dc/elements/1.1/" xmlns:cc="http://creativecommons.org/ns#" xmlns:rdf="http://www.w3.org/1999/02/22-rdf-syntax-ns#">
   <cc:Work>
    <dc:type rdf:resource="http://purl.org/dc/dcmitype/StillImage"/>
    <dc:date>2026-01-21T22:27:48.798438</dc:date>
    <dc:format>image/svg+xml</dc:format>
    <dc:creator>
     <cc:Agent>
      <dc:title>Matplotlib v3.10.7, https://matplotlib.org/</dc:title>
     </cc:Agent>
    </dc:creator>
   </cc:Work>
  </rdf:RDF>
 </metadata>
 <defs>
  <style type="text/css">*{stroke-linejoin: round; stroke-linecap: butt}</style>
 </defs>
 <g id="figure_1">
  <g id="patch_1">
   <path d="M 0 709.848 
L 1000.753125 709.848 
L 1000.753125 0 
L 0 0 
z
" style="fill: #ffffff"/>
  </g>
  <g id="axes_1">
   <g id="patch_2">
    <path d="M 50.836875 666.149875 
L 990.371875 666.149875 
L 990.371875 47.173875 
L 50.836875 47.173875 
z
" style="fill: #ffffff"/>
   </g>
   <g id="matplotlib.axis_1">
    <g id="xtick_1">
     <g id="line2d_1">
      <path d="M 50.836875 666.149875 
L 50.836875 47.173875 
" clip-path="url(#pad4aa49ed0)" style="fill: none; stroke: #b0b0b0; stroke-opacity: 0.15; stroke-width: 0.8; stroke-linecap: square"/>
     </g>
     <g id="line2d_2">
      <defs>
       <path id="md0e1140579" d="M 0 0 
L 0 3.5 
" style="stroke: #000000; stroke-width: 0.8"/>
      </defs>
      <g>
       <use xlink:href="#md0e1140579" x="50.836875" y="666.149875" style="stroke: #000000; stroke-width: 0.8"/>
      </g>
     </g>
     <g id="text_1">
      <!-- 3 -->
      <g transform="translate(47.655625 680.748312) scale(0.1 -0.1)">
       <defs>
        <path id="DejaVuSans-33" d="M 2597 2516 
Q 3050 2419 3304 2112 
Q 3559 1806 3559 1356 
Q 3559 666 3084 287 
Q 2609 -91 1734 -91 
Q 1441 -91 1130 -33 
Q 819 25 488 141 
L 488 750 
Q 750 597 1062 519 
Q 1375 441 1716 441 
Q 2309 441 2620 675 
Q 2931 909 2931 1356 
Q 2931 1769 2642 2001 
Q 2353 2234 1838 2234 
L 1294 2234 
L 1294 2753 
L 1863 2753 
Q 2328 2753 2575 2939 
Q 2822 3125 2822 3475 
Q 2822 3834 2567 4026 
Q 2313 4219 1838 4219 
Q 1578 4219 1281 4162 
Q 984 4106 628 3988 
L 628 4550 
Q 988 4650 1302 4700 
Q 1616 4750 1894 4750 
Q 2613 4750 3031 4423 
Q 3450 4097 3450 3541 
Q 3450 3153 3228 2886 
Q 3006 2619 2597 2516 
z
" transform="scale(0.015625)"/>
       </defs>
       <use xlink:href="#DejaVuSans-33"/>
      </g>
     </g>
    </g>
    <g id="xtick_2">
     <g id="line2d_3">
      <path d="M 238.743875 666.149875 
L 238.743875 47.173875 
" clip-path="url(#pad4aa49ed0)" style="fill: none; stroke: #b0b0b0; stroke-opacity: 0.15; stroke-width: 0.8; stroke-linecap: square"/>
     </g>
     <g id="line2d_4">
      <g>
       <use xlink:href="#md0e1140579" x="238.743875" y="666.149875" style="stroke: #000000; stroke-width: 0.8"/>
      </g>
     </g>
     <g id="text_2">
      <!-- 4 -->
      <g transform="translate(235.562625 680.748312) scale(0.1 -0.1)">
       <defs>
        <path id="DejaVuSans-34" d="M 2419 4116 
L 825 1625 
L 2419 1625 
L 2419 4116 
z
M 2253 4666 
L 3047 4666 
L 3047 1625 
L 3713 1625 
L 3713 1100 
L 3047 1100 
L 3047 0 
L 2419 0 
L 2419 1100 
L 313 1100 
L 313 1709 
L 2253 4666 
z
" transform="scale(0.015625)"/>
       </defs>
       <use xlink:href="#DejaVuSans-34"/>
      </g>
     </g>
    </g>
    <g id="xtick_3">
     <g id="line2d_5">
      <path d="M 426.650875 666.149875 
L 426.650875 47.173875 
" clip-path="url(#pad4aa49ed0)" style="fill: none; stroke: #b0b0b0; stroke-opacity: 0.15; stroke-width: 0.8; stroke-linecap: square"/>
     </g>
     <g id="line2d_6">
      <g>
       <use xlink:href="#md0e1140579" x="426.650875" y="666.149875" style="stroke: #000000; stroke-width: 0.8"/>
      </g>
     </g>
     <g id="text_3">
      <!-- 5 -->
      <g transform="translate(423.469625 680.748312) scale(0.1 -0.1)">
       <defs>
        <path id="DejaVuSans-35" d="M 691 4666 
L 3169 4666 
L 3169 4134 
L 1269 4134 
L 1269 2991 
Q 1406 3038 1543 3061 
Q 1681 3084 1819 3084 
Q 2600 3084 3056 2656 
Q 3513 2228 3513 1497 
Q 3513 744 3044 326 
Q 2575 -91 1722 -91 
Q 1428 -91 1123 -41 
Q 819 9 494 109 
L 494 744 
Q 775 591 1075 516 
Q 1375 441 1709 441 
Q 2250 441 2565 725 
Q 2881 1009 2881 1497 
Q 2881 1984 2565 2268 
Q 2250 2553 1709 2553 
Q 1456 2553 1204 2497 
Q 953 2441 691 2322 
L 691 4666 
z
" transform="scale(0.015625)"/>
       </defs>
       <use xlink:href="#DejaVuSans-35"/>
      </g>
     </g>
    </g>
    <g id="xtick_4">
     <g id="line2d_7">
      <path d="M 614.557875 666.149875 
L 614.557875 47.173875 
" clip-path="url(#pad4aa49ed0)" style="fill: none; stroke: #b0b0b0; stroke-opacity: 0.15; stroke-width: 0.8; stroke-linecap: square"/>
     </g>
     <g id="line2d_8">
      <g>
       <use xlink:href="#md0e1140579" x="614.557875" y="666.149875" style="stroke: #000000; stroke-width: 0.8"/>
      </g>
     </g>
     <g id="text_4">
      <!-- 6 -->
      <g transform="translate(611.376625 680.748312) scale(0.1 -0.1)">
       <defs>
        <path id="DejaVuSans-36" d="M 2113 2584 
Q 1688 2584 1439 2293 
Q 1191 2003 1191 1497 
Q 1191 994 1439 701 
Q 1688 409 2113 409 
Q 2538 409 2786 701 
Q 3034 994 3034 1497 
Q 3034 2003 2786 2293 
Q 2538 2584 2113 2584 
z
M 3366 4563 
L 3366 3988 
Q 3128 4100 2886 4159 
Q 2644 4219 2406 4219 
Q 1781 4219 1451 3797 
Q 1122 3375 1075 2522 
Q 1259 2794 1537 2939 
Q 1816 3084 2150 3084 
Q 2853 3084 3261 2657 
Q 3669 2231 3669 1497 
Q 3669 778 3244 343 
Q 2819 -91 2113 -91 
Q 1303 -91 875 529 
Q 447 1150 447 2328 
Q 447 3434 972 4092 
Q 1497 4750 2381 4750 
Q 2619 4750 2861 4703 
Q 3103 4656 3366 4563 
z
" transform="scale(0.015625)"/>
       </defs>
       <use xlink:href="#DejaVuSans-36"/>
      </g>
     </g>
    </g>
    <g id="xtick_5">
     <g id="line2d_9">
      <path d="M 802.464875 666.149875 
L 802.464875 47.173875 
" clip-path="url(#pad4aa49ed0)" style="fill: none; stroke: #b0b0b0; stroke-opacity: 0.15; stroke-width: 0.8; stroke-linecap: square"/>
     </g>
     <g id="line2d_10">
      <g>
       <use xlink:href="#md0e1140579" x="802.464875" y="666.149875" style="stroke: #000000; stroke-width: 0.8"/>
      </g>
     </g>
     <g id="text_5">
      <!-- 7 -->
      <g transform="translate(799.283625 680.748312) scale(0.1 -0.1)">
       <defs>
        <path id="DejaVuSans-37" d="M 525 4666 
L 3525 4666 
L 3525 4397 
L 1831 0 
L 1172 0 
L 2766 4134 
L 525 4134 
L 525 4666 
z
" transform="scale(0.015625)"/>
       </defs>
       <use xlink:href="#DejaVuSans-37"/>
      </g>
     </g>
    </g>
    <g id="xtick_6">
     <g id="line2d_11">
      <path d="M 990.371875 666.149875 
L 990.371875 47.173875 
" clip-path="url(#pad4aa49ed0)" style="fill: none; stroke: #b0b0b0; stroke-opacity: 0.15; stroke-width: 0.8; stroke-linecap: square"/>
     </g>
     <g id="line2d_12">
      <g>
       <use xlink:href="#md0e1140579" x="990.371875" y="666.149875" style="stroke: #000000; stroke-width: 0.8"/>
      </g>
     </g>
     <g id="text_6">
      <!-- 8 -->
      <g transform="translate(987.190625 680.748312) scale(0.1 -0.1)">
       <defs>
        <path id="DejaVuSans-38" d="M 2034 2216 
Q 1584 2216 1326 1975 
Q 1069 1734 1069 1313 
Q 1069 891 1326 650 
Q 1584 409 2034 409 
Q 2484 409 2743 651 
Q 3003 894 3003 1313 
Q 3003 1734 2745 1975 
Q 2488 2216 2034 2216 
z
M 1403 2484 
Q 997 2584 770 2862 
Q 544 3141 544 3541 
Q 544 4100 942 4425 
Q 1341 4750 2034 4750 
Q 2731 4750 3128 4425 
Q 3525 4100 3525 3541 
Q 3525 3141 3298 2862 
Q 3072 2584 2669 2484 
Q 3125 2378 3379 2068 
Q 3634 1759 3634 1313 
Q 3634 634 3220 271 
Q 2806 -91 2034 -91 
Q 1263 -91 848 271 
Q 434 634 434 1313 
Q 434 1759 690 2068 
Q 947 2378 1403 2484 
z
M 1172 3481 
Q 1172 3119 1398 2916 
Q 1625 2713 2034 2713 
Q 2441 2713 2670 2916 
Q 2900 3119 2900 3481 
Q 2900 3844 2670 4047 
Q 2441 4250 2034 4250 
Q 1625 4250 1398 4047 
Q 1172 3844 1172 3481 
z
" transform="scale(0.015625)"/>
       </defs>
       <use xlink:href="#DejaVuSans-38"/>
      </g>
     </g>
    </g>
    <g id="text_7">
     <!-- AgRichter Magnitude ($M_D = \log_{10}(A_H / \mathrm{km}^2)$) -->
     <g transform="translate(360.584375 699.568) scale(0.14 -0.14)">
      <defs>
       <path id="DejaVuSans-Bold-41" d="M 3419 850 
L 1538 850 
L 1241 0 
L 31 0 
L 1759 4666 
L 3194 4666 
L 4922 0 
L 3713 0 
L 3419 850 
z
M 1838 1716 
L 3116 1716 
L 2478 3572 
L 1838 1716 
z
" transform="scale(0.015625)"/>
       <path id="DejaVuSans-Bold-67" d="M 2919 594 
Q 2688 288 2409 144 
Q 2131 0 1766 0 
Q 1125 0 706 504 
Q 288 1009 288 1791 
Q 288 2575 706 3076 
Q 1125 3578 1766 3578 
Q 2131 3578 2409 3434 
Q 2688 3291 2919 2981 
L 2919 3500 
L 4044 3500 
L 4044 353 
Q 4044 -491 3511 -936 
Q 2978 -1381 1966 -1381 
Q 1638 -1381 1331 -1331 
Q 1025 -1281 716 -1178 
L 716 -306 
Q 1009 -475 1290 -558 
Q 1572 -641 1856 -641 
Q 2406 -641 2662 -400 
Q 2919 -159 2919 353 
L 2919 594 
z
M 2181 2772 
Q 1834 2772 1640 2515 
Q 1447 2259 1447 1791 
Q 1447 1309 1634 1061 
Q 1822 813 2181 813 
Q 2531 813 2725 1069 
Q 2919 1325 2919 1791 
Q 2919 2259 2725 2515 
Q 2531 2772 2181 2772 
z
" transform="scale(0.015625)"/>
       <path id="DejaVuSans-Bold-52" d="M 2297 2597 
Q 2675 2597 2839 2737 
Q 3003 2878 3003 3200 
Q 3003 3519 2839 3656 
Q 2675 3794 2297 3794 
L 1791 3794 
L 1791 2597 
L 2297 2597 
z
M 1791 1766 
L 1791 0 
L 588 0 
L 588 4666 
L 2425 4666 
Q 3347 4666 3776 4356 
Q 4206 4047 4206 3378 
Q 4206 2916 3982 2619 
Q 3759 2322 3309 2181 
Q 3556 2125 3751 1926 
Q 3947 1728 4147 1325 
L 4800 0 
L 3519 0 
L 2950 1159 
Q 2778 1509 2601 1637 
Q 2425 1766 2131 1766 
L 1791 1766 
z
" transform="scale(0.015625)"/>
       <path id="DejaVuSans-Bold-69" d="M 538 3500 
L 1656 3500 
L 1656 0 
L 538 0 
L 538 3500 
z
M 538 4863 
L 1656 4863 
L 1656 3950 
L 538 3950 
L 538 4863 
z
" transform="scale(0.015625)"/>
       <path id="DejaVuSans-Bold-63" d="M 3366 3391 
L 3366 2478 
Q 3138 2634 2908 2709 
Q 2678 2784 2431 2784 
Q 1963 2784 1702 2511 
Q 1441 2238 1441 1747 
Q 1441 1256 1702 982 
Q 1963 709 2431 709 
Q 2694 709 2930 787 
Q 3166 866 3366 1019 
L 3366 103 
Q 3103 6 2833 -42 
Q 2563 -91 2291 -91 
Q 1344 -91 809 395 
Q 275 881 275 1747 
Q 275 2613 809 3098 
Q 1344 3584 2291 3584 
Q 2566 3584 2833 3536 
Q 3100 3488 3366 3391 
z
" transform="scale(0.015625)"/>
       <path id="DejaVuSans-Bold-68" d="M 4056 2131 
L 4056 0 
L 2931 0 
L 2931 347 
L 2931 1625 
Q 2931 2084 2911 2256 
Q 2891 2428 2841 2509 
Q 2775 2619 2662 2680 
Q 2550 2741 2406 2741 
Q 2056 2741 1856 2470 
Q 1656 2200 1656 1722 
L 1656 0 
L 538 0 
L 538 4863 
L 1656 4863 
L 1656 2988 
Q 1909 3294 2193 3439 
Q 2478 3584 2822 3584 
Q 3428 3584 3742 3212 
Q 4056 2841 4056 2131 
z
" transform="scale(0.015625)"/>
       <path id="DejaVuSans-Bold-74" d="M 1759 4494 
L 1759 3500 
L 2913 3500 
L 2913 2700 
L 1759 2700 
L 1759 1216 
Q 1759 972 1856 886 
Q 1953 800 2241 800 
L 2816 800 
L 2816 0 
L 1856 0 
Q 1194 0 917 276 
Q 641 553 641 1216 
L 641 2700 
L 84 2700 
L 84 3500 
L 641 3500 
L 641 4494 
L 1759 4494 
z
" transform="scale(0.015625)"/>
       <path id="DejaVuSans-Bold-65" d="M 4031 1759 
L 4031 1441 
L 1416 1441 
Q 1456 1047 1700 850 
Q 1944 653 2381 653 
Q 2734 653 3104 758 
Q 3475 863 3866 1075 
L 3866 213 
Q 3469 63 3072 -14 
Q 2675 -91 2278 -91 
Q 1328 -91 801 392 
Q 275 875 275 1747 
Q 275 2603 792 3093 
Q 1309 3584 2216 3584 
Q 3041 3584 3536 3087 
Q 4031 2591 4031 1759 
z
M 2881 2131 
Q 2881 2450 2695 2645 
Q 2509 2841 2209 2841 
Q 1884 2841 1681 2658 
Q 1478 2475 1428 2131 
L 2881 2131 
z
" transform="scale(0.015625)"/>
       <path id="DejaVuSans-Bold-72" d="M 3138 2547 
Q 2991 2616 2845 2648 
Q 2700 2681 2553 2681 
Q 2122 2681 1889 2404 
Q 1656 2128 1656 1613 
L 1656 0 
L 538 0 
L 538 3500 
L 1656 3500 
L 1656 2925 
Q 1872 3269 2151 3426 
Q 2431 3584 2822 3584 
Q 2878 3584 2943 3579 
Q 3009 3575 3134 3559 
L 3138 2547 
z
" transform="scale(0.015625)"/>
       <path id="DejaVuSans-Bold-20" transform="scale(0.015625)"/>
       <path id="DejaVuSans-Bold-4d" d="M 588 4666 
L 2119 4666 
L 3181 2169 
L 4250 4666 
L 5778 4666 
L 5778 0 
L 4641 0 
L 4641 3413 
L 3566 897 
L 2803 897 
L 1728 3413 
L 1728 0 
L 588 0 
L 588 4666 
z
" transform="scale(0.015625)"/>
       <path id="DejaVuSans-Bold-61" d="M 2106 1575 
Q 1756 1575 1579 1456 
Q 1403 1338 1403 1106 
Q 1403 894 1545 773 
Q 1688 653 1941 653 
Q 2256 653 2472 879 
Q 2688 1106 2688 1447 
L 2688 1575 
L 2106 1575 
z
M 3816 1997 
L 3816 0 
L 2688 0 
L 2688 519 
Q 2463 200 2181 54 
Q 1900 -91 1497 -91 
Q 953 -91 614 226 
Q 275 544 275 1050 
Q 275 1666 698 1953 
Q 1122 2241 2028 2241 
L 2688 2241 
L 2688 2328 
Q 2688 2594 2478 2717 
Q 2269 2841 1825 2841 
Q 1466 2841 1156 2769 
Q 847 2697 581 2553 
L 581 3406 
Q 941 3494 1303 3539 
Q 1666 3584 2028 3584 
Q 2975 3584 3395 3211 
Q 3816 2838 3816 1997 
z
" transform="scale(0.015625)"/>
       <path id="DejaVuSans-Bold-6e" d="M 4056 2131 
L 4056 0 
L 2931 0 
L 2931 347 
L 2931 1631 
Q 2931 2084 2911 2256 
Q 2891 2428 2841 2509 
Q 2775 2619 2662 2680 
Q 2550 2741 2406 2741 
Q 2056 2741 1856 2470 
Q 1656 2200 1656 1722 
L 1656 0 
L 538 0 
L 538 3500 
L 1656 3500 
L 1656 2988 
Q 1909 3294 2193 3439 
Q 2478 3584 2822 3584 
Q 3428 3584 3742 3212 
Q 4056 2841 4056 2131 
z
" transform="scale(0.015625)"/>
       <path id="DejaVuSans-Bold-75" d="M 500 1363 
L 500 3500 
L 1625 3500 
L 1625 3150 
Q 1625 2866 1622 2436 
Q 1619 2006 1619 1863 
Q 1619 1441 1641 1255 
Q 1663 1069 1716 984 
Q 1784 875 1895 815 
Q 2006 756 2150 756 
Q 2500 756 2700 1025 
Q 2900 1294 2900 1772 
L 2900 3500 
L 4019 3500 
L 4019 0 
L 2900 0 
L 2900 506 
Q 2647 200 2364 54 
Q 2081 -91 1741 -91 
Q 1134 -91 817 281 
Q 500 653 500 1363 
z
" transform="scale(0.015625)"/>
       <path id="DejaVuSans-Bold-64" d="M 2919 2988 
L 2919 4863 
L 4044 4863 
L 4044 0 
L 2919 0 
L 2919 506 
Q 2688 197 2409 53 
Q 2131 -91 1766 -91 
Q 1119 -91 703 423 
Q 288 938 288 1747 
Q 288 2556 703 3070 
Q 1119 3584 1766 3584 
Q 2128 3584 2408 3439 
Q 2688 3294 2919 2988 
z
M 2181 722 
Q 2541 722 2730 984 
Q 2919 1247 2919 1747 
Q 2919 2247 2730 2509 
Q 2541 2772 2181 2772 
Q 1825 2772 1636 2509 
Q 1447 2247 1447 1747 
Q 1447 1247 1636 984 
Q 1825 722 2181 722 
z
" transform="scale(0.015625)"/>
       <path id="DejaVuSans-Bold-28" d="M 2413 -844 
L 1484 -844 
Q 1006 -72 778 623 
Q 550 1319 550 2003 
Q 550 2688 779 3389 
Q 1009 4091 1484 4856 
L 2413 4856 
Q 2013 4116 1813 3408 
Q 1613 2700 1613 2009 
Q 1613 1319 1811 609 
Q 2009 -100 2413 -844 
z
" transform="scale(0.015625)"/>
       <path id="DejaVuSans-Oblique-4d" d="M 1081 4666 
L 2028 4666 
L 2572 1522 
L 4378 4666 
L 5350 4666 
L 4441 0 
L 3828 0 
L 4622 4091 
L 2791 897 
L 2175 897 
L 1581 4103 
L 788 0 
L 172 0 
L 1081 4666 
z
" transform="scale(0.015625)"/>
       <path id="DejaVuSans-Oblique-44" d="M 1081 4666 
L 2438 4666 
Q 3519 4666 4070 4208 
Q 4622 3750 4622 2847 
Q 4622 2250 4412 1698 
Q 4203 1147 3834 769 
Q 3463 381 2891 190 
Q 2319 0 1538 0 
L 172 0 
L 1081 4666 
z
M 1613 4147 
L 909 519 
L 1734 519 
Q 2794 519 3375 1128 
Q 3956 1738 3956 2847 
Q 3956 3519 3581 3833 
Q 3206 4147 2406 4147 
L 1613 4147 
z
" transform="scale(0.015625)"/>
       <path id="DejaVuSans-3d" d="M 678 2906 
L 4684 2906 
L 4684 2381 
L 678 2381 
L 678 2906 
z
M 678 1631 
L 4684 1631 
L 4684 1100 
L 678 1100 
L 678 1631 
z
" transform="scale(0.015625)"/>
       <path id="DejaVuSans-6c" d="M 603 4863 
L 1178 4863 
L 1178 0 
L 603 0 
L 603 4863 
z
" transform="scale(0.015625)"/>
       <path id="DejaVuSans-6f" d="M 1959 3097 
Q 1497 3097 1228 2736 
Q 959 2375 959 1747 
Q 959 1119 1226 758 
Q 1494 397 1959 397 
Q 2419 397 2687 759 
Q 2956 1122 2956 1747 
Q 2956 2369 2687 2733 
Q 2419 3097 1959 3097 
z
M 1959 3584 
Q 2709 3584 3137 3096 
Q 3566 2609 3566 1747 
Q 3566 888 3137 398 
Q 2709 -91 1959 -91 
Q 1206 -91 779 398 
Q 353 888 353 1747 
Q 353 2609 779 3096 
Q 1206 3584 1959 3584 
z
" transform="scale(0.015625)"/>
       <path id="DejaVuSans-67" d="M 2906 1791 
Q 2906 2416 2648 2759 
Q 2391 3103 1925 3103 
Q 1463 3103 1205 2759 
Q 947 2416 947 1791 
Q 947 1169 1205 825 
Q 1463 481 1925 481 
Q 2391 481 2648 825 
Q 2906 1169 2906 1791 
z
M 3481 434 
Q 3481 -459 3084 -895 
Q 2688 -1331 1869 -1331 
Q 1566 -1331 1297 -1286 
Q 1028 -1241 775 -1147 
L 775 -588 
Q 1028 -725 1275 -790 
Q 1522 -856 1778 -856 
Q 2344 -856 2625 -561 
Q 2906 -266 2906 331 
L 2906 616 
Q 2728 306 2450 153 
Q 2172 0 1784 0 
Q 1141 0 747 490 
Q 353 981 353 1791 
Q 353 2603 747 3093 
Q 1141 3584 1784 3584 
Q 2172 3584 2450 3431 
Q 2728 3278 2906 2969 
L 2906 3500 
L 3481 3500 
L 3481 434 
z
" transform="scale(0.015625)"/>
       <path id="DejaVuSans-31" d="M 794 531 
L 1825 531 
L 1825 4091 
L 703 3866 
L 703 4441 
L 1819 4666 
L 2450 4666 
L 2450 531 
L 3481 531 
L 3481 0 
L 794 0 
L 794 531 
z
" transform="scale(0.015625)"/>
       <path id="DejaVuSans-30" d="M 2034 4250 
Q 1547 4250 1301 3770 
Q 1056 3291 1056 2328 
Q 1056 1369 1301 889 
Q 1547 409 2034 409 
Q 2525 409 2770 889 
Q 3016 1369 3016 2328 
Q 3016 3291 2770 3770 
Q 2525 4250 2034 4250 
z
M 2034 4750 
Q 2819 4750 3233 4129 
Q 3647 3509 3647 2328 
Q 3647 1150 3233 529 
Q 2819 -91 2034 -91 
Q 1250 -91 836 529 
Q 422 1150 422 2328 
Q 422 3509 836 4129 
Q 1250 4750 2034 4750 
z
" transform="scale(0.015625)"/>
       <path id="DejaVuSans-28" d="M 1984 4856 
Q 1566 4138 1362 3434 
Q 1159 2731 1159 2009 
Q 1159 1288 1364 580 
Q 1569 -128 1984 -844 
L 1484 -844 
Q 1016 -109 783 600 
Q 550 1309 550 2009 
Q 550 2706 781 3412 
Q 1013 4119 1484 4856 
L 1984 4856 
z
" transform="scale(0.015625)"/>
       <path id="DejaVuSans-Oblique-41" d="M 2356 4666 
L 3072 4666 
L 3938 0 
L 3278 0 
L 3084 1197 
L 984 1197 
L 325 0 
L -341 0 
L 2356 4666 
z
M 2584 4044 
L 1275 1722 
L 2988 1722 
L 2584 4044 
z
" transform="scale(0.015625)"/>
       <path id="DejaVuSans-Oblique-48" d="M 1081 4666 
L 1716 4666 
L 1344 2753 
L 3634 2753 
L 4006 4666 
L 4641 4666 
L 3731 0 
L 3097 0 
L 3531 2222 
L 1241 2222 
L 806 0 
L 172 0 
L 1081 4666 
z
" transform="scale(0.015625)"/>
       <path id="DejaVuSans-2f" d="M 1625 4666 
L 2156 4666 
L 531 -594 
L 0 -594 
L 1625 4666 
z
" transform="scale(0.015625)"/>
       <path id="DejaVuSans-6b" d="M 581 4863 
L 1159 4863 
L 1159 1991 
L 2875 3500 
L 3609 3500 
L 1753 1863 
L 3688 0 
L 2938 0 
L 1159 1709 
L 1159 0 
L 581 0 
L 581 4863 
z
" transform="scale(0.015625)"/>
       <path id="DejaVuSans-6d" d="M 3328 2828 
Q 3544 3216 3844 3400 
Q 4144 3584 4550 3584 
Q 5097 3584 5394 3201 
Q 5691 2819 5691 2113 
L 5691 0 
L 5113 0 
L 5113 2094 
Q 5113 2597 4934 2840 
Q 4756 3084 4391 3084 
Q 3944 3084 3684 2787 
Q 3425 2491 3425 1978 
L 3425 0 
L 2847 0 
L 2847 2094 
Q 2847 2600 2669 2842 
Q 2491 3084 2119 3084 
Q 1678 3084 1418 2786 
Q 1159 2488 1159 1978 
L 1159 0 
L 581 0 
L 581 3500 
L 1159 3500 
L 1159 2956 
Q 1356 3278 1631 3431 
Q 1906 3584 2284 3584 
Q 2666 3584 2933 3390 
Q 3200 3197 3328 2828 
z
" transform="scale(0.015625)"/>
       <path id="DejaVuSans-32" d="M 1228 531 
L 3431 531 
L 3431 0 
L 469 0 
L 469 531 
Q 828 903 1448 1529 
Q 2069 2156 2228 2338 
Q 2531 2678 2651 2914 
Q 2772 3150 2772 3378 
Q 2772 3750 2511 3984 
Q 2250 4219 1831 4219 
Q 1534 4219 1204 4116 
Q 875 4013 500 3803 
L 500 4441 
Q 881 4594 1212 4672 
Q 1544 4750 1819 4750 
Q 2544 4750 2975 4387 
Q 3406 4025 3406 3419 
Q 3406 3131 3298 2873 
Q 3191 2616 2906 2266 
Q 2828 2175 2409 1742 
Q 1991 1309 1228 531 
z
" transform="scale(0.015625)"/>
       <path id="DejaVuSans-29" d="M 513 4856 
L 1013 4856 
Q 1481 4119 1714 3412 
Q 1947 2706 1947 2009 
Q 1947 1309 1714 600 
Q 1481 -109 1013 -844 
L 513 -844 
Q 928 -128 1133 580 
Q 1338 1288 1338 2009 
Q 1338 2731 1133 3434 
Q 928 4138 513 4856 
z
" transform="scale(0.015625)"/>
       <path id="DejaVuSans-Bold-29" d="M 513 -844 
Q 913 -100 1113 609 
Q 1313 1319 1313 2009 
Q 1313 2700 1113 3408 
Q 913 4116 513 4856 
L 1441 4856 
Q 1916 4091 2145 3389 
Q 2375 2688 2375 2003 
Q 2375 1319 2147 623 
Q 1919 -72 1441 -844 
L 513 -844 
z
" transform="scale(0.015625)"/>
      </defs>
      <use xlink:href="#DejaVuSans-Bold-41" transform="translate(0 0.765625)"/>
      <use xlink:href="#DejaVuSans-Bold-67" transform="translate(77.392578 0.765625)"/>
      <use xlink:href="#DejaVuSans-Bold-52" transform="translate(148.974609 0.765625)"/>
      <use xlink:href="#DejaVuSans-Bold-69" transform="translate(225.976562 0.765625)"/>
      <use xlink:href="#DejaVuSans-Bold-63" transform="translate(260.253906 0.765625)"/>
      <use xlink:href="#DejaVuSans-Bold-68" transform="translate(319.53125 0.765625)"/>
      <use xlink:href="#DejaVuSans-Bold-74" transform="translate(390.722656 0.765625)"/>
      <use xlink:href="#DejaVuSans-Bold-65" transform="translate(438.525391 0.765625)"/>
      <use xlink:href="#DejaVuSans-Bold-72" transform="translate(506.347656 0.765625)"/>
      <use xlink:href="#DejaVuSans-Bold-20" transform="translate(555.664062 0.765625)"/>
      <use xlink:href="#DejaVuSans-Bold-4d" transform="translate(590.478516 0.765625)"/>
      <use xlink:href="#DejaVuSans-Bold-61" transform="translate(689.990234 0.765625)"/>
      <use xlink:href="#DejaVuSans-Bold-67" transform="translate(757.470703 0.765625)"/>
      <use xlink:href="#DejaVuSans-Bold-6e" transform="translate(829.052734 0.765625)"/>
      <use xlink:href="#DejaVuSans-Bold-69" transform="translate(900.244141 0.765625)"/>
      <use xlink:href="#DejaVuSans-Bold-74" transform="translate(934.521484 0.765625)"/>
      <use xlink:href="#DejaVuSans-Bold-75" transform="translate(982.324219 0.765625)"/>
      <use xlink:href="#DejaVuSans-Bold-64" transform="translate(1053.515625 0.765625)"/>
      <use xlink:href="#DejaVuSans-Bold-65" transform="translate(1125.097656 0.765625)"/>
      <use xlink:href="#DejaVuSans-Bold-20" transform="translate(1192.919922 0.765625)"/>
      <use xlink:href="#DejaVuSans-Bold-28" transform="translate(1227.734375 0.765625)"/>
      <use xlink:href="#DejaVuSans-Oblique-4d" transform="translate(1273.4375 0.765625)"/>
      <use xlink:href="#DejaVuSans-Oblique-44" transform="translate(1359.716797 -15.640625) scale(0.7)"/>
      <use xlink:href="#DejaVuSans-3d" transform="translate(1435.834961 0.765625)"/>
      <use xlink:href="#DejaVuSans-6c" transform="translate(1539.106445 0.765625)"/>
      <use xlink:href="#DejaVuSans-6f" transform="translate(1566.889648 0.765625)"/>
      <use xlink:href="#DejaVuSans-67" transform="translate(1628.071289 0.765625)"/>
      <use xlink:href="#DejaVuSans-31" transform="translate(1692.504883 -15.640625) scale(0.7)"/>
      <use xlink:href="#DejaVuSans-30" transform="translate(1737.041016 -15.640625) scale(0.7)"/>
      <use xlink:href="#DejaVuSans-28" transform="translate(1800.5472 0.765625)"/>
      <use xlink:href="#DejaVuSans-Oblique-41" transform="translate(1839.560872 0.765625)"/>
      <use xlink:href="#DejaVuSans-Oblique-48" transform="translate(1907.969075 -15.640625) scale(0.7)"/>
      <use xlink:href="#DejaVuSans-2f" transform="translate(1963.340168 0.765625)"/>
      <use xlink:href="#DejaVuSans-6b" transform="translate(1997.031575 0.765625)"/>
      <use xlink:href="#DejaVuSans-6d" transform="translate(2054.941731 0.765625)"/>
      <use xlink:href="#DejaVuSans-32" transform="translate(2153.310872 39.046875) scale(0.7)"/>
      <use xlink:href="#DejaVuSans-29" transform="translate(2200.581379 0.765625)"/>
      <use xlink:href="#DejaVuSans-Bold-29" transform="translate(2239.595051 0.765625)"/>
     </g>
    </g>
   </g>
   <g id="matplotlib.axis_2">
    <g id="ytick_1">
     <g id="line2d_13">
      <path d="M 50.836875 666.149875 
L 990.371875 666.149875 
" clip-path="url(#pad4aa49ed0)" style="fill: none; stroke: #b0b0b0; stroke-opacity: 0.15; stroke-width: 0.8; stroke-linecap: square"/>
     </g>
     <g id="line2d_14">
      <defs>
       <path id="m72a10150bc" d="M 0 0 
L -3.5 0 
" style="stroke: #000000; stroke-width: 0.8"/>
      </defs>
      <g>
       <use xlink:href="#m72a10150bc" x="50.836875" y="666.149875" style="stroke: #000000; stroke-width: 0.8"/>
      </g>
     </g>
     <g id="text_8">
      <!-- 0 -->
      <g transform="translate(37.474375 669.949094) scale(0.1 -0.1)">
       <use xlink:href="#DejaVuSans-30"/>
      </g>
     </g>
    </g>
    <g id="ytick_2">
     <g id="line2d_15">
      <path d="M 50.836875 548.249685 
L 990.371875 548.249685 
" clip-path="url(#pad4aa49ed0)" style="fill: none; stroke: #b0b0b0; stroke-opacity: 0.15; stroke-width: 0.8; stroke-linecap: square"/>
     </g>
     <g id="line2d_16">
      <g>
       <use xlink:href="#m72a10150bc" x="50.836875" y="548.249685" style="stroke: #000000; stroke-width: 0.8"/>
      </g>
     </g>
     <g id="text_9">
      <!-- 20 -->
      <g transform="translate(31.111875 552.048903) scale(0.1 -0.1)">
       <use xlink:href="#DejaVuSans-32"/>
       <use xlink:href="#DejaVuSans-30" transform="translate(63.623047 0)"/>
      </g>
     </g>
    </g>
    <g id="ytick_3">
     <g id="line2d_17">
      <path d="M 50.836875 430.349494 
L 990.371875 430.349494 
" clip-path="url(#pad4aa49ed0)" style="fill: none; stroke: #b0b0b0; stroke-opacity: 0.15; stroke-width: 0.8; stroke-linecap: square"/>
     </g>
     <g id="line2d_18">
      <g>
       <use xlink:href="#m72a10150bc" x="50.836875" y="430.349494" style="stroke: #000000; stroke-width: 0.8"/>
      </g>
     </g>
     <g id="text_10">
      <!-- 40 -->
      <g transform="translate(31.111875 434.148713) scale(0.1 -0.1)">
       <use xlink:href="#DejaVuSans-34"/>
       <use xlink:href="#DejaVuSans-30" transform="translate(63.623047 0)"/>
      </g>
     </g>
    </g>
    <g id="ytick_4">
     <g id="line2d_19">
      <path d="M 50.836875 312.449304 
L 990.371875 312.449304 
" clip-path="url(#pad4aa49ed0)" style="fill: none; stroke: #b0b0b0; stroke-opacity: 0.15; stroke-width: 0.8; stroke-linecap: square"/>
     </g>
     <g id="line2d_20">
      <g>
       <use xlink:href="#m72a10150bc" x="50.836875" y="312.449304" style="stroke: #000000; stroke-width: 0.8"/>
      </g>
     </g>
     <g id="text_11">
      <!-- 60 -->
      <g transform="translate(31.111875 316.248522) scale(0.1 -0.1)">
       <use xlink:href="#DejaVuSans-36"/>
       <use xlink:href="#DejaVuSans-30" transform="translate(63.623047 0)"/>
      </g>
     </g>
    </g>
    <g id="ytick_5">
     <g id="line2d_21">
      <path d="M 50.836875 194.549113 
L 990.371875 194.549113 
" clip-path="url(#pad4aa49ed0)" style="fill: none; stroke: #b0b0b0; stroke-opacity: 0.15; stroke-width: 0.8; stroke-linecap: square"/>
     </g>
     <g id="line2d_22">
      <g>
       <use xlink:href="#m72a10150bc" x="50.836875" y="194.549113" style="stroke: #000000; stroke-width: 0.8"/>
      </g>
     </g>
     <g id="text_12">
      <!-- 80 -->
      <g transform="translate(31.111875 198.348332) scale(0.1 -0.1)">
       <use xlink:href="#DejaVuSans-38"/>
       <use xlink:href="#DejaVuSans-30" transform="translate(63.623047 0)"/>
      </g>
     </g>
    </g>
    <g id="ytick_6">
     <g id="line2d_23">
      <path d="M 50.836875 76.648923 
L 990.371875 76.648923 
" clip-path="url(#pad4aa49ed0)" style="fill: none; stroke: #b0b0b0; stroke-opacity: 0.15; stroke-width: 0.8; stroke-linecap: square"/>
     </g>
     <g id="line2d_24">
      <g>
       <use xlink:href="#m72a10150bc" x="50.836875" y="76.648923" style="stroke: #000000; stroke-width: 0.8"/>
      </g>
     </g>
     <g id="text_13">
      <!-- 100 -->
      <g transform="translate(24.749375 80.448141) scale(0.1 -0.1)">
       <use xlink:href="#DejaVuSans-31"/>
       <use xlink:href="#DejaVuSans-30" transform="translate(63.623047 0)"/>
       <use xlink:href="#DejaVuSans-30" transform="translate(127.246094 0)"/>
      </g>
     </g>
    </g>
    <g id="text_14">
     <!-- Production Loss (% of Total) -->
     <g transform="translate(17.837813 467.477344) rotate(-90) scale(0.14 -0.14)">
      <defs>
       <path id="DejaVuSans-Bold-50" d="M 588 4666 
L 2584 4666 
Q 3475 4666 3951 4270 
Q 4428 3875 4428 3144 
Q 4428 2409 3951 2014 
Q 3475 1619 2584 1619 
L 1791 1619 
L 1791 0 
L 588 0 
L 588 4666 
z
M 1791 3794 
L 1791 2491 
L 2456 2491 
Q 2806 2491 2997 2661 
Q 3188 2831 3188 3144 
Q 3188 3456 2997 3625 
Q 2806 3794 2456 3794 
L 1791 3794 
z
" transform="scale(0.015625)"/>
       <path id="DejaVuSans-Bold-6f" d="M 2203 2784 
Q 1831 2784 1636 2517 
Q 1441 2250 1441 1747 
Q 1441 1244 1636 976 
Q 1831 709 2203 709 
Q 2569 709 2762 976 
Q 2956 1244 2956 1747 
Q 2956 2250 2762 2517 
Q 2569 2784 2203 2784 
z
M 2203 3584 
Q 3106 3584 3614 3096 
Q 4122 2609 4122 1747 
Q 4122 884 3614 396 
Q 3106 -91 2203 -91 
Q 1297 -91 786 396 
Q 275 884 275 1747 
Q 275 2609 786 3096 
Q 1297 3584 2203 3584 
z
" transform="scale(0.015625)"/>
       <path id="DejaVuSans-Bold-4c" d="M 588 4666 
L 1791 4666 
L 1791 909 
L 3903 909 
L 3903 0 
L 588 0 
L 588 4666 
z
" transform="scale(0.015625)"/>
       <path id="DejaVuSans-Bold-73" d="M 3272 3391 
L 3272 2541 
Q 2913 2691 2578 2766 
Q 2244 2841 1947 2841 
Q 1628 2841 1473 2761 
Q 1319 2681 1319 2516 
Q 1319 2381 1436 2309 
Q 1553 2238 1856 2203 
L 2053 2175 
Q 2913 2066 3209 1816 
Q 3506 1566 3506 1031 
Q 3506 472 3093 190 
Q 2681 -91 1863 -91 
Q 1516 -91 1145 -36 
Q 775 19 384 128 
L 384 978 
Q 719 816 1070 734 
Q 1422 653 1784 653 
Q 2113 653 2278 743 
Q 2444 834 2444 1013 
Q 2444 1163 2330 1236 
Q 2216 1309 1875 1350 
L 1678 1375 
Q 931 1469 631 1722 
Q 331 1975 331 2491 
Q 331 3047 712 3315 
Q 1094 3584 1881 3584 
Q 2191 3584 2531 3537 
Q 2872 3491 3272 3391 
z
" transform="scale(0.015625)"/>
       <path id="DejaVuSans-Bold-25" d="M 4959 1925 
Q 4738 1925 4616 1733 
Q 4494 1541 4494 1184 
Q 4494 825 4614 633 
Q 4734 441 4959 441 
Q 5184 441 5303 633 
Q 5422 825 5422 1184 
Q 5422 1541 5301 1733 
Q 5181 1925 4959 1925 
z
M 4959 2450 
Q 5541 2450 5875 2112 
Q 6209 1775 6209 1184 
Q 6209 594 5875 251 
Q 5541 -91 4959 -91 
Q 4378 -91 4042 251 
Q 3706 594 3706 1184 
Q 3706 1772 4042 2111 
Q 4378 2450 4959 2450 
z
M 2094 -91 
L 1403 -91 
L 4319 4750 
L 5013 4750 
L 2094 -91 
z
M 1453 4750 
Q 2034 4750 2367 4411 
Q 2700 4072 2700 3481 
Q 2700 2891 2367 2550 
Q 2034 2209 1453 2209 
Q 872 2209 539 2550 
Q 206 2891 206 3481 
Q 206 4072 539 4411 
Q 872 4750 1453 4750 
z
M 1453 4225 
Q 1228 4225 1106 4031 
Q 984 3838 984 3481 
Q 984 3122 1106 2926 
Q 1228 2731 1453 2731 
Q 1678 2731 1798 2926 
Q 1919 3122 1919 3481 
Q 1919 3838 1797 4031 
Q 1675 4225 1453 4225 
z
" transform="scale(0.015625)"/>
       <path id="DejaVuSans-Bold-66" d="M 2841 4863 
L 2841 4128 
L 2222 4128 
Q 1984 4128 1890 4042 
Q 1797 3956 1797 3744 
L 1797 3500 
L 2753 3500 
L 2753 2700 
L 1797 2700 
L 1797 0 
L 678 0 
L 678 2700 
L 122 2700 
L 122 3500 
L 678 3500 
L 678 3744 
Q 678 4316 997 4589 
Q 1316 4863 1984 4863 
L 2841 4863 
z
" transform="scale(0.015625)"/>
       <path id="DejaVuSans-Bold-54" d="M 31 4666 
L 4331 4666 
L 4331 3756 
L 2784 3756 
L 2784 0 
L 1581 0 
L 1581 3756 
L 31 3756 
L 31 4666 
z
" transform="scale(0.015625)"/>
       <path id="DejaVuSans-Bold-6c" d="M 538 4863 
L 1656 4863 
L 1656 0 
L 538 0 
L 538 4863 
z
" transform="scale(0.015625)"/>
      </defs>
      <use xlink:href="#DejaVuSans-Bold-50"/>
      <use xlink:href="#DejaVuSans-Bold-72" transform="translate(73.291016 0)"/>
      <use xlink:href="#DejaVuSans-Bold-6f" transform="translate(122.607422 0)"/>
      <use xlink:href="#DejaVuSans-Bold-64" transform="translate(191.308594 0)"/>
      <use xlink:href="#DejaVuSans-Bold-75" transform="translate(262.890625 0)"/>
      <use xlink:href="#DejaVuSans-Bold-63" transform="translate(334.082031 0)"/>
      <use xlink:href="#DejaVuSans-Bold-74" transform="translate(393.359375 0)"/>
      <use xlink:href="#DejaVuSans-Bold-69" transform="translate(441.162109 0)"/>
      <use xlink:href="#DejaVuSans-Bold-6f" transform="translate(475.439453 0)"/>
      <use xlink:href="#DejaVuSans-Bold-6e" transform="translate(544.140625 0)"/>
      <use xlink:href="#DejaVuSans-Bold-20" transform="translate(615.332031 0)"/>
      <use xlink:href="#DejaVuSans-Bold-4c" transform="translate(650.146484 0)"/>
      <use xlink:href="#DejaVuSans-Bold-6f" transform="translate(713.867188 0)"/>
      <use xlink:href="#DejaVuSans-Bold-73" transform="translate(782.568359 0)"/>
      <use xlink:href="#DejaVuSans-Bold-73" transform="translate(842.089844 0)"/>
      <use xlink:href="#DejaVuSans-Bold-20" transform="translate(901.611328 0)"/>
      <use xlink:href="#DejaVuSans-Bold-28" transform="translate(936.425781 0)"/>
      <use xlink:href="#DejaVuSans-Bold-25" transform="translate(982.128906 0)"/>
      <use xlink:href="#DejaVuSans-Bold-20" transform="translate(1082.324219 0)"/>
      <use xlink:href="#DejaVuSans-Bold-6f" transform="translate(1117.138672 0)"/>
      <use xlink:href="#DejaVuSans-Bold-66" transform="translate(1185.839844 0)"/>
      <use xlink:href="#DejaVuSans-Bold-20" transform="translate(1229.345703 0)"/>
      <use xlink:href="#DejaVuSans-Bold-54" transform="translate(1264.160156 0)"/>
      <use xlink:href="#DejaVuSans-Bold-6f" transform="translate(1319.123047 0)"/>
      <use xlink:href="#DejaVuSans-Bold-74" transform="translate(1387.824219 0)"/>
      <use xlink:href="#DejaVuSans-Bold-61" transform="translate(1435.626953 0)"/>
      <use xlink:href="#DejaVuSans-Bold-6c" transform="translate(1503.107422 0)"/>
      <use xlink:href="#DejaVuSans-Bold-29" transform="translate(1537.384766 0)"/>
     </g>
    </g>
   </g>
   <g id="line2d_25">
    <path d="M -1 664.718082 
L 32.120786 664.082321 
L 58.673606 663.364582 
L 81.433256 662.534818 
L 101.664006 661.576506 
L 119.365856 660.520294 
L 135.803346 659.314427 
L 150.976386 657.968859 
L 164.885066 656.499872 
L 177.529206 654.934058 
L 188.909076 653.308037 
L 200.288856 651.446468 
L 210.404186 649.568863 
L 220.519606 647.456929 
L 229.370486 645.394439 
L 238.221456 643.113187 
L 247.072471 640.598801 
L 255.923441 637.831096 
L 263.509961 635.236895 
L 271.096481 632.429065 
L 278.683001 629.39232 
L 286.269521 626.111151 
L 293.856041 622.556348 
L 300.178111 619.355262 
L 306.500271 615.918362 
L 312.822341 612.222613 
L 319.144501 608.254242 
L 325.466571 603.997026 
L 331.788641 599.450919 
L 338.110801 594.636877 
L 344.432871 589.544016 
L 350.755031 584.118002 
L 357.077101 578.32945 
L 362.134811 573.42233 
L 367.192431 568.249833 
L 372.250141 562.799777 
L 377.307851 557.081323 
L 382.365561 551.065188 
L 387.423181 544.721994 
L 392.480891 538.008926 
L 397.538601 530.908794 
L 402.596311 523.395472 
L 407.653931 515.444985 
L 412.711641 507.035116 
L 417.769351 498.148995 
L 422.826971 488.782894 
L 427.884681 478.911819 
L 432.942391 468.498616 
L 438.000101 457.528015 
L 443.057721 445.984821 
L 448.115431 433.866237 
L 453.173141 421.211432 
L 458.230762 408.074006 
L 463.288471 394.308131 
L 468.346181 379.866167 
L 474.668251 361.07878 
L 479.725961 345.581641 
L 484.783671 329.349232 
L 489.841381 312.264583 
L 494.899001 294.313731 
L 499.956711 275.560382 
L 506.278782 251.236751 
L 515.129751 216.229134 
L 527.773981 165.893726 
L 531.567241 151.912524 
L 534.096052 143.328153 
L 536.624951 135.321698 
L 539.153761 127.917831 
L 541.682572 120.987476 
L 545.475832 111.37787 
L 548.004731 105.367238 
L 551.797991 97.073864 
L 555.591251 89.373697 
L 559.384511 82.214394 
L 561.913322 77.987408 
L 563.177771 76.648923 
L 563.177771 76.648923 
" clip-path="url(#pad4aa49ed0)" style="fill: none; stroke: #1f77b4; stroke-opacity: 0.8; stroke-width: 2; stroke-linecap: square"/>
   </g>
   <g id="line2d_26">
    <path d="M -1 665.033618 
L 35.351396 664.464494 
L 69.898421 663.696626 
L 101.788058 662.770663 
L 127.033958 661.820657 
L 148.293686 660.813772 
L 169.553414 659.588824 
L 186.826882 658.379289 
L 202.771746 657.04632 
L 217.387736 655.614725 
L 232.003816 653.946577 
L 245.291113 652.18933 
L 257.249715 650.377213 
L 267.879624 648.558991 
L 278.509444 646.52281 
L 289.139353 644.238647 
L 298.440478 642.019535 
L 307.741604 639.575582 
L 317.042729 636.878403 
L 325.015071 634.340385 
L 332.987503 631.575308 
L 340.959845 628.567311 
L 348.932277 625.288438 
L 355.575925 622.33528 
L 362.219574 619.169561 
L 368.863312 615.77515 
L 375.50696 612.137057 
L 382.150608 608.235468 
L 388.794256 604.048558 
L 395.437905 599.557882 
L 402.081553 594.74213 
L 407.396508 590.637258 
L 412.711462 586.294511 
L 418.026417 581.70451 
L 423.341281 576.851867 
L 428.656236 571.716553 
L 433.97119 566.282812 
L 439.286145 560.534704 
L 444.60101 554.459134 
L 449.915964 548.035484 
L 455.230919 541.240845 
L 460.545784 534.04932 
L 465.860738 526.440277 
L 471.175693 518.395384 
L 476.490647 509.888613 
L 481.805512 500.891805 
L 487.120466 491.382905 
L 492.435421 481.329062 
L 497.750375 470.707796 
L 503.06524 459.505379 
L 508.380195 447.696386 
L 513.695149 435.236959 
L 519.010014 422.106498 
L 524.324969 408.27286 
L 529.639923 393.69627 
L 534.954878 378.332674 
L 540.269742 362.133249 
L 545.584697 345.048333 
L 550.899651 327.049449 
L 556.214606 308.102559 
L 561.529471 288.15551 
L 566.844425 267.180133 
L 572.15938 245.138787 
L 577.474334 222.038518 
L 582.789199 197.997098 
L 590.761631 160.84532 
L 597.405279 129.957385 
L 601.39145 112.207619 
L 604.048927 101.13667 
L 606.706405 91.08793 
L 608.035098 86.687553 
L 609.363882 82.881536 
L 610.692576 79.811892 
L 612.021359 77.61206 
L 613.350232 76.648923 
L 613.350232 76.648923 
" clip-path="url(#pad4aa49ed0)" style="fill: none; stroke: #d62728; stroke-opacity: 0.8; stroke-width: 2; stroke-linecap: square"/>
   </g>
   <g id="line2d_27">
    <path d="M -1 664.34788 
L 28.007964 663.624005 
L 52.413136 662.827354 
L 79.258952 661.705104 
L 118.307264 659.79439 
L 139.051787 658.500305 
L 156.135479 657.267786 
L 170.778619 655.999731 
L 184.201482 654.62998 
L 196.404068 653.180267 
L 208.606655 651.50138 
L 219.589054 649.765615 
L 229.351177 648.017929 
L 239.11321 646.053764 
L 248.875333 643.845439 
L 257.41718 641.689519 
L 265.959026 639.318381 
L 274.500783 636.720727 
L 283.042629 633.876356 
L 291.584475 630.780554 
L 298.906045 627.880086 
L 306.227615 624.737257 
L 313.549185 621.350136 
L 320.870755 617.70394 
L 328.192324 613.768228 
L 335.513894 609.564533 
L 341.615187 605.813958 
L 347.71657 601.861468 
L 353.817863 597.640018 
L 359.919157 593.129148 
L 368.461003 586.490774 
L 375.782573 580.545965 
L 381.883866 575.296107 
L 387.985159 569.776598 
L 394.086452 563.975689 
L 401.408022 556.693124 
L 407.509315 550.293862 
L 413.610698 543.523716 
L 418.491715 537.811975 
L 424.593008 530.27957 
L 429.474025 523.915552 
L 435.575407 515.543603 
L 440.456424 508.522725 
L 445.337441 501.168255 
L 450.218547 493.441398 
L 456.31984 483.304265 
L 462.421133 472.707079 
L 468.522427 461.660203 
L 474.62372 450.102937 
L 480.725013 438.153221 
L 486.826396 425.793418 
L 492.927689 412.791035 
L 497.808706 401.974793 
L 502.689722 390.653461 
L 507.570829 378.772082 
L 512.451845 366.315781 
L 518.553138 350.014315 
L 523.434245 336.308114 
L 528.315261 322.018288 
L 533.196278 307.135463 
L 539.297571 287.756068 
L 545.398954 267.448208 
L 551.500247 246.237491 
L 558.821817 219.80931 
L 573.464956 166.294356 
L 579.56625 145.146969 
L 584.447266 129.104404 
L 588.108096 117.780601 
L 591.768836 107.39348 
L 595.429666 97.710681 
L 597.870129 91.711059 
L 600.310682 86.351582 
L 602.751236 81.772527 
L 603.971512 79.793708 
L 605.191699 78.217468 
L 606.411976 77.158103 
L 607.632252 76.648923 
L 607.632252 76.648923 
" clip-path="url(#pad4aa49ed0)" style="fill: none; stroke: #ff7f0e; stroke-opacity: 0.8; stroke-width: 2; stroke-linecap: square"/>
   </g>
   <g id="line2d_28">
    <path d="M -1 657.637516 
L 17.121437 656.001995 
L 39.287794 653.734392 
L 69.620703 650.34634 
L 83.620507 648.532927 
L 97.620356 646.478638 
L 110.453464 644.401377 
L 122.119968 642.303939 
L 132.619866 640.214957 
L 143.119674 637.914084 
L 152.452877 635.684177 
L 161.786079 633.220698 
L 171.119282 630.503549 
L 179.285879 627.909074 
L 187.452387 625.086811 
L 194.452289 622.442924 
L 201.452191 619.588171 
L 208.452093 616.518441 
L 215.451995 613.22892 
L 222.451897 609.689797 
L 229.451799 605.873491 
L 236.451701 601.758106 
L 243.451603 597.332416 
L 250.451505 592.587842 
L 256.284802 588.384466 
L 263.284704 583.038043 
L 269.117911 578.312385 
L 274.951207 573.313041 
L 281.951109 566.973798 
L 288.951011 560.353569 
L 294.784218 554.568163 
L 300.617515 548.502425 
L 306.450722 542.133127 
L 312.284018 535.416695 
L 320.450526 525.615441 
L 326.283822 518.336642 
L 332.117029 510.696593 
L 337.950326 502.642561 
L 343.783532 494.168885 
L 349.616829 485.262875 
L 355.450036 475.890227 
L 360.116637 468.01368 
L 364.783239 459.746315 
L 369.44984 451.060728 
L 374.116441 441.943787 
L 378.783043 432.39204 
L 383.449644 422.378462 
L 388.116245 411.87453 
L 392.782847 400.881958 
L 397.449448 389.381401 
L 402.116049 377.338216 
L 406.782651 364.735977 
L 411.449252 351.562948 
L 416.115854 337.811903 
L 421.94915 319.822436 
L 427.782357 301.072258 
L 434.782259 277.718973 
L 444.115462 245.633232 
L 465.115168 173.072872 
L 475.615066 137.928934 
L 487.281569 100.046419 
L 489.61487 92.879493 
L 491.94817 86.42262 
L 494.281471 80.857656 
L 495.448077 79.005563 
L 496.614772 77.503487 
L 497.781736 76.648923 
L 497.781736 76.648923 
" clip-path="url(#pad4aa49ed0)" style="fill: none; stroke: #2ca02c; stroke-opacity: 0.8; stroke-width: 2; stroke-linecap: square"/>
   </g>
   <g id="line2d_29">
    <path d="M -1 649.213849 
L 7.987507 647.298837 
L 16.471919 645.289918 
L 24.956331 643.063867 
L 33.440744 640.599229 
L 41.925156 637.869382 
L 48.995574 635.372789 
L 56.065902 632.65611 
L 63.136231 629.703792 
L 70.206649 626.490247 
L 77.276977 622.993354 
L 84.347306 619.21657 
L 92.831718 614.445523 
L 99.902136 610.137697 
L 105.55838 606.488788 
L 111.214715 602.588161 
L 116.87096 598.415292 
L 122.527205 593.972249 
L 131.011706 586.992468 
L 136.667951 581.991879 
L 142.324196 576.66646 
L 147.98053 571.038331 
L 153.636775 565.126417 
L 159.29311 558.887348 
L 164.949355 552.306213 
L 170.605689 545.348816 
L 176.261934 538.047687 
L 181.918268 530.315054 
L 187.574513 522.306348 
L 191.816764 515.996912 
L 196.058925 509.368403 
L 200.301176 502.405672 
L 204.543337 495.105912 
L 208.785588 487.472013 
L 214.441833 476.788578 
L 220.098167 465.561025 
L 224.340329 456.732342 
L 229.996663 444.349444 
L 234.238824 434.710292 
L 238.481075 424.589762 
L 242.723326 413.979413 
L 249.793654 395.60834 
L 254.035905 384.122325 
L 258.278067 372.049648 
L 263.934401 355.154234 
L 268.176562 341.858889 
L 272.418813 327.930335 
L 276.660974 313.323464 
L 280.903225 298.009467 
L 285.145386 281.964253 
L 289.387637 265.14904 
L 293.629888 247.54719 
L 300.700216 216.944535 
L 307.770545 184.977845 
L 320.497208 127.490177 
L 324.739459 109.268239 
L 326.153453 103.66806 
L 327.567536 98.562024 
L 330.395703 89.524844 
L 333.223871 81.180461 
L 334.637954 77.905804 
L 336.051948 76.648923 
L 336.051948 76.648923 
" clip-path="url(#pad4aa49ed0)" style="fill: none; stroke: #9467bd; stroke-opacity: 0.8; stroke-width: 2; stroke-linecap: square"/>
   </g>
   <g id="line2d_30">
    <path d="M -1 660.565372 
L 15.768238 659.361135 
L 30.776546 658.077564 
L 44.712823 656.665998 
L 57.577113 655.136055 
L 69.369372 653.513072 
L 80.089598 651.82755 
L 90.809825 649.915152 
L 101.530007 647.755875 
L 111.178247 645.574888 
L 119.754411 643.423405 
L 128.330664 641.045743 
L 136.906828 638.422067 
L 144.411004 635.905275 
L 151.915091 633.170522 
L 159.419268 630.189785 
L 166.923445 626.94908 
L 173.355545 623.948453 
L 179.787735 620.730071 
L 186.219835 617.281846 
L 192.652025 613.593976 
L 199.084125 609.657952 
L 205.516225 605.45982 
L 211.948415 601.006355 
L 218.380515 596.242881 
L 224.812705 591.183163 
L 231.244806 585.823925 
L 237.676995 580.205669 
L 244.109096 574.257653 
L 249.469209 568.994969 
L 254.829322 563.419739 
L 260.189436 557.512077 
L 265.549549 551.249228 
L 270.909663 544.598178 
L 276.269776 537.529471 
L 281.62989 530.017489 
L 286.990003 522.040603 
L 291.278129 515.299965 
L 295.566166 508.222018 
L 299.854293 500.794683 
L 304.14233 493.007565 
L 308.430457 484.845907 
L 312.718583 476.281007 
L 317.00662 467.297598 
L 321.294747 457.872188 
L 325.582873 447.985525 
L 329.87091 437.607334 
L 334.159037 426.709007 
L 338.447074 415.273816 
L 342.7352 403.276595 
L 347.023327 390.68973 
L 351.311364 377.496915 
L 355.59949 363.665362 
L 359.887527 349.179011 
L 364.175654 334.015691 
L 368.46378 318.15961 
L 372.751817 301.579082 
L 377.039944 284.254478 
L 381.327981 266.17279 
L 386.688094 242.480922 
L 392.048208 217.524172 
L 397.408321 191.26462 
L 402.768524 163.811713 
L 408.128638 135.247565 
L 416.704801 88.31857 
L 417.776788 83.5609 
L 418.848864 79.626935 
L 419.920851 76.648923 
L 419.920851 76.648923 
" clip-path="url(#pad4aa49ed0)" style="fill: none; stroke: #8c564b; stroke-opacity: 0.8; stroke-width: 1.5; stroke-linecap: square"/>
   </g>
   <g id="line2d_31">
    <path d="M -1 660.667526 
L 15.147078 659.565265 
L 32.205683 658.169833 
L 46.162747 656.808855 
L 60.119812 655.213367 
L 72.526061 653.566159 
L 84.932311 651.69975 
L 95.787835 649.838713 
L 106.643359 647.730053 
L 117.498794 645.372934 
L 126.803504 643.135381 
L 136.108213 640.657631 
L 145.412923 637.914652 
L 153.166907 635.397388 
L 162.471527 632.101242 
L 171.776237 628.583332 
L 179.530221 625.435877 
L 187.284116 622.054831 
L 195.038011 618.40336 
L 202.791995 614.449834 
L 208.995075 611.062353 
L 215.198245 607.44462 
L 221.401415 603.600602 
L 227.604495 599.541662 
L 233.807664 595.234809 
L 240.010744 590.642858 
L 246.213914 585.766332 
L 252.417083 580.581037 
L 258.620163 575.055135 
L 264.823333 569.175132 
L 271.026502 562.930822 
L 277.229582 556.311733 
L 283.432752 549.353244 
L 289.635922 541.991202 
L 295.839002 534.227465 
L 302.042171 526.045919 
L 306.694526 519.588559 
L 312.897696 510.556216 
L 317.549961 503.42373 
L 322.202316 495.967288 
L 328.405485 485.541188 
L 333.05784 477.346487 
L 337.710195 468.791041 
L 343.913364 456.813263 
L 350.116444 444.203014 
L 356.319614 430.952328 
L 362.522784 417.082618 
L 368.725864 402.583274 
L 374.929033 387.375817 
L 381.132203 371.42251 
L 387.335283 354.783677 
L 393.538452 337.417127 
L 399.741532 319.335355 
L 407.495517 295.860298 
L 413.698597 276.398336 
L 419.901766 256.162704 
L 427.655661 230.026752 
L 441.612815 181.670551 
L 450.917525 148.520358 
L 463.323685 103.828495 
L 466.425314 93.4014 
L 467.976129 88.46726 
L 469.526944 83.961778 
L 471.077579 79.946396 
L 472.628394 76.648923 
L 472.628394 76.648923 
" clip-path="url(#pad4aa49ed0)" style="fill: none; stroke: #e377c2; stroke-opacity: 0.8; stroke-width: 1.5; stroke-linecap: square"/>
   </g>
   <g id="line2d_32">
    <path d="M -1 661.15643 
L 15.299938 660.060922 
L 29.887435 658.877271 
L 44.474843 657.464296 
L 57.846633 655.928386 
L 70.002806 654.299625 
L 80.943362 652.621301 
L 91.883918 650.71601 
L 101.608856 648.801576 
L 111.333795 646.674835 
L 119.843116 644.630191 
L 128.352437 642.367184 
L 136.861848 639.88136 
L 152.664873 634.904147 
L 162.389811 631.661271 
L 170.899132 628.623209 
L 180.624071 624.88068 
L 189.133392 621.378639 
L 196.427096 618.147016 
L 203.7208 614.679547 
L 211.014504 610.92527 
L 218.308207 606.881916 
L 224.386294 603.287149 
L 231.679998 598.708498 
L 238.973791 593.854417 
L 245.051878 589.547818 
L 251.129964 584.995036 
L 257.208051 580.188203 
L 263.286137 575.128339 
L 269.364224 569.780039 
L 275.442311 564.108551 
L 281.520397 558.132325 
L 287.598484 551.816318 
L 292.460953 546.461203 
L 297.323422 540.811574 
L 302.185891 534.84823 
L 307.048361 528.557765 
L 311.91083 521.927187 
L 316.773299 514.949609 
L 321.635768 507.613467 
L 326.498237 499.890893 
L 331.360707 491.782082 
L 336.223176 483.29099 
L 341.085645 474.387301 
L 345.948204 465.04587 
L 350.810673 455.234147 
L 355.673142 444.9393 
L 360.535612 434.156204 
L 365.398081 422.885214 
L 370.26055 411.138679 
L 375.123019 398.862073 
L 379.985489 385.997121 
L 384.847958 372.513443 
L 389.710427 358.399308 
L 394.572896 343.61979 
L 400.650983 324.3166 
L 406.729069 304.090309 
L 412.807156 282.943616 
L 418.885242 260.971813 
L 426.178946 233.743767 
L 433.47265 205.544861 
L 440.766354 176.373715 
L 448.060147 146.045933 
L 459.000703 100.097194 
L 461.431938 90.52557 
L 463.863172 82.011672 
L 465.07879 78.513406 
L 466.294407 76.648923 
L 466.294407 76.648923 
" clip-path="url(#pad4aa49ed0)" style="fill: none; stroke: #7f7f7f; stroke-opacity: 0.8; stroke-width: 1.5; stroke-linecap: square"/>
   </g>
   <g id="line2d_33">
    <path d="M -1 658.362969 
L 12.608054 657.010754 
L 25.921469 655.475484 
L 41.897603 653.41203 
L 53.435932 651.682474 
L 64.086674 649.86465 
L 73.849872 647.986327 
L 83.613025 645.882062 
L 92.48868 643.746617 
L 101.36429 641.382809 
L 109.352357 639.04123 
L 117.340424 636.468214 
L 125.328447 633.642175 
L 132.428971 630.900863 
L 139.52945 627.920516 
L 146.629974 624.681178 
L 152.84291 621.617454 
L 159.055846 618.324655 
L 165.268782 614.788629 
L 171.481718 610.992127 
L 177.694654 606.913071 
L 183.907591 602.53303 
L 189.232939 598.521198 
L 194.558332 594.260897 
L 199.883725 589.73309 
L 205.209073 584.920627 
L 210.534466 579.804605 
L 215.859814 574.362854 
L 221.185207 568.57693 
L 226.510555 562.431246 
L 231.835948 555.898177 
L 237.161341 548.960642 
L 242.48669 541.603514 
L 247.812038 533.808623 
L 253.137386 525.546679 
L 258.462734 516.798495 
L 263.788172 507.532371 
L 268.225932 499.394609 
L 272.663782 490.854217 
L 277.101543 481.902083 
L 281.539392 472.499484 
L 285.977242 462.62341 
L 290.415003 452.242474 
L 294.852853 441.336398 
L 299.290613 429.896033 
L 303.728463 417.889815 
L 308.166313 405.290069 
L 312.604073 392.080035 
L 317.041923 378.219112 
L 321.479683 363.689956 
L 325.917533 348.455066 
L 330.355293 332.511105 
L 334.793143 315.817988 
L 339.230993 298.349834 
L 343.668754 280.095118 
L 348.994102 257.168722 
L 354.31954 233.131248 
L 358.7573 212.135 
L 364.082738 185.842408 
L 369.408086 158.432717 
L 374.733434 130.859842 
L 380.058782 105.574458 
L 383.609044 89.401154 
L 385.38422 82.132285 
L 386.271718 79.106383 
L 387.159306 76.648923 
L 387.159306 76.648923 
" clip-path="url(#pad4aa49ed0)" style="fill: none; stroke: #bcbd22; stroke-opacity: 0.8; stroke-width: 1.5; stroke-linecap: square"/>
   </g>
   <g id="line2d_34">
    <path d="M -1 652.718757 
L 9.495224 651.015564 
L 21.457814 648.828613 
L 33.420404 646.418938 
L 45.383039 643.775846 
L 55.170608 641.377091 
L 72.570772 637.005715 
L 75.83328 636.371194 
L 81.270854 635.63242 
L 94.320932 633.792118 
L 105.196034 632.044416 
L 116.071136 630.061714 
L 125.858706 628.052784 
L 136.733808 625.568346 
L 149.783931 622.332592 
L 160.658988 619.414255 
L 170.446647 616.56421 
L 179.146729 613.791087 
L 187.846721 610.762267 
L 196.546803 607.47178 
L 204.159397 604.345682 
L 210.684503 601.448713 
L 217.209519 598.335779 
L 223.734536 595.001206 
L 230.259642 591.438799 
L 236.784659 587.620123 
L 243.309765 583.535409 
L 249.834781 579.178222 
L 256.359887 574.519824 
L 261.797416 570.388555 
L 267.234945 566.009056 
L 272.672474 561.366607 
L 278.110002 556.443599 
L 283.547621 551.222538 
L 288.985149 545.681211 
L 294.422678 539.805336 
L 299.860207 533.577893 
L 305.297825 526.968987 
L 310.735354 519.955524 
L 316.172882 512.508658 
L 321.610411 504.602662 
L 327.04794 496.218127 
L 332.485558 487.321449 
L 336.835599 479.810507 
L 342.273128 469.907815 
L 347.710656 459.428542 
L 352.060697 450.610407 
L 356.410738 441.383236 
L 361.848267 429.258071 
L 367.285796 416.458496 
L 372.723324 402.955244 
L 378.160943 388.731573 
L 383.598471 373.771236 
L 389.036 358.036237 
L 393.386041 344.82712 
L 397.736082 331.023332 
L 403.173611 312.963413 
L 407.523651 297.817583 
L 412.96118 277.980544 
L 418.398798 257.151606 
L 423.836327 235.331511 
L 429.273856 212.483122 
L 435.798872 183.999139 
L 448.848995 126.566122 
L 452.111548 113.585696 
L 455.374101 101.379224 
L 458.636654 90.020212 
L 460.81163 83.422731 
L 461.899118 80.417436 
L 462.986606 78.633698 
L 464.074183 77.547853 
L 465.161671 76.648923 
L 465.161671 76.648923 
" clip-path="url(#pad4aa49ed0)" style="fill: none; stroke: #17becf; stroke-opacity: 0.8; stroke-width: 1.5; stroke-linecap: square"/>
   </g>
   <g id="patch_3">
    <path d="M 50.836875 666.149875 
L 50.836875 47.173875 
" style="fill: none; stroke: #000000; stroke-width: 0.8; stroke-linejoin: miter; stroke-linecap: square"/>
   </g>
   <g id="patch_4">
    <path d="M 990.371875 666.149875 
L 990.371875 47.173875 
" style="fill: none; stroke: #000000; stroke-width: 0.8; stroke-linejoin: miter; stroke-linecap: square"/>
   </g>
   <g id="patch_5">
    <path d="M 50.836875 666.149875 
L 990.371875 666.149875 
" style="fill: none; stroke: #000000; stroke-width: 0.8; stroke-linejoin: miter; stroke-linecap: square"/>
   </g>
   <g id="patch_6">
    <path d="M 50.836875 47.173875 
L 990.371875 47.173875 
" style="fill: none; stroke: #000000; stroke-width: 0.8; stroke-linejoin: miter; stroke-linecap: square"/>
   </g>
   <g id="text_15">
    <!-- Figure S2: National Agricultural Fingerprint Gallery -->
    <g transform="translate(259.826563 20.877187) scale(0.18 -0.18)">
     <defs>
      <path id="DejaVuSans-Bold-46" d="M 588 4666 
L 3834 4666 
L 3834 3756 
L 1791 3756 
L 1791 2888 
L 3713 2888 
L 3713 1978 
L 1791 1978 
L 1791 0 
L 588 0 
L 588 4666 
z
" transform="scale(0.015625)"/>
      <path id="DejaVuSans-Bold-53" d="M 3834 4519 
L 3834 3531 
Q 3450 3703 3084 3790 
Q 2719 3878 2394 3878 
Q 1963 3878 1756 3759 
Q 1550 3641 1550 3391 
Q 1550 3203 1689 3098 
Q 1828 2994 2194 2919 
L 2706 2816 
Q 3484 2659 3812 2340 
Q 4141 2022 4141 1434 
Q 4141 663 3683 286 
Q 3225 -91 2284 -91 
Q 1841 -91 1394 -6 
Q 947 78 500 244 
L 500 1259 
Q 947 1022 1364 901 
Q 1781 781 2169 781 
Q 2563 781 2772 912 
Q 2981 1044 2981 1288 
Q 2981 1506 2839 1625 
Q 2697 1744 2272 1838 
L 1806 1941 
Q 1106 2091 782 2419 
Q 459 2747 459 3303 
Q 459 4000 909 4375 
Q 1359 4750 2203 4750 
Q 2588 4750 2994 4692 
Q 3400 4634 3834 4519 
z
" transform="scale(0.015625)"/>
      <path id="DejaVuSans-Bold-32" d="M 1844 884 
L 3897 884 
L 3897 0 
L 506 0 
L 506 884 
L 2209 2388 
Q 2438 2594 2547 2791 
Q 2656 2988 2656 3200 
Q 2656 3528 2436 3728 
Q 2216 3928 1850 3928 
Q 1569 3928 1234 3808 
Q 900 3688 519 3450 
L 519 4475 
Q 925 4609 1322 4679 
Q 1719 4750 2100 4750 
Q 2938 4750 3402 4381 
Q 3866 4013 3866 3353 
Q 3866 2972 3669 2642 
Q 3472 2313 2841 1759 
L 1844 884 
z
" transform="scale(0.015625)"/>
      <path id="DejaVuSans-Bold-3a" d="M 716 3500 
L 1844 3500 
L 1844 2291 
L 716 2291 
L 716 3500 
z
M 716 1209 
L 1844 1209 
L 1844 0 
L 716 0 
L 716 1209 
z
" transform="scale(0.015625)"/>
      <path id="DejaVuSans-Bold-4e" d="M 588 4666 
L 1931 4666 
L 3628 1466 
L 3628 4666 
L 4769 4666 
L 4769 0 
L 3425 0 
L 1728 3200 
L 1728 0 
L 588 0 
L 588 4666 
z
" transform="scale(0.015625)"/>
      <path id="DejaVuSans-Bold-70" d="M 1656 506 
L 1656 -1331 
L 538 -1331 
L 538 3500 
L 1656 3500 
L 1656 2988 
Q 1888 3294 2169 3439 
Q 2450 3584 2816 3584 
Q 3463 3584 3878 3070 
Q 4294 2556 4294 1747 
Q 4294 938 3878 423 
Q 3463 -91 2816 -91 
Q 2450 -91 2169 54 
Q 1888 200 1656 506 
z
M 2400 2772 
Q 2041 2772 1848 2508 
Q 1656 2244 1656 1747 
Q 1656 1250 1848 986 
Q 2041 722 2400 722 
Q 2759 722 2948 984 
Q 3138 1247 3138 1747 
Q 3138 2247 2948 2509 
Q 2759 2772 2400 2772 
z
" transform="scale(0.015625)"/>
      <path id="DejaVuSans-Bold-47" d="M 4781 347 
Q 4331 128 3847 18 
Q 3363 -91 2847 -91 
Q 1681 -91 1000 561 
Q 319 1213 319 2328 
Q 319 3456 1012 4103 
Q 1706 4750 2913 4750 
Q 3378 4750 3804 4662 
Q 4231 4575 4609 4403 
L 4609 3438 
Q 4219 3659 3833 3768 
Q 3447 3878 3059 3878 
Q 2341 3878 1952 3476 
Q 1563 3075 1563 2328 
Q 1563 1588 1938 1184 
Q 2313 781 3003 781 
Q 3191 781 3352 804 
Q 3513 828 3641 878 
L 3641 1784 
L 2906 1784 
L 2906 2591 
L 4781 2591 
L 4781 347 
z
" transform="scale(0.015625)"/>
      <path id="DejaVuSans-Bold-79" d="M 78 3500 
L 1197 3500 
L 2138 1125 
L 2938 3500 
L 4056 3500 
L 2584 -331 
Q 2363 -916 2067 -1148 
Q 1772 -1381 1288 -1381 
L 641 -1381 
L 641 -647 
L 991 -647 
Q 1275 -647 1404 -556 
Q 1534 -466 1606 -231 
L 1638 -134 
L 78 3500 
z
" transform="scale(0.015625)"/>
     </defs>
     <use xlink:href="#DejaVuSans-Bold-46"/>
     <use xlink:href="#DejaVuSans-Bold-69" transform="translate(68.310547 0)"/>
     <use xlink:href="#DejaVuSans-Bold-67" transform="translate(102.587891 0)"/>
     <use xlink:href="#DejaVuSans-Bold-75" transform="translate(174.169922 0)"/>
     <use xlink:href="#DejaVuSans-Bold-72" transform="translate(245.361328 0)"/>
     <use xlink:href="#DejaVuSans-Bold-65" transform="translate(294.677734 0)"/>
     <use xlink:href="#DejaVuSans-Bold-20" transform="translate(362.5 0)"/>
     <use xlink:href="#DejaVuSans-Bold-53" transform="translate(397.314453 0)"/>
     <use xlink:href="#DejaVuSans-Bold-32" transform="translate(469.335938 0)"/>
     <use xlink:href="#DejaVuSans-Bold-3a" transform="translate(538.916016 0)"/>
     <use xlink:href="#DejaVuSans-Bold-20" transform="translate(578.90625 0)"/>
     <use xlink:href="#DejaVuSans-Bold-4e" transform="translate(613.720703 0)"/>
     <use xlink:href="#DejaVuSans-Bold-61" transform="translate(697.412109 0)"/>
     <use xlink:href="#DejaVuSans-Bold-74" transform="translate(764.892578 0)"/>
     <use xlink:href="#DejaVuSans-Bold-69" transform="translate(812.695312 0)"/>
     <use xlink:href="#DejaVuSans-Bold-6f" transform="translate(846.972656 0)"/>
     <use xlink:href="#DejaVuSans-Bold-6e" transform="translate(915.673828 0)"/>
     <use xlink:href="#DejaVuSans-Bold-61" transform="translate(986.865234 0)"/>
     <use xlink:href="#DejaVuSans-Bold-6c" transform="translate(1054.345703 0)"/>
     <use xlink:href="#DejaVuSans-Bold-20" transform="translate(1088.623047 0)"/>
     <use xlink:href="#DejaVuSans-Bold-41" transform="translate(1123.4375 0)"/>
     <use xlink:href="#DejaVuSans-Bold-67" transform="translate(1200.830078 0)"/>
     <use xlink:href="#DejaVuSans-Bold-72" transform="translate(1272.412109 0)"/>
     <use xlink:href="#DejaVuSans-Bold-69" transform="translate(1321.728516 0)"/>
     <use xlink:href="#DejaVuSans-Bold-63" transform="translate(1356.005859 0)"/>
     <use xlink:href="#DejaVuSans-Bold-75" transform="translate(1415.283203 0)"/>
     <use xlink:href="#DejaVuSans-Bold-6c" transform="translate(1486.474609 0)"/>
     <use xlink:href="#DejaVuSans-Bold-74" transform="translate(1520.751953 0)"/>
     <use xlink:href="#DejaVuSans-Bold-75" transform="translate(1568.554688 0)"/>
     <use xlink:href="#DejaVuSans-Bold-72" transform="translate(1639.746094 0)"/>
     <use xlink:href="#DejaVuSans-Bold-61" transform="translate(1689.0625 0)"/>
     <use xlink:href="#DejaVuSans-Bold-6c" transform="translate(1756.542969 0)"/>
     <use xlink:href="#DejaVuSans-Bold-20" transform="translate(1790.820312 0)"/>
     <use xlink:href="#DejaVuSans-Bold-46" transform="translate(1825.634766 0)"/>
     <use xlink:href="#DejaVuSans-Bold-69" transform="translate(1893.945312 0)"/>
     <use xlink:href="#DejaVuSans-Bold-6e" transform="translate(1928.222656 0)"/>
     <use xlink:href="#DejaVuSans-Bold-67" transform="translate(1999.414062 0)"/>
     <use xlink:href="#DejaVuSans-Bold-65" transform="translate(2070.996094 0)"/>
     <use xlink:href="#DejaVuSans-Bold-72" transform="translate(2138.818359 0)"/>
     <use xlink:href="#DejaVuSans-Bold-70" transform="translate(2188.134766 0)"/>
     <use xlink:href="#DejaVuSans-Bold-72" transform="translate(2259.716797 0)"/>
     <use xlink:href="#DejaVuSans-Bold-69" transform="translate(2309.033203 0)"/>
     <use xlink:href="#DejaVuSans-Bold-6e" transform="translate(2343.310547 0)"/>
     <use xlink:href="#DejaVuSans-Bold-74" transform="translate(2414.501953 0)"/>
     <use xlink:href="#DejaVuSans-Bold-20" transform="translate(2462.304688 0)"/>
     <use xlink:href="#DejaVuSans-Bold-47" transform="translate(2497.119141 0)"/>
     <use xlink:href="#DejaVuSans-Bold-61" transform="translate(2579.199219 0)"/>
     <use xlink:href="#DejaVuSans-Bold-6c" transform="translate(2646.679688 0)"/>
     <use xlink:href="#DejaVuSans-Bold-6c" transform="translate(2680.957031 0)"/>
     <use xlink:href="#DejaVuSans-Bold-65" transform="translate(2715.234375 0)"/>
     <use xlink:href="#DejaVuSans-Bold-72" transform="translate(2783.056641 0)"/>
     <use xlink:href="#DejaVuSans-Bold-79" transform="translate(2832.373047 0)"/>
    </g>
    <!-- (Normalized Envelopes - semilogx version) -->
    <g transform="translate(303.970156 41.173875) scale(0.18 -0.18)">
     <defs>
      <path id="DejaVuSans-Bold-6d" d="M 3781 2919 
Q 3994 3244 4286 3414 
Q 4578 3584 4928 3584 
Q 5531 3584 5847 3212 
Q 6163 2841 6163 2131 
L 6163 0 
L 5038 0 
L 5038 1825 
Q 5041 1866 5042 1909 
Q 5044 1953 5044 2034 
Q 5044 2406 4934 2573 
Q 4825 2741 4581 2741 
Q 4263 2741 4089 2478 
Q 3916 2216 3909 1719 
L 3909 0 
L 2784 0 
L 2784 1825 
Q 2784 2406 2684 2573 
Q 2584 2741 2328 2741 
Q 2006 2741 1831 2477 
Q 1656 2213 1656 1722 
L 1656 0 
L 531 0 
L 531 3500 
L 1656 3500 
L 1656 2988 
Q 1863 3284 2130 3434 
Q 2397 3584 2719 3584 
Q 3081 3584 3359 3409 
Q 3638 3234 3781 2919 
z
" transform="scale(0.015625)"/>
      <path id="DejaVuSans-Bold-7a" d="M 366 3500 
L 3419 3500 
L 3419 2719 
L 1575 800 
L 3419 800 
L 3419 0 
L 288 0 
L 288 781 
L 2131 2700 
L 366 2700 
L 366 3500 
z
" transform="scale(0.015625)"/>
      <path id="DejaVuSans-Bold-45" d="M 588 4666 
L 3834 4666 
L 3834 3756 
L 1791 3756 
L 1791 2888 
L 3713 2888 
L 3713 1978 
L 1791 1978 
L 1791 909 
L 3903 909 
L 3903 0 
L 588 0 
L 588 4666 
z
" transform="scale(0.015625)"/>
      <path id="DejaVuSans-Bold-76" d="M 97 3500 
L 1216 3500 
L 2088 1081 
L 2956 3500 
L 4078 3500 
L 2700 0 
L 1472 0 
L 97 3500 
z
" transform="scale(0.015625)"/>
      <path id="DejaVuSans-Bold-2d" d="M 347 2297 
L 2309 2297 
L 2309 1388 
L 347 1388 
L 347 2297 
z
" transform="scale(0.015625)"/>
      <path id="DejaVuSans-Bold-78" d="M 1422 1791 
L 159 3500 
L 1344 3500 
L 2059 2463 
L 2784 3500 
L 3969 3500 
L 2706 1797 
L 4031 0 
L 2847 0 
L 2059 1106 
L 1281 0 
L 97 0 
L 1422 1791 
z
" transform="scale(0.015625)"/>
     </defs>
     <use xlink:href="#DejaVuSans-Bold-28"/>
     <use xlink:href="#DejaVuSans-Bold-4e" transform="translate(45.703125 0)"/>
     <use xlink:href="#DejaVuSans-Bold-6f" transform="translate(129.394531 0)"/>
     <use xlink:href="#DejaVuSans-Bold-72" transform="translate(198.095703 0)"/>
     <use xlink:href="#DejaVuSans-Bold-6d" transform="translate(247.412109 0)"/>
     <use xlink:href="#DejaVuSans-Bold-61" transform="translate(351.611328 0)"/>
     <use xlink:href="#DejaVuSans-Bold-6c" transform="translate(419.091797 0)"/>
     <use xlink:href="#DejaVuSans-Bold-69" transform="translate(453.369141 0)"/>
     <use xlink:href="#DejaVuSans-Bold-7a" transform="translate(487.646484 0)"/>
     <use xlink:href="#DejaVuSans-Bold-65" transform="translate(545.849609 0)"/>
     <use xlink:href="#DejaVuSans-Bold-64" transform="translate(613.671875 0)"/>
     <use xlink:href="#DejaVuSans-Bold-20" transform="translate(685.253906 0)"/>
     <use xlink:href="#DejaVuSans-Bold-45" transform="translate(720.068359 0)"/>
     <use xlink:href="#DejaVuSans-Bold-6e" transform="translate(788.378906 0)"/>
     <use xlink:href="#DejaVuSans-Bold-76" transform="translate(859.570312 0)"/>
     <use xlink:href="#DejaVuSans-Bold-65" transform="translate(924.755859 0)"/>
     <use xlink:href="#DejaVuSans-Bold-6c" transform="translate(992.578125 0)"/>
     <use xlink:href="#DejaVuSans-Bold-6f" transform="translate(1026.855469 0)"/>
     <use xlink:href="#DejaVuSans-Bold-70" transform="translate(1095.556641 0)"/>
     <use xlink:href="#DejaVuSans-Bold-65" transform="translate(1167.138672 0)"/>
     <use xlink:href="#DejaVuSans-Bold-73" transform="translate(1234.960938 0)"/>
     <use xlink:href="#DejaVuSans-Bold-20" transform="translate(1294.482422 0)"/>
     <use xlink:href="#DejaVuSans-Bold-2d" transform="translate(1329.296875 0)"/>
     <use xlink:href="#DejaVuSans-Bold-20" transform="translate(1370.800781 0)"/>
     <use xlink:href="#DejaVuSans-Bold-73" transform="translate(1405.615234 0)"/>
     <use xlink:href="#DejaVuSans-Bold-65" transform="translate(1465.136719 0)"/>
     <use xlink:href="#DejaVuSans-Bold-6d" transform="translate(1532.958984 0)"/>
     <use xlink:href="#DejaVuSans-Bold-69" transform="translate(1637.158203 0)"/>
     <use xlink:href="#DejaVuSans-Bold-6c" transform="translate(1671.435547 0)"/>
     <use xlink:href="#DejaVuSans-Bold-6f" transform="translate(1705.712891 0)"/>
     <use xlink:href="#DejaVuSans-Bold-67" transform="translate(1774.414062 0)"/>
     <use xlink:href="#DejaVuSans-Bold-78" transform="translate(1845.996094 0)"/>
     <use xlink:href="#DejaVuSans-Bold-20" transform="translate(1910.498047 0)"/>
     <use xlink:href="#DejaVuSans-Bold-76" transform="translate(1945.3125 0)"/>
     <use xlink:href="#DejaVuSans-Bold-65" transform="translate(2010.498047 0)"/>
     <use xlink:href="#DejaVuSans-Bold-72" transform="translate(2078.320312 0)"/>
     <use xlink:href="#DejaVuSans-Bold-73" transform="translate(2127.636719 0)"/>
     <use xlink:href="#DejaVuSans-Bold-69" transform="translate(2187.158203 0)"/>
     <use xlink:href="#DejaVuSans-Bold-6f" transform="translate(2221.435547 0)"/>
     <use xlink:href="#DejaVuSans-Bold-6e" transform="translate(2290.136719 0)"/>
     <use xlink:href="#DejaVuSans-Bold-29" transform="translate(2361.328125 0)"/>
    </g>
   </g>
   <g id="legend_1">
    <g id="patch_7">
     <path d="M 57.836875 143.242625 
L 273.82125 143.242625 
Q 275.82125 143.242625 275.82125 141.242625 
L 275.82125 54.173875 
Q 275.82125 52.173875 273.82125 52.173875 
L 57.836875 52.173875 
Q 55.836875 52.173875 55.836875 54.173875 
L 55.836875 141.242625 
Q 55.836875 143.242625 57.836875 143.242625 
z
" style="fill: #ffffff; opacity: 0.9; stroke: #cccccc; stroke-linejoin: miter"/>
    </g>
    <g id="line2d_35">
     <path d="M 59.836875 60.272312 
L 69.836875 60.272312 
L 79.836875 60.272312 
" style="fill: none; stroke: #000000; stroke-width: 3; stroke-linecap: square"/>
    </g>
    <g id="text_16">
     <!-- Global Aggregate -->
     <g transform="translate(87.836875 63.772312) scale(0.1 -0.1)">
      <defs>
       <path id="DejaVuSans-47" d="M 3809 666 
L 3809 1919 
L 2778 1919 
L 2778 2438 
L 4434 2438 
L 4434 434 
Q 4069 175 3628 42 
Q 3188 -91 2688 -91 
Q 1594 -91 976 548 
Q 359 1188 359 2328 
Q 359 3472 976 4111 
Q 1594 4750 2688 4750 
Q 3144 4750 3555 4637 
Q 3966 4525 4313 4306 
L 4313 3634 
Q 3963 3931 3569 4081 
Q 3175 4231 2741 4231 
Q 1884 4231 1454 3753 
Q 1025 3275 1025 2328 
Q 1025 1384 1454 906 
Q 1884 428 2741 428 
Q 3075 428 3337 486 
Q 3600 544 3809 666 
z
" transform="scale(0.015625)"/>
       <path id="DejaVuSans-62" d="M 3116 1747 
Q 3116 2381 2855 2742 
Q 2594 3103 2138 3103 
Q 1681 3103 1420 2742 
Q 1159 2381 1159 1747 
Q 1159 1113 1420 752 
Q 1681 391 2138 391 
Q 2594 391 2855 752 
Q 3116 1113 3116 1747 
z
M 1159 2969 
Q 1341 3281 1617 3432 
Q 1894 3584 2278 3584 
Q 2916 3584 3314 3078 
Q 3713 2572 3713 1747 
Q 3713 922 3314 415 
Q 2916 -91 2278 -91 
Q 1894 -91 1617 61 
Q 1341 213 1159 525 
L 1159 0 
L 581 0 
L 581 4863 
L 1159 4863 
L 1159 2969 
z
" transform="scale(0.015625)"/>
       <path id="DejaVuSans-61" d="M 2194 1759 
Q 1497 1759 1228 1600 
Q 959 1441 959 1056 
Q 959 750 1161 570 
Q 1363 391 1709 391 
Q 2188 391 2477 730 
Q 2766 1069 2766 1631 
L 2766 1759 
L 2194 1759 
z
M 3341 1997 
L 3341 0 
L 2766 0 
L 2766 531 
Q 2569 213 2275 61 
Q 1981 -91 1556 -91 
Q 1019 -91 701 211 
Q 384 513 384 1019 
Q 384 1609 779 1909 
Q 1175 2209 1959 2209 
L 2766 2209 
L 2766 2266 
Q 2766 2663 2505 2880 
Q 2244 3097 1772 3097 
Q 1472 3097 1187 3025 
Q 903 2953 641 2809 
L 641 3341 
Q 956 3463 1253 3523 
Q 1550 3584 1831 3584 
Q 2591 3584 2966 3190 
Q 3341 2797 3341 1997 
z
" transform="scale(0.015625)"/>
       <path id="DejaVuSans-20" transform="scale(0.015625)"/>
       <path id="DejaVuSans-41" d="M 2188 4044 
L 1331 1722 
L 3047 1722 
L 2188 4044 
z
M 1831 4666 
L 2547 4666 
L 4325 0 
L 3669 0 
L 3244 1197 
L 1141 1197 
L 716 0 
L 50 0 
L 1831 4666 
z
" transform="scale(0.015625)"/>
       <path id="DejaVuSans-72" d="M 2631 2963 
Q 2534 3019 2420 3045 
Q 2306 3072 2169 3072 
Q 1681 3072 1420 2755 
Q 1159 2438 1159 1844 
L 1159 0 
L 581 0 
L 581 3500 
L 1159 3500 
L 1159 2956 
Q 1341 3275 1631 3429 
Q 1922 3584 2338 3584 
Q 2397 3584 2469 3576 
Q 2541 3569 2628 3553 
L 2631 2963 
z
" transform="scale(0.015625)"/>
       <path id="DejaVuSans-65" d="M 3597 1894 
L 3597 1613 
L 953 1613 
Q 991 1019 1311 708 
Q 1631 397 2203 397 
Q 2534 397 2845 478 
Q 3156 559 3463 722 
L 3463 178 
Q 3153 47 2828 -22 
Q 2503 -91 2169 -91 
Q 1331 -91 842 396 
Q 353 884 353 1716 
Q 353 2575 817 3079 
Q 1281 3584 2069 3584 
Q 2775 3584 3186 3129 
Q 3597 2675 3597 1894 
z
M 3022 2063 
Q 3016 2534 2758 2815 
Q 2500 3097 2075 3097 
Q 1594 3097 1305 2825 
Q 1016 2553 972 2059 
L 3022 2063 
z
" transform="scale(0.015625)"/>
       <path id="DejaVuSans-74" d="M 1172 4494 
L 1172 3500 
L 2356 3500 
L 2356 3053 
L 1172 3053 
L 1172 1153 
Q 1172 725 1289 603 
Q 1406 481 1766 481 
L 2356 481 
L 2356 0 
L 1766 0 
Q 1100 0 847 248 
Q 594 497 594 1153 
L 594 3053 
L 172 3053 
L 172 3500 
L 594 3500 
L 594 4494 
L 1172 4494 
z
" transform="scale(0.015625)"/>
      </defs>
      <use xlink:href="#DejaVuSans-47"/>
      <use xlink:href="#DejaVuSans-6c" transform="translate(77.490234 0)"/>
      <use xlink:href="#DejaVuSans-6f" transform="translate(105.273438 0)"/>
      <use xlink:href="#DejaVuSans-62" transform="translate(166.455078 0)"/>
      <use xlink:href="#DejaVuSans-61" transform="translate(229.931641 0)"/>
      <use xlink:href="#DejaVuSans-6c" transform="translate(291.210938 0)"/>
      <use xlink:href="#DejaVuSans-20" transform="translate(318.994141 0)"/>
      <use xlink:href="#DejaVuSans-41" transform="translate(350.78125 0)"/>
      <use xlink:href="#DejaVuSans-67" transform="translate(419.189453 0)"/>
      <use xlink:href="#DejaVuSans-67" transform="translate(482.666016 0)"/>
      <use xlink:href="#DejaVuSans-72" transform="translate(546.142578 0)"/>
      <use xlink:href="#DejaVuSans-65" transform="translate(585.005859 0)"/>
      <use xlink:href="#DejaVuSans-67" transform="translate(646.529297 0)"/>
      <use xlink:href="#DejaVuSans-61" transform="translate(710.005859 0)"/>
      <use xlink:href="#DejaVuSans-74" transform="translate(771.285156 0)"/>
      <use xlink:href="#DejaVuSans-65" transform="translate(810.494141 0)"/>
     </g>
    </g>
    <g id="line2d_36">
     <path d="M 59.836875 74.950438 
L 69.836875 74.950438 
L 79.836875 74.950438 
" style="fill: none; stroke: #1f77b4; stroke-opacity: 0.8; stroke-width: 2; stroke-linecap: square"/>
    </g>
    <g id="text_17">
     <!-- USA -->
     <g transform="translate(87.836875 78.450438) scale(0.1 -0.1)">
      <defs>
       <path id="DejaVuSans-55" d="M 556 4666 
L 1191 4666 
L 1191 1831 
Q 1191 1081 1462 751 
Q 1734 422 2344 422 
Q 2950 422 3222 751 
Q 3494 1081 3494 1831 
L 3494 4666 
L 4128 4666 
L 4128 1753 
Q 4128 841 3676 375 
Q 3225 -91 2344 -91 
Q 1459 -91 1007 375 
Q 556 841 556 1753 
L 556 4666 
z
" transform="scale(0.015625)"/>
       <path id="DejaVuSans-53" d="M 3425 4513 
L 3425 3897 
Q 3066 4069 2747 4153 
Q 2428 4238 2131 4238 
Q 1616 4238 1336 4038 
Q 1056 3838 1056 3469 
Q 1056 3159 1242 3001 
Q 1428 2844 1947 2747 
L 2328 2669 
Q 3034 2534 3370 2195 
Q 3706 1856 3706 1288 
Q 3706 609 3251 259 
Q 2797 -91 1919 -91 
Q 1588 -91 1214 -16 
Q 841 59 441 206 
L 441 856 
Q 825 641 1194 531 
Q 1563 422 1919 422 
Q 2459 422 2753 634 
Q 3047 847 3047 1241 
Q 3047 1584 2836 1778 
Q 2625 1972 2144 2069 
L 1759 2144 
Q 1053 2284 737 2584 
Q 422 2884 422 3419 
Q 422 4038 858 4394 
Q 1294 4750 2059 4750 
Q 2388 4750 2728 4690 
Q 3069 4631 3425 4513 
z
" transform="scale(0.015625)"/>
      </defs>
      <use xlink:href="#DejaVuSans-55"/>
      <use xlink:href="#DejaVuSans-53" transform="translate(73.193359 0)"/>
      <use xlink:href="#DejaVuSans-41" transform="translate(138.544922 0)"/>
     </g>
    </g>
    <g id="line2d_37">
     <path d="M 59.836875 89.628563 
L 69.836875 89.628563 
L 79.836875 89.628563 
" style="fill: none; stroke: #d62728; stroke-opacity: 0.8; stroke-width: 2; stroke-linecap: square"/>
    </g>
    <g id="text_18">
     <!-- China -->
     <g transform="translate(87.836875 93.128563) scale(0.1 -0.1)">
      <defs>
       <path id="DejaVuSans-43" d="M 4122 4306 
L 4122 3641 
Q 3803 3938 3442 4084 
Q 3081 4231 2675 4231 
Q 1875 4231 1450 3742 
Q 1025 3253 1025 2328 
Q 1025 1406 1450 917 
Q 1875 428 2675 428 
Q 3081 428 3442 575 
Q 3803 722 4122 1019 
L 4122 359 
Q 3791 134 3420 21 
Q 3050 -91 2638 -91 
Q 1578 -91 968 557 
Q 359 1206 359 2328 
Q 359 3453 968 4101 
Q 1578 4750 2638 4750 
Q 3056 4750 3426 4639 
Q 3797 4528 4122 4306 
z
" transform="scale(0.015625)"/>
       <path id="DejaVuSans-68" d="M 3513 2113 
L 3513 0 
L 2938 0 
L 2938 2094 
Q 2938 2591 2744 2837 
Q 2550 3084 2163 3084 
Q 1697 3084 1428 2787 
Q 1159 2491 1159 1978 
L 1159 0 
L 581 0 
L 581 4863 
L 1159 4863 
L 1159 2956 
Q 1366 3272 1645 3428 
Q 1925 3584 2291 3584 
Q 2894 3584 3203 3211 
Q 3513 2838 3513 2113 
z
" transform="scale(0.015625)"/>
       <path id="DejaVuSans-69" d="M 603 3500 
L 1178 3500 
L 1178 0 
L 603 0 
L 603 3500 
z
M 603 4863 
L 1178 4863 
L 1178 4134 
L 603 4134 
L 603 4863 
z
" transform="scale(0.015625)"/>
       <path id="DejaVuSans-6e" d="M 3513 2113 
L 3513 0 
L 2938 0 
L 2938 2094 
Q 2938 2591 2744 2837 
Q 2550 3084 2163 3084 
Q 1697 3084 1428 2787 
Q 1159 2491 1159 1978 
L 1159 0 
L 581 0 
L 581 3500 
L 1159 3500 
L 1159 2956 
Q 1366 3272 1645 3428 
Q 1925 3584 2291 3584 
Q 2894 3584 3203 3211 
Q 3513 2838 3513 2113 
z
" transform="scale(0.015625)"/>
      </defs>
      <use xlink:href="#DejaVuSans-43"/>
      <use xlink:href="#DejaVuSans-68" transform="translate(69.824219 0)"/>
      <use xlink:href="#DejaVuSans-69" transform="translate(133.203125 0)"/>
      <use xlink:href="#DejaVuSans-6e" transform="translate(160.986328 0)"/>
      <use xlink:href="#DejaVuSans-61" transform="translate(224.365234 0)"/>
     </g>
    </g>
    <g id="line2d_38">
     <path d="M 59.836875 104.306687 
L 69.836875 104.306687 
L 79.836875 104.306687 
" style="fill: none; stroke: #ff7f0e; stroke-opacity: 0.8; stroke-width: 2; stroke-linecap: square"/>
    </g>
    <g id="text_19">
     <!-- India -->
     <g transform="translate(87.836875 107.806687) scale(0.1 -0.1)">
      <defs>
       <path id="DejaVuSans-49" d="M 628 4666 
L 1259 4666 
L 1259 0 
L 628 0 
L 628 4666 
z
" transform="scale(0.015625)"/>
       <path id="DejaVuSans-64" d="M 2906 2969 
L 2906 4863 
L 3481 4863 
L 3481 0 
L 2906 0 
L 2906 525 
Q 2725 213 2448 61 
Q 2172 -91 1784 -91 
Q 1150 -91 751 415 
Q 353 922 353 1747 
Q 353 2572 751 3078 
Q 1150 3584 1784 3584 
Q 2172 3584 2448 3432 
Q 2725 3281 2906 2969 
z
M 947 1747 
Q 947 1113 1208 752 
Q 1469 391 1925 391 
Q 2381 391 2643 752 
Q 2906 1113 2906 1747 
Q 2906 2381 2643 2742 
Q 2381 3103 1925 3103 
Q 1469 3103 1208 2742 
Q 947 2381 947 1747 
z
" transform="scale(0.015625)"/>
      </defs>
      <use xlink:href="#DejaVuSans-49"/>
      <use xlink:href="#DejaVuSans-6e" transform="translate(29.492188 0)"/>
      <use xlink:href="#DejaVuSans-64" transform="translate(92.871094 0)"/>
      <use xlink:href="#DejaVuSans-69" transform="translate(156.347656 0)"/>
      <use xlink:href="#DejaVuSans-61" transform="translate(184.130859 0)"/>
     </g>
    </g>
    <g id="line2d_39">
     <path d="M 59.836875 118.984812 
L 69.836875 118.984812 
L 79.836875 118.984812 
" style="fill: none; stroke: #2ca02c; stroke-opacity: 0.8; stroke-width: 2; stroke-linecap: square"/>
    </g>
    <g id="text_20">
     <!-- Brazil -->
     <g transform="translate(87.836875 122.484812) scale(0.1 -0.1)">
      <defs>
       <path id="DejaVuSans-42" d="M 1259 2228 
L 1259 519 
L 2272 519 
Q 2781 519 3026 730 
Q 3272 941 3272 1375 
Q 3272 1813 3026 2020 
Q 2781 2228 2272 2228 
L 1259 2228 
z
M 1259 4147 
L 1259 2741 
L 2194 2741 
Q 2656 2741 2882 2914 
Q 3109 3088 3109 3444 
Q 3109 3797 2882 3972 
Q 2656 4147 2194 4147 
L 1259 4147 
z
M 628 4666 
L 2241 4666 
Q 2963 4666 3353 4366 
Q 3744 4066 3744 3513 
Q 3744 3084 3544 2831 
Q 3344 2578 2956 2516 
Q 3422 2416 3680 2098 
Q 3938 1781 3938 1306 
Q 3938 681 3513 340 
Q 3088 0 2303 0 
L 628 0 
L 628 4666 
z
" transform="scale(0.015625)"/>
       <path id="DejaVuSans-7a" d="M 353 3500 
L 3084 3500 
L 3084 2975 
L 922 459 
L 3084 459 
L 3084 0 
L 275 0 
L 275 525 
L 2438 3041 
L 353 3041 
L 353 3500 
z
" transform="scale(0.015625)"/>
      </defs>
      <use xlink:href="#DejaVuSans-42"/>
      <use xlink:href="#DejaVuSans-72" transform="translate(68.603516 0)"/>
      <use xlink:href="#DejaVuSans-61" transform="translate(109.716797 0)"/>
      <use xlink:href="#DejaVuSans-7a" transform="translate(170.996094 0)"/>
      <use xlink:href="#DejaVuSans-69" transform="translate(223.486328 0)"/>
      <use xlink:href="#DejaVuSans-6c" transform="translate(251.269531 0)"/>
     </g>
    </g>
    <g id="line2d_40">
     <path d="M 59.836875 133.662937 
L 69.836875 133.662937 
L 79.836875 133.662937 
" style="fill: none; stroke: #9467bd; stroke-opacity: 0.8; stroke-width: 2; stroke-linecap: square"/>
    </g>
    <g id="text_21">
     <!-- Egypt (Stiff) -->
     <g transform="translate(87.836875 137.162937) scale(0.1 -0.1)">
      <defs>
       <path id="DejaVuSans-45" d="M 628 4666 
L 3578 4666 
L 3578 4134 
L 1259 4134 
L 1259 2753 
L 3481 2753 
L 3481 2222 
L 1259 2222 
L 1259 531 
L 3634 531 
L 3634 0 
L 628 0 
L 628 4666 
z
" transform="scale(0.015625)"/>
       <path id="DejaVuSans-79" d="M 2059 -325 
Q 1816 -950 1584 -1140 
Q 1353 -1331 966 -1331 
L 506 -1331 
L 506 -850 
L 844 -850 
Q 1081 -850 1212 -737 
Q 1344 -625 1503 -206 
L 1606 56 
L 191 3500 
L 800 3500 
L 1894 763 
L 2988 3500 
L 3597 3500 
L 2059 -325 
z
" transform="scale(0.015625)"/>
       <path id="DejaVuSans-70" d="M 1159 525 
L 1159 -1331 
L 581 -1331 
L 581 3500 
L 1159 3500 
L 1159 2969 
Q 1341 3281 1617 3432 
Q 1894 3584 2278 3584 
Q 2916 3584 3314 3078 
Q 3713 2572 3713 1747 
Q 3713 922 3314 415 
Q 2916 -91 2278 -91 
Q 1894 -91 1617 61 
Q 1341 213 1159 525 
z
M 3116 1747 
Q 3116 2381 2855 2742 
Q 2594 3103 2138 3103 
Q 1681 3103 1420 2742 
Q 1159 2381 1159 1747 
Q 1159 1113 1420 752 
Q 1681 391 2138 391 
Q 2594 391 2855 752 
Q 3116 1113 3116 1747 
z
" transform="scale(0.015625)"/>
       <path id="DejaVuSans-66" d="M 2375 4863 
L 2375 4384 
L 1825 4384 
Q 1516 4384 1395 4259 
Q 1275 4134 1275 3809 
L 1275 3500 
L 2222 3500 
L 2222 3053 
L 1275 3053 
L 1275 0 
L 697 0 
L 697 3053 
L 147 3053 
L 147 3500 
L 697 3500 
L 697 3744 
Q 697 4328 969 4595 
Q 1241 4863 1831 4863 
L 2375 4863 
z
" transform="scale(0.015625)"/>
      </defs>
      <use xlink:href="#DejaVuSans-45"/>
      <use xlink:href="#DejaVuSans-67" transform="translate(63.183594 0)"/>
      <use xlink:href="#DejaVuSans-79" transform="translate(126.660156 0)"/>
      <use xlink:href="#DejaVuSans-70" transform="translate(185.839844 0)"/>
      <use xlink:href="#DejaVuSans-74" transform="translate(249.316406 0)"/>
      <use xlink:href="#DejaVuSans-20" transform="translate(288.525391 0)"/>
      <use xlink:href="#DejaVuSans-28" transform="translate(320.3125 0)"/>
      <use xlink:href="#DejaVuSans-53" transform="translate(359.326172 0)"/>
      <use xlink:href="#DejaVuSans-74" transform="translate(422.802734 0)"/>
      <use xlink:href="#DejaVuSans-69" transform="translate(462.011719 0)"/>
      <use xlink:href="#DejaVuSans-66" transform="translate(489.794922 0)"/>
      <use xlink:href="#DejaVuSans-66" transform="translate(525 0)"/>
      <use xlink:href="#DejaVuSans-29" transform="translate(560.205078 0)"/>
     </g>
    </g>
    <g id="line2d_41">
     <path d="M 195.041563 60.272312 
L 205.041563 60.272312 
L 215.041563 60.272312 
" style="fill: none; stroke: #8c564b; stroke-opacity: 0.8; stroke-width: 1.5; stroke-linecap: square"/>
    </g>
    <g id="text_22">
     <!-- France -->
     <g transform="translate(223.041563 63.772312) scale(0.1 -0.1)">
      <defs>
       <path id="DejaVuSans-46" d="M 628 4666 
L 3309 4666 
L 3309 4134 
L 1259 4134 
L 1259 2759 
L 3109 2759 
L 3109 2228 
L 1259 2228 
L 1259 0 
L 628 0 
L 628 4666 
z
" transform="scale(0.015625)"/>
       <path id="DejaVuSans-63" d="M 3122 3366 
L 3122 2828 
Q 2878 2963 2633 3030 
Q 2388 3097 2138 3097 
Q 1578 3097 1268 2742 
Q 959 2388 959 1747 
Q 959 1106 1268 751 
Q 1578 397 2138 397 
Q 2388 397 2633 464 
Q 2878 531 3122 666 
L 3122 134 
Q 2881 22 2623 -34 
Q 2366 -91 2075 -91 
Q 1284 -91 818 406 
Q 353 903 353 1747 
Q 353 2603 823 3093 
Q 1294 3584 2113 3584 
Q 2378 3584 2631 3529 
Q 2884 3475 3122 3366 
z
" transform="scale(0.015625)"/>
      </defs>
      <use xlink:href="#DejaVuSans-46"/>
      <use xlink:href="#DejaVuSans-72" transform="translate(50.269531 0)"/>
      <use xlink:href="#DejaVuSans-61" transform="translate(91.382812 0)"/>
      <use xlink:href="#DejaVuSans-6e" transform="translate(152.662109 0)"/>
      <use xlink:href="#DejaVuSans-63" transform="translate(216.041016 0)"/>
      <use xlink:href="#DejaVuSans-65" transform="translate(271.021484 0)"/>
     </g>
    </g>
    <g id="line2d_42">
     <path d="M 195.041563 74.950438 
L 205.041563 74.950438 
L 215.041563 74.950438 
" style="fill: none; stroke: #e377c2; stroke-opacity: 0.8; stroke-width: 1.5; stroke-linecap: square"/>
    </g>
    <g id="text_23">
     <!-- Australia -->
     <g transform="translate(223.041563 78.450438) scale(0.1 -0.1)">
      <defs>
       <path id="DejaVuSans-75" d="M 544 1381 
L 544 3500 
L 1119 3500 
L 1119 1403 
Q 1119 906 1312 657 
Q 1506 409 1894 409 
Q 2359 409 2629 706 
Q 2900 1003 2900 1516 
L 2900 3500 
L 3475 3500 
L 3475 0 
L 2900 0 
L 2900 538 
Q 2691 219 2414 64 
Q 2138 -91 1772 -91 
Q 1169 -91 856 284 
Q 544 659 544 1381 
z
M 1991 3584 
L 1991 3584 
z
" transform="scale(0.015625)"/>
       <path id="DejaVuSans-73" d="M 2834 3397 
L 2834 2853 
Q 2591 2978 2328 3040 
Q 2066 3103 1784 3103 
Q 1356 3103 1142 2972 
Q 928 2841 928 2578 
Q 928 2378 1081 2264 
Q 1234 2150 1697 2047 
L 1894 2003 
Q 2506 1872 2764 1633 
Q 3022 1394 3022 966 
Q 3022 478 2636 193 
Q 2250 -91 1575 -91 
Q 1294 -91 989 -36 
Q 684 19 347 128 
L 347 722 
Q 666 556 975 473 
Q 1284 391 1588 391 
Q 1994 391 2212 530 
Q 2431 669 2431 922 
Q 2431 1156 2273 1281 
Q 2116 1406 1581 1522 
L 1381 1569 
Q 847 1681 609 1914 
Q 372 2147 372 2553 
Q 372 3047 722 3315 
Q 1072 3584 1716 3584 
Q 2034 3584 2315 3537 
Q 2597 3491 2834 3397 
z
" transform="scale(0.015625)"/>
      </defs>
      <use xlink:href="#DejaVuSans-41"/>
      <use xlink:href="#DejaVuSans-75" transform="translate(68.408203 0)"/>
      <use xlink:href="#DejaVuSans-73" transform="translate(131.787109 0)"/>
      <use xlink:href="#DejaVuSans-74" transform="translate(183.886719 0)"/>
      <use xlink:href="#DejaVuSans-72" transform="translate(223.095703 0)"/>
      <use xlink:href="#DejaVuSans-61" transform="translate(264.208984 0)"/>
      <use xlink:href="#DejaVuSans-6c" transform="translate(325.488281 0)"/>
      <use xlink:href="#DejaVuSans-69" transform="translate(353.271484 0)"/>
      <use xlink:href="#DejaVuSans-61" transform="translate(381.054688 0)"/>
     </g>
    </g>
    <g id="line2d_43">
     <path d="M 195.041563 89.628563 
L 205.041563 89.628563 
L 215.041563 89.628563 
" style="fill: none; stroke: #7f7f7f; stroke-opacity: 0.8; stroke-width: 1.5; stroke-linecap: square"/>
    </g>
    <g id="text_24">
     <!-- Argentina -->
     <g transform="translate(223.041563 93.128563) scale(0.1 -0.1)">
      <use xlink:href="#DejaVuSans-41"/>
      <use xlink:href="#DejaVuSans-72" transform="translate(68.408203 0)"/>
      <use xlink:href="#DejaVuSans-67" transform="translate(107.771484 0)"/>
      <use xlink:href="#DejaVuSans-65" transform="translate(171.248047 0)"/>
      <use xlink:href="#DejaVuSans-6e" transform="translate(232.771484 0)"/>
      <use xlink:href="#DejaVuSans-74" transform="translate(296.150391 0)"/>
      <use xlink:href="#DejaVuSans-69" transform="translate(335.359375 0)"/>
      <use xlink:href="#DejaVuSans-6e" transform="translate(363.142578 0)"/>
      <use xlink:href="#DejaVuSans-61" transform="translate(426.521484 0)"/>
     </g>
    </g>
    <g id="line2d_44">
     <path d="M 195.041563 104.306687 
L 205.041563 104.306687 
L 215.041563 104.306687 
" style="fill: none; stroke: #bcbd22; stroke-opacity: 0.8; stroke-width: 1.5; stroke-linecap: square"/>
    </g>
    <g id="text_25">
     <!-- Germany -->
     <g transform="translate(223.041563 107.806687) scale(0.1 -0.1)">
      <use xlink:href="#DejaVuSans-47"/>
      <use xlink:href="#DejaVuSans-65" transform="translate(77.490234 0)"/>
      <use xlink:href="#DejaVuSans-72" transform="translate(139.013672 0)"/>
      <use xlink:href="#DejaVuSans-6d" transform="translate(178.376953 0)"/>
      <use xlink:href="#DejaVuSans-61" transform="translate(275.789062 0)"/>
      <use xlink:href="#DejaVuSans-6e" transform="translate(337.068359 0)"/>
      <use xlink:href="#DejaVuSans-79" transform="translate(400.447266 0)"/>
     </g>
    </g>
    <g id="line2d_45">
     <path d="M 195.041563 118.984812 
L 205.041563 118.984812 
L 215.041563 118.984812 
" style="fill: none; stroke: #17becf; stroke-opacity: 0.8; stroke-width: 1.5; stroke-linecap: square"/>
    </g>
    <g id="text_26">
     <!-- Nigeria -->
     <g transform="translate(223.041563 122.484812) scale(0.1 -0.1)">
      <defs>
       <path id="DejaVuSans-4e" d="M 628 4666 
L 1478 4666 
L 3547 763 
L 3547 4666 
L 4159 4666 
L 4159 0 
L 3309 0 
L 1241 3903 
L 1241 0 
L 628 0 
L 628 4666 
z
" transform="scale(0.015625)"/>
      </defs>
      <use xlink:href="#DejaVuSans-4e"/>
      <use xlink:href="#DejaVuSans-69" transform="translate(74.804688 0)"/>
      <use xlink:href="#DejaVuSans-67" transform="translate(102.587891 0)"/>
      <use xlink:href="#DejaVuSans-65" transform="translate(166.064453 0)"/>
      <use xlink:href="#DejaVuSans-72" transform="translate(227.587891 0)"/>
      <use xlink:href="#DejaVuSans-69" transform="translate(268.701172 0)"/>
      <use xlink:href="#DejaVuSans-61" transform="translate(296.484375 0)"/>
     </g>
    </g>
   </g>
   <g id="line2d_46">
    <path d="M -1 665.789588 
L 74.532004 665.404963 
L 126.062369 664.924401 
L 165.058354 664.346726 
L 198.483395 663.628301 
L 223.552243 662.875614 
L 245.835618 661.992699 
L 265.333611 661.009126 
L 283.438845 659.880471 
L 300.15141 658.628786 
L 316.863975 657.14765 
L 330.791113 655.700727 
L 343.325492 654.192506 
L 355.859871 652.462941 
L 368.39434 650.507408 
L 379.53605 648.561039 
L 390.67767 646.379669 
L 400.426711 644.260208 
L 410.175663 641.927682 
L 418.531946 639.726027 
L 426.888228 637.313214 
L 435.244511 634.668214 
L 443.600793 631.777862 
L 451.957076 628.625704 
L 458.9206 625.781674 
L 465.884214 622.730869 
L 472.847738 619.465156 
L 479.811262 615.985942 
L 486.774875 612.288877 
L 493.738399 608.319884 
L 500.702013 604.077031 
L 507.665537 599.574111 
L 514.62915 594.779385 
L 520.200006 590.714437 
L 525.770771 586.411029 
L 531.341626 581.853458 
L 536.912481 577.048094 
L 542.483336 571.99535 
L 548.054191 566.705849 
L 555.017805 559.738101 
L 560.58866 553.876613 
L 566.159515 547.745302 
L 571.73028 541.320112 
L 577.301135 534.578789 
L 582.87199 527.494273 
L 588.442846 520.050534 
L 594.013701 512.236925 
L 599.584556 504.031325 
L 605.155411 495.412232 
L 610.726266 486.363102 
L 616.297121 476.851784 
L 621.867976 466.867481 
L 627.438831 456.381512 
L 633.009686 445.357606 
L 638.580541 433.770075 
L 644.151396 421.601624 
L 649.722251 408.819437 
L 655.293106 395.414928 
L 660.863961 381.390382 
L 666.434727 366.789638 
L 673.39834 347.843353 
L 681.754623 324.253267 
L 690.110905 299.850722 
L 699.859857 270.545208 
L 709.608898 240.498425 
L 733.284987 166.982854 
L 740.248511 146.25393 
L 745.819366 130.255039 
L 749.997552 118.892417 
L 752.78298 111.728067 
L 755.568408 105.006754 
L 758.353835 98.754659 
L 761.139173 93.103151 
L 763.924601 88.056929 
L 766.710028 83.603561 
L 768.102787 81.619535 
L 769.495456 79.847887 
L 770.888214 78.33731 
L 772.280883 77.206562 
L 773.705988 76.648923 
L 773.705988 76.648923 
" clip-path="url(#pad4aa49ed0)" style="fill: none; stroke: #000000; stroke-width: 3; stroke-linecap: square"/>
   </g>
  </g>
 </g>
 <defs>
  <clipPath id="pad4aa49ed0">
   <rect x="50.836875" y="47.173875" width="939.535" height="618.976"/>
  </clipPath>
 </defs>
</svg>
