<?xml version="1.0" encoding="utf-8" standalone="no"?>
<!DOCTYPE svg PUBLIC "-//W3C//DTD SVG 1.1//EN"
  "http://www.w3.org/Graphics/SVG/1.1/DTD/svg11.dtd">
<svg xmlns:xlink="http://www.w3.org/1999/xlink" width="1000.263571pt" height="709.848pt" viewBox="0 0 1000.263571 709.848" xmlns="http://www.w3.org/2000/svg" version="1.1">
 <metadata>
  <rdf:RDF xmlns:dc="http://purl.org/dc/elements/1.1/" xmlns:cc="http://creativecommons.org/ns#" xmlns:rdf="http://www.w3.org/1999/02/22-rdf-syntax-ns#">
   <cc:Work>
    <dc:type rdf:resource="http://purl.org/dc/dcmitype/StillImage"/>
    <dc:date>2026-01-21T22:27:48.322208</dc:date>
    <dc:format>image/svg+xml</dc:format>
    <dc:creator>
     <cc:Agent>
      <dc:title>Matplotlib v3.10.7, https://matplotlib.org/</dc:title>
     </cc:Agent>
    </dc:creator>
   </cc:Work>
  </rdf:RDF>
 </metadata>
 <defs>
  <style type="text/css">*{stroke-linejoin: round; stroke-linecap: butt}</style>
 </defs>
 <g id="figure_1">
  <g id="patch_1">
   <path d="M 0 709.848 
L 1000.263571 709.848 
L 1000.263571 0 
L 0 0 
z
" style="fill: #ffffff"/>
  </g>
  <g id="axes_1">
   <g id="patch_2">
    <path d="M 55.249375 666.149875 
L 989.882321 666.149875 
L 989.882321 47.173875 
L 55.249375 47.173875 
z
" style="fill: #ffffff"/>
   </g>
   <g id="matplotlib.axis_1">
    <g id="xtick_1">
     <g id="line2d_1">
      <path d="M 55.249375 666.149875 
L 55.249375 47.173875 
" clip-path="url(#p9c596de7de)" style="fill: none; stroke: #b0b0b0; stroke-opacity: 0.15; stroke-width: 0.8; stroke-linecap: square"/>
     </g>
     <g id="line2d_2">
      <defs>
       <path id="m3033b903a8" d="M 0 0 
L 0 3.5 
" style="stroke: #000000; stroke-width: 0.8"/>
      </defs>
      <g>
       <use xlink:href="#m3033b903a8" x="55.249375" y="666.149875" style="stroke: #000000; stroke-width: 0.8"/>
      </g>
     </g>
     <g id="text_1">
      <!-- 3 -->
      <g transform="translate(52.068125 680.748312) scale(0.1 -0.1)">
       <defs>
        <path id="DejaVuSans-33" d="M 2597 2516 
Q 3050 2419 3304 2112 
Q 3559 1806 3559 1356 
Q 3559 666 3084 287 
Q 2609 -91 1734 -91 
Q 1441 -91 1130 -33 
Q 819 25 488 141 
L 488 750 
Q 750 597 1062 519 
Q 1375 441 1716 441 
Q 2309 441 2620 675 
Q 2931 909 2931 1356 
Q 2931 1769 2642 2001 
Q 2353 2234 1838 2234 
L 1294 2234 
L 1294 2753 
L 1863 2753 
Q 2328 2753 2575 2939 
Q 2822 3125 2822 3475 
Q 2822 3834 2567 4026 
Q 2313 4219 1838 4219 
Q 1578 4219 1281 4162 
Q 984 4106 628 3988 
L 628 4550 
Q 988 4650 1302 4700 
Q 1616 4750 1894 4750 
Q 2613 4750 3031 4423 
Q 3450 4097 3450 3541 
Q 3450 3153 3228 2886 
Q 3006 2619 2597 2516 
z
" transform="scale(0.015625)"/>
       </defs>
       <use xlink:href="#DejaVuSans-33"/>
      </g>
     </g>
    </g>
    <g id="xtick_2">
     <g id="line2d_3">
      <path d="M 242.175964 666.149875 
L 242.175964 47.173875 
" clip-path="url(#p9c596de7de)" style="fill: none; stroke: #b0b0b0; stroke-opacity: 0.15; stroke-width: 0.8; stroke-linecap: square"/>
     </g>
     <g id="line2d_4">
      <g>
       <use xlink:href="#m3033b903a8" x="242.175964" y="666.149875" style="stroke: #000000; stroke-width: 0.8"/>
      </g>
     </g>
     <g id="text_2">
      <!-- 4 -->
      <g transform="translate(238.994714 680.748312) scale(0.1 -0.1)">
       <defs>
        <path id="DejaVuSans-34" d="M 2419 4116 
L 825 1625 
L 2419 1625 
L 2419 4116 
z
M 2253 4666 
L 3047 4666 
L 3047 1625 
L 3713 1625 
L 3713 1100 
L 3047 1100 
L 3047 0 
L 2419 0 
L 2419 1100 
L 313 1100 
L 313 1709 
L 2253 4666 
z
" transform="scale(0.015625)"/>
       </defs>
       <use xlink:href="#DejaVuSans-34"/>
      </g>
     </g>
    </g>
    <g id="xtick_3">
     <g id="line2d_5">
      <path d="M 429.102553 666.149875 
L 429.102553 47.173875 
" clip-path="url(#p9c596de7de)" style="fill: none; stroke: #b0b0b0; stroke-opacity: 0.15; stroke-width: 0.8; stroke-linecap: square"/>
     </g>
     <g id="line2d_6">
      <g>
       <use xlink:href="#m3033b903a8" x="429.102553" y="666.149875" style="stroke: #000000; stroke-width: 0.8"/>
      </g>
     </g>
     <g id="text_3">
      <!-- 5 -->
      <g transform="translate(425.921303 680.748312) scale(0.1 -0.1)">
       <defs>
        <path id="DejaVuSans-35" d="M 691 4666 
L 3169 4666 
L 3169 4134 
L 1269 4134 
L 1269 2991 
Q 1406 3038 1543 3061 
Q 1681 3084 1819 3084 
Q 2600 3084 3056 2656 
Q 3513 2228 3513 1497 
Q 3513 744 3044 326 
Q 2575 -91 1722 -91 
Q 1428 -91 1123 -41 
Q 819 9 494 109 
L 494 744 
Q 775 591 1075 516 
Q 1375 441 1709 441 
Q 2250 441 2565 725 
Q 2881 1009 2881 1497 
Q 2881 1984 2565 2268 
Q 2250 2553 1709 2553 
Q 1456 2553 1204 2497 
Q 953 2441 691 2322 
L 691 4666 
z
" transform="scale(0.015625)"/>
       </defs>
       <use xlink:href="#DejaVuSans-35"/>
      </g>
     </g>
    </g>
    <g id="xtick_4">
     <g id="line2d_7">
      <path d="M 616.029143 666.149875 
L 616.029143 47.173875 
" clip-path="url(#p9c596de7de)" style="fill: none; stroke: #b0b0b0; stroke-opacity: 0.15; stroke-width: 0.8; stroke-linecap: square"/>
     </g>
     <g id="line2d_8">
      <g>
       <use xlink:href="#m3033b903a8" x="616.029143" y="666.149875" style="stroke: #000000; stroke-width: 0.8"/>
      </g>
     </g>
     <g id="text_4">
      <!-- 6 -->
      <g transform="translate(612.847893 680.748312) scale(0.1 -0.1)">
       <defs>
        <path id="DejaVuSans-36" d="M 2113 2584 
Q 1688 2584 1439 2293 
Q 1191 2003 1191 1497 
Q 1191 994 1439 701 
Q 1688 409 2113 409 
Q 2538 409 2786 701 
Q 3034 994 3034 1497 
Q 3034 2003 2786 2293 
Q 2538 2584 2113 2584 
z
M 3366 4563 
L 3366 3988 
Q 3128 4100 2886 4159 
Q 2644 4219 2406 4219 
Q 1781 4219 1451 3797 
Q 1122 3375 1075 2522 
Q 1259 2794 1537 2939 
Q 1816 3084 2150 3084 
Q 2853 3084 3261 2657 
Q 3669 2231 3669 1497 
Q 3669 778 3244 343 
Q 2819 -91 2113 -91 
Q 1303 -91 875 529 
Q 447 1150 447 2328 
Q 447 3434 972 4092 
Q 1497 4750 2381 4750 
Q 2619 4750 2861 4703 
Q 3103 4656 3366 4563 
z
" transform="scale(0.015625)"/>
       </defs>
       <use xlink:href="#DejaVuSans-36"/>
      </g>
     </g>
    </g>
    <g id="xtick_5">
     <g id="line2d_9">
      <path d="M 802.955732 666.149875 
L 802.955732 47.173875 
" clip-path="url(#p9c596de7de)" style="fill: none; stroke: #b0b0b0; stroke-opacity: 0.15; stroke-width: 0.8; stroke-linecap: square"/>
     </g>
     <g id="line2d_10">
      <g>
       <use xlink:href="#m3033b903a8" x="802.955732" y="666.149875" style="stroke: #000000; stroke-width: 0.8"/>
      </g>
     </g>
     <g id="text_5">
      <!-- 7 -->
      <g transform="translate(799.774482 680.748312) scale(0.1 -0.1)">
       <defs>
        <path id="DejaVuSans-37" d="M 525 4666 
L 3525 4666 
L 3525 4397 
L 1831 0 
L 1172 0 
L 2766 4134 
L 525 4134 
L 525 4666 
z
" transform="scale(0.015625)"/>
       </defs>
       <use xlink:href="#DejaVuSans-37"/>
      </g>
     </g>
    </g>
    <g id="xtick_6">
     <g id="line2d_11">
      <path d="M 989.882321 666.149875 
L 989.882321 47.173875 
" clip-path="url(#p9c596de7de)" style="fill: none; stroke: #b0b0b0; stroke-opacity: 0.15; stroke-width: 0.8; stroke-linecap: square"/>
     </g>
     <g id="line2d_12">
      <g>
       <use xlink:href="#m3033b903a8" x="989.882321" y="666.149875" style="stroke: #000000; stroke-width: 0.8"/>
      </g>
     </g>
     <g id="text_6">
      <!-- 8 -->
      <g transform="translate(986.701071 680.748312) scale(0.1 -0.1)">
       <defs>
        <path id="DejaVuSans-38" d="M 2034 2216 
Q 1584 2216 1326 1975 
Q 1069 1734 1069 1313 
Q 1069 891 1326 650 
Q 1584 409 2034 409 
Q 2484 409 2743 651 
Q 3003 894 3003 1313 
Q 3003 1734 2745 1975 
Q 2488 2216 2034 2216 
z
M 1403 2484 
Q 997 2584 770 2862 
Q 544 3141 544 3541 
Q 544 4100 942 4425 
Q 1341 4750 2034 4750 
Q 2731 4750 3128 4425 
Q 3525 4100 3525 3541 
Q 3525 3141 3298 2862 
Q 3072 2584 2669 2484 
Q 3125 2378 3379 2068 
Q 3634 1759 3634 1313 
Q 3634 634 3220 271 
Q 2806 -91 2034 -91 
Q 1263 -91 848 271 
Q 434 634 434 1313 
Q 434 1759 690 2068 
Q 947 2378 1403 2484 
z
M 1172 3481 
Q 1172 3119 1398 2916 
Q 1625 2713 2034 2713 
Q 2441 2713 2670 2916 
Q 2900 3119 2900 3481 
Q 2900 3844 2670 4047 
Q 2441 4250 2034 4250 
Q 1625 4250 1398 4047 
Q 1172 3844 1172 3481 
z
" transform="scale(0.015625)"/>
       </defs>
       <use xlink:href="#DejaVuSans-38"/>
      </g>
     </g>
    </g>
    <g id="text_7">
     <!-- AgRichter Magnitude ($M_D = \log_{10}(A_H / \mathrm{km}^2)$) -->
     <g transform="translate(362.545848 699.568) scale(0.14 -0.14)">
      <defs>
       <path id="DejaVuSans-Bold-41" d="M 3419 850 
L 1538 850 
L 1241 0 
L 31 0 
L 1759 4666 
L 3194 4666 
L 4922 0 
L 3713 0 
L 3419 850 
z
M 1838 1716 
L 3116 1716 
L 2478 3572 
L 1838 1716 
z
" transform="scale(0.015625)"/>
       <path id="DejaVuSans-Bold-67" d="M 2919 594 
Q 2688 288 2409 144 
Q 2131 0 1766 0 
Q 1125 0 706 504 
Q 288 1009 288 1791 
Q 288 2575 706 3076 
Q 1125 3578 1766 3578 
Q 2131 3578 2409 3434 
Q 2688 3291 2919 2981 
L 2919 3500 
L 4044 3500 
L 4044 353 
Q 4044 -491 3511 -936 
Q 2978 -1381 1966 -1381 
Q 1638 -1381 1331 -1331 
Q 1025 -1281 716 -1178 
L 716 -306 
Q 1009 -475 1290 -558 
Q 1572 -641 1856 -641 
Q 2406 -641 2662 -400 
Q 2919 -159 2919 353 
L 2919 594 
z
M 2181 2772 
Q 1834 2772 1640 2515 
Q 1447 2259 1447 1791 
Q 1447 1309 1634 1061 
Q 1822 813 2181 813 
Q 2531 813 2725 1069 
Q 2919 1325 2919 1791 
Q 2919 2259 2725 2515 
Q 2531 2772 2181 2772 
z
" transform="scale(0.015625)"/>
       <path id="DejaVuSans-Bold-52" d="M 2297 2597 
Q 2675 2597 2839 2737 
Q 3003 2878 3003 3200 
Q 3003 3519 2839 3656 
Q 2675 3794 2297 3794 
L 1791 3794 
L 1791 2597 
L 2297 2597 
z
M 1791 1766 
L 1791 0 
L 588 0 
L 588 4666 
L 2425 4666 
Q 3347 4666 3776 4356 
Q 4206 4047 4206 3378 
Q 4206 2916 3982 2619 
Q 3759 2322 3309 2181 
Q 3556 2125 3751 1926 
Q 3947 1728 4147 1325 
L 4800 0 
L 3519 0 
L 2950 1159 
Q 2778 1509 2601 1637 
Q 2425 1766 2131 1766 
L 1791 1766 
z
" transform="scale(0.015625)"/>
       <path id="DejaVuSans-Bold-69" d="M 538 3500 
L 1656 3500 
L 1656 0 
L 538 0 
L 538 3500 
z
M 538 4863 
L 1656 4863 
L 1656 3950 
L 538 3950 
L 538 4863 
z
" transform="scale(0.015625)"/>
       <path id="DejaVuSans-Bold-63" d="M 3366 3391 
L 3366 2478 
Q 3138 2634 2908 2709 
Q 2678 2784 2431 2784 
Q 1963 2784 1702 2511 
Q 1441 2238 1441 1747 
Q 1441 1256 1702 982 
Q 1963 709 2431 709 
Q 2694 709 2930 787 
Q 3166 866 3366 1019 
L 3366 103 
Q 3103 6 2833 -42 
Q 2563 -91 2291 -91 
Q 1344 -91 809 395 
Q 275 881 275 1747 
Q 275 2613 809 3098 
Q 1344 3584 2291 3584 
Q 2566 3584 2833 3536 
Q 3100 3488 3366 3391 
z
" transform="scale(0.015625)"/>
       <path id="DejaVuSans-Bold-68" d="M 4056 2131 
L 4056 0 
L 2931 0 
L 2931 347 
L 2931 1625 
Q 2931 2084 2911 2256 
Q 2891 2428 2841 2509 
Q 2775 2619 2662 2680 
Q 2550 2741 2406 2741 
Q 2056 2741 1856 2470 
Q 1656 2200 1656 1722 
L 1656 0 
L 538 0 
L 538 4863 
L 1656 4863 
L 1656 2988 
Q 1909 3294 2193 3439 
Q 2478 3584 2822 3584 
Q 3428 3584 3742 3212 
Q 4056 2841 4056 2131 
z
" transform="scale(0.015625)"/>
       <path id="DejaVuSans-Bold-74" d="M 1759 4494 
L 1759 3500 
L 2913 3500 
L 2913 2700 
L 1759 2700 
L 1759 1216 
Q 1759 972 1856 886 
Q 1953 800 2241 800 
L 2816 800 
L 2816 0 
L 1856 0 
Q 1194 0 917 276 
Q 641 553 641 1216 
L 641 2700 
L 84 2700 
L 84 3500 
L 641 3500 
L 641 4494 
L 1759 4494 
z
" transform="scale(0.015625)"/>
       <path id="DejaVuSans-Bold-65" d="M 4031 1759 
L 4031 1441 
L 1416 1441 
Q 1456 1047 1700 850 
Q 1944 653 2381 653 
Q 2734 653 3104 758 
Q 3475 863 3866 1075 
L 3866 213 
Q 3469 63 3072 -14 
Q 2675 -91 2278 -91 
Q 1328 -91 801 392 
Q 275 875 275 1747 
Q 275 2603 792 3093 
Q 1309 3584 2216 3584 
Q 3041 3584 3536 3087 
Q 4031 2591 4031 1759 
z
M 2881 2131 
Q 2881 2450 2695 2645 
Q 2509 2841 2209 2841 
Q 1884 2841 1681 2658 
Q 1478 2475 1428 2131 
L 2881 2131 
z
" transform="scale(0.015625)"/>
       <path id="DejaVuSans-Bold-72" d="M 3138 2547 
Q 2991 2616 2845 2648 
Q 2700 2681 2553 2681 
Q 2122 2681 1889 2404 
Q 1656 2128 1656 1613 
L 1656 0 
L 538 0 
L 538 3500 
L 1656 3500 
L 1656 2925 
Q 1872 3269 2151 3426 
Q 2431 3584 2822 3584 
Q 2878 3584 2943 3579 
Q 3009 3575 3134 3559 
L 3138 2547 
z
" transform="scale(0.015625)"/>
       <path id="DejaVuSans-Bold-20" transform="scale(0.015625)"/>
       <path id="DejaVuSans-Bold-4d" d="M 588 4666 
L 2119 4666 
L 3181 2169 
L 4250 4666 
L 5778 4666 
L 5778 0 
L 4641 0 
L 4641 3413 
L 3566 897 
L 2803 897 
L 1728 3413 
L 1728 0 
L 588 0 
L 588 4666 
z
" transform="scale(0.015625)"/>
       <path id="DejaVuSans-Bold-61" d="M 2106 1575 
Q 1756 1575 1579 1456 
Q 1403 1338 1403 1106 
Q 1403 894 1545 773 
Q 1688 653 1941 653 
Q 2256 653 2472 879 
Q 2688 1106 2688 1447 
L 2688 1575 
L 2106 1575 
z
M 3816 1997 
L 3816 0 
L 2688 0 
L 2688 519 
Q 2463 200 2181 54 
Q 1900 -91 1497 -91 
Q 953 -91 614 226 
Q 275 544 275 1050 
Q 275 1666 698 1953 
Q 1122 2241 2028 2241 
L 2688 2241 
L 2688 2328 
Q 2688 2594 2478 2717 
Q 2269 2841 1825 2841 
Q 1466 2841 1156 2769 
Q 847 2697 581 2553 
L 581 3406 
Q 941 3494 1303 3539 
Q 1666 3584 2028 3584 
Q 2975 3584 3395 3211 
Q 3816 2838 3816 1997 
z
" transform="scale(0.015625)"/>
       <path id="DejaVuSans-Bold-6e" d="M 4056 2131 
L 4056 0 
L 2931 0 
L 2931 347 
L 2931 1631 
Q 2931 2084 2911 2256 
Q 2891 2428 2841 2509 
Q 2775 2619 2662 2680 
Q 2550 2741 2406 2741 
Q 2056 2741 1856 2470 
Q 1656 2200 1656 1722 
L 1656 0 
L 538 0 
L 538 3500 
L 1656 3500 
L 1656 2988 
Q 1909 3294 2193 3439 
Q 2478 3584 2822 3584 
Q 3428 3584 3742 3212 
Q 4056 2841 4056 2131 
z
" transform="scale(0.015625)"/>
       <path id="DejaVuSans-Bold-75" d="M 500 1363 
L 500 3500 
L 1625 3500 
L 1625 3150 
Q 1625 2866 1622 2436 
Q 1619 2006 1619 1863 
Q 1619 1441 1641 1255 
Q 1663 1069 1716 984 
Q 1784 875 1895 815 
Q 2006 756 2150 756 
Q 2500 756 2700 1025 
Q 2900 1294 2900 1772 
L 2900 3500 
L 4019 3500 
L 4019 0 
L 2900 0 
L 2900 506 
Q 2647 200 2364 54 
Q 2081 -91 1741 -91 
Q 1134 -91 817 281 
Q 500 653 500 1363 
z
" transform="scale(0.015625)"/>
       <path id="DejaVuSans-Bold-64" d="M 2919 2988 
L 2919 4863 
L 4044 4863 
L 4044 0 
L 2919 0 
L 2919 506 
Q 2688 197 2409 53 
Q 2131 -91 1766 -91 
Q 1119 -91 703 423 
Q 288 938 288 1747 
Q 288 2556 703 3070 
Q 1119 3584 1766 3584 
Q 2128 3584 2408 3439 
Q 2688 3294 2919 2988 
z
M 2181 722 
Q 2541 722 2730 984 
Q 2919 1247 2919 1747 
Q 2919 2247 2730 2509 
Q 2541 2772 2181 2772 
Q 1825 2772 1636 2509 
Q 1447 2247 1447 1747 
Q 1447 1247 1636 984 
Q 1825 722 2181 722 
z
" transform="scale(0.015625)"/>
       <path id="DejaVuSans-Bold-28" d="M 2413 -844 
L 1484 -844 
Q 1006 -72 778 623 
Q 550 1319 550 2003 
Q 550 2688 779 3389 
Q 1009 4091 1484 4856 
L 2413 4856 
Q 2013 4116 1813 3408 
Q 1613 2700 1613 2009 
Q 1613 1319 1811 609 
Q 2009 -100 2413 -844 
z
" transform="scale(0.015625)"/>
       <path id="DejaVuSans-Oblique-4d" d="M 1081 4666 
L 2028 4666 
L 2572 1522 
L 4378 4666 
L 5350 4666 
L 4441 0 
L 3828 0 
L 4622 4091 
L 2791 897 
L 2175 897 
L 1581 4103 
L 788 0 
L 172 0 
L 1081 4666 
z
" transform="scale(0.015625)"/>
       <path id="DejaVuSans-Oblique-44" d="M 1081 4666 
L 2438 4666 
Q 3519 4666 4070 4208 
Q 4622 3750 4622 2847 
Q 4622 2250 4412 1698 
Q 4203 1147 3834 769 
Q 3463 381 2891 190 
Q 2319 0 1538 0 
L 172 0 
L 1081 4666 
z
M 1613 4147 
L 909 519 
L 1734 519 
Q 2794 519 3375 1128 
Q 3956 1738 3956 2847 
Q 3956 3519 3581 3833 
Q 3206 4147 2406 4147 
L 1613 4147 
z
" transform="scale(0.015625)"/>
       <path id="DejaVuSans-3d" d="M 678 2906 
L 4684 2906 
L 4684 2381 
L 678 2381 
L 678 2906 
z
M 678 1631 
L 4684 1631 
L 4684 1100 
L 678 1100 
L 678 1631 
z
" transform="scale(0.015625)"/>
       <path id="DejaVuSans-6c" d="M 603 4863 
L 1178 4863 
L 1178 0 
L 603 0 
L 603 4863 
z
" transform="scale(0.015625)"/>
       <path id="DejaVuSans-6f" d="M 1959 3097 
Q 1497 3097 1228 2736 
Q 959 2375 959 1747 
Q 959 1119 1226 758 
Q 1494 397 1959 397 
Q 2419 397 2687 759 
Q 2956 1122 2956 1747 
Q 2956 2369 2687 2733 
Q 2419 3097 1959 3097 
z
M 1959 3584 
Q 2709 3584 3137 3096 
Q 3566 2609 3566 1747 
Q 3566 888 3137 398 
Q 2709 -91 1959 -91 
Q 1206 -91 779 398 
Q 353 888 353 1747 
Q 353 2609 779 3096 
Q 1206 3584 1959 3584 
z
" transform="scale(0.015625)"/>
       <path id="DejaVuSans-67" d="M 2906 1791 
Q 2906 2416 2648 2759 
Q 2391 3103 1925 3103 
Q 1463 3103 1205 2759 
Q 947 2416 947 1791 
Q 947 1169 1205 825 
Q 1463 481 1925 481 
Q 2391 481 2648 825 
Q 2906 1169 2906 1791 
z
M 3481 434 
Q 3481 -459 3084 -895 
Q 2688 -1331 1869 -1331 
Q 1566 -1331 1297 -1286 
Q 1028 -1241 775 -1147 
L 775 -588 
Q 1028 -725 1275 -790 
Q 1522 -856 1778 -856 
Q 2344 -856 2625 -561 
Q 2906 -266 2906 331 
L 2906 616 
Q 2728 306 2450 153 
Q 2172 0 1784 0 
Q 1141 0 747 490 
Q 353 981 353 1791 
Q 353 2603 747 3093 
Q 1141 3584 1784 3584 
Q 2172 3584 2450 3431 
Q 2728 3278 2906 2969 
L 2906 3500 
L 3481 3500 
L 3481 434 
z
" transform="scale(0.015625)"/>
       <path id="DejaVuSans-31" d="M 794 531 
L 1825 531 
L 1825 4091 
L 703 3866 
L 703 4441 
L 1819 4666 
L 2450 4666 
L 2450 531 
L 3481 531 
L 3481 0 
L 794 0 
L 794 531 
z
" transform="scale(0.015625)"/>
       <path id="DejaVuSans-30" d="M 2034 4250 
Q 1547 4250 1301 3770 
Q 1056 3291 1056 2328 
Q 1056 1369 1301 889 
Q 1547 409 2034 409 
Q 2525 409 2770 889 
Q 3016 1369 3016 2328 
Q 3016 3291 2770 3770 
Q 2525 4250 2034 4250 
z
M 2034 4750 
Q 2819 4750 3233 4129 
Q 3647 3509 3647 2328 
Q 3647 1150 3233 529 
Q 2819 -91 2034 -91 
Q 1250 -91 836 529 
Q 422 1150 422 2328 
Q 422 3509 836 4129 
Q 1250 4750 2034 4750 
z
" transform="scale(0.015625)"/>
       <path id="DejaVuSans-28" d="M 1984 4856 
Q 1566 4138 1362 3434 
Q 1159 2731 1159 2009 
Q 1159 1288 1364 580 
Q 1569 -128 1984 -844 
L 1484 -844 
Q 1016 -109 783 600 
Q 550 1309 550 2009 
Q 550 2706 781 3412 
Q 1013 4119 1484 4856 
L 1984 4856 
z
" transform="scale(0.015625)"/>
       <path id="DejaVuSans-Oblique-41" d="M 2356 4666 
L 3072 4666 
L 3938 0 
L 3278 0 
L 3084 1197 
L 984 1197 
L 325 0 
L -341 0 
L 2356 4666 
z
M 2584 4044 
L 1275 1722 
L 2988 1722 
L 2584 4044 
z
" transform="scale(0.015625)"/>
       <path id="DejaVuSans-Oblique-48" d="M 1081 4666 
L 1716 4666 
L 1344 2753 
L 3634 2753 
L 4006 4666 
L 4641 4666 
L 3731 0 
L 3097 0 
L 3531 2222 
L 1241 2222 
L 806 0 
L 172 0 
L 1081 4666 
z
" transform="scale(0.015625)"/>
       <path id="DejaVuSans-2f" d="M 1625 4666 
L 2156 4666 
L 531 -594 
L 0 -594 
L 1625 4666 
z
" transform="scale(0.015625)"/>
       <path id="DejaVuSans-6b" d="M 581 4863 
L 1159 4863 
L 1159 1991 
L 2875 3500 
L 3609 3500 
L 1753 1863 
L 3688 0 
L 2938 0 
L 1159 1709 
L 1159 0 
L 581 0 
L 581 4863 
z
" transform="scale(0.015625)"/>
       <path id="DejaVuSans-6d" d="M 3328 2828 
Q 3544 3216 3844 3400 
Q 4144 3584 4550 3584 
Q 5097 3584 5394 3201 
Q 5691 2819 5691 2113 
L 5691 0 
L 5113 0 
L 5113 2094 
Q 5113 2597 4934 2840 
Q 4756 3084 4391 3084 
Q 3944 3084 3684 2787 
Q 3425 2491 3425 1978 
L 3425 0 
L 2847 0 
L 2847 2094 
Q 2847 2600 2669 2842 
Q 2491 3084 2119 3084 
Q 1678 3084 1418 2786 
Q 1159 2488 1159 1978 
L 1159 0 
L 581 0 
L 581 3500 
L 1159 3500 
L 1159 2956 
Q 1356 3278 1631 3431 
Q 1906 3584 2284 3584 
Q 2666 3584 2933 3390 
Q 3200 3197 3328 2828 
z
" transform="scale(0.015625)"/>
       <path id="DejaVuSans-32" d="M 1228 531 
L 3431 531 
L 3431 0 
L 469 0 
L 469 531 
Q 828 903 1448 1529 
Q 2069 2156 2228 2338 
Q 2531 2678 2651 2914 
Q 2772 3150 2772 3378 
Q 2772 3750 2511 3984 
Q 2250 4219 1831 4219 
Q 1534 4219 1204 4116 
Q 875 4013 500 3803 
L 500 4441 
Q 881 4594 1212 4672 
Q 1544 4750 1819 4750 
Q 2544 4750 2975 4387 
Q 3406 4025 3406 3419 
Q 3406 3131 3298 2873 
Q 3191 2616 2906 2266 
Q 2828 2175 2409 1742 
Q 1991 1309 1228 531 
z
" transform="scale(0.015625)"/>
       <path id="DejaVuSans-29" d="M 513 4856 
L 1013 4856 
Q 1481 4119 1714 3412 
Q 1947 2706 1947 2009 
Q 1947 1309 1714 600 
Q 1481 -109 1013 -844 
L 513 -844 
Q 928 -128 1133 580 
Q 1338 1288 1338 2009 
Q 1338 2731 1133 3434 
Q 928 4138 513 4856 
z
" transform="scale(0.015625)"/>
       <path id="DejaVuSans-Bold-29" d="M 513 -844 
Q 913 -100 1113 609 
Q 1313 1319 1313 2009 
Q 1313 2700 1113 3408 
Q 913 4116 513 4856 
L 1441 4856 
Q 1916 4091 2145 3389 
Q 2375 2688 2375 2003 
Q 2375 1319 2147 623 
Q 1919 -72 1441 -844 
L 513 -844 
z
" transform="scale(0.015625)"/>
      </defs>
      <use xlink:href="#DejaVuSans-Bold-41" transform="translate(0 0.765625)"/>
      <use xlink:href="#DejaVuSans-Bold-67" transform="translate(77.392578 0.765625)"/>
      <use xlink:href="#DejaVuSans-Bold-52" transform="translate(148.974609 0.765625)"/>
      <use xlink:href="#DejaVuSans-Bold-69" transform="translate(225.976562 0.765625)"/>
      <use xlink:href="#DejaVuSans-Bold-63" transform="translate(260.253906 0.765625)"/>
      <use xlink:href="#DejaVuSans-Bold-68" transform="translate(319.53125 0.765625)"/>
      <use xlink:href="#DejaVuSans-Bold-74" transform="translate(390.722656 0.765625)"/>
      <use xlink:href="#DejaVuSans-Bold-65" transform="translate(438.525391 0.765625)"/>
      <use xlink:href="#DejaVuSans-Bold-72" transform="translate(506.347656 0.765625)"/>
      <use xlink:href="#DejaVuSans-Bold-20" transform="translate(555.664062 0.765625)"/>
      <use xlink:href="#DejaVuSans-Bold-4d" transform="translate(590.478516 0.765625)"/>
      <use xlink:href="#DejaVuSans-Bold-61" transform="translate(689.990234 0.765625)"/>
      <use xlink:href="#DejaVuSans-Bold-67" transform="translate(757.470703 0.765625)"/>
      <use xlink:href="#DejaVuSans-Bold-6e" transform="translate(829.052734 0.765625)"/>
      <use xlink:href="#DejaVuSans-Bold-69" transform="translate(900.244141 0.765625)"/>
      <use xlink:href="#DejaVuSans-Bold-74" transform="translate(934.521484 0.765625)"/>
      <use xlink:href="#DejaVuSans-Bold-75" transform="translate(982.324219 0.765625)"/>
      <use xlink:href="#DejaVuSans-Bold-64" transform="translate(1053.515625 0.765625)"/>
      <use xlink:href="#DejaVuSans-Bold-65" transform="translate(1125.097656 0.765625)"/>
      <use xlink:href="#DejaVuSans-Bold-20" transform="translate(1192.919922 0.765625)"/>
      <use xlink:href="#DejaVuSans-Bold-28" transform="translate(1227.734375 0.765625)"/>
      <use xlink:href="#DejaVuSans-Oblique-4d" transform="translate(1273.4375 0.765625)"/>
      <use xlink:href="#DejaVuSans-Oblique-44" transform="translate(1359.716797 -15.640625) scale(0.7)"/>
      <use xlink:href="#DejaVuSans-3d" transform="translate(1435.834961 0.765625)"/>
      <use xlink:href="#DejaVuSans-6c" transform="translate(1539.106445 0.765625)"/>
      <use xlink:href="#DejaVuSans-6f" transform="translate(1566.889648 0.765625)"/>
      <use xlink:href="#DejaVuSans-67" transform="translate(1628.071289 0.765625)"/>
      <use xlink:href="#DejaVuSans-31" transform="translate(1692.504883 -15.640625) scale(0.7)"/>
      <use xlink:href="#DejaVuSans-30" transform="translate(1737.041016 -15.640625) scale(0.7)"/>
      <use xlink:href="#DejaVuSans-28" transform="translate(1800.5472 0.765625)"/>
      <use xlink:href="#DejaVuSans-Oblique-41" transform="translate(1839.560872 0.765625)"/>
      <use xlink:href="#DejaVuSans-Oblique-48" transform="translate(1907.969075 -15.640625) scale(0.7)"/>
      <use xlink:href="#DejaVuSans-2f" transform="translate(1963.340168 0.765625)"/>
      <use xlink:href="#DejaVuSans-6b" transform="translate(1997.031575 0.765625)"/>
      <use xlink:href="#DejaVuSans-6d" transform="translate(2054.941731 0.765625)"/>
      <use xlink:href="#DejaVuSans-32" transform="translate(2153.310872 39.046875) scale(0.7)"/>
      <use xlink:href="#DejaVuSans-29" transform="translate(2200.581379 0.765625)"/>
      <use xlink:href="#DejaVuSans-Bold-29" transform="translate(2239.595051 0.765625)"/>
     </g>
    </g>
   </g>
   <g id="matplotlib.axis_2">
    <g id="ytick_1">
     <g id="line2d_13">
      <path d="M 55.249375 666.149875 
L 989.882321 666.149875 
" clip-path="url(#p9c596de7de)" style="fill: none; stroke: #b0b0b0; stroke-opacity: 0.15; stroke-width: 0.8; stroke-linecap: square"/>
     </g>
     <g id="line2d_14">
      <defs>
       <path id="m9863e2e200" d="M 0 0 
L -3.5 0 
" style="stroke: #000000; stroke-width: 0.8"/>
      </defs>
      <g>
       <use xlink:href="#m9863e2e200" x="55.249375" y="666.149875" style="stroke: #000000; stroke-width: 0.8"/>
      </g>
     </g>
     <g id="text_8">
      <!-- $\mathdefault{10^{-2}}$ -->
      <g transform="translate(24.749375 669.949094) scale(0.1 -0.1)">
       <defs>
        <path id="DejaVuSans-2212" d="M 678 2272 
L 4684 2272 
L 4684 1741 
L 678 1741 
L 678 2272 
z
" transform="scale(0.015625)"/>
       </defs>
       <use xlink:href="#DejaVuSans-31" transform="translate(0 0.765625)"/>
       <use xlink:href="#DejaVuSans-30" transform="translate(63.623047 0.765625)"/>
       <use xlink:href="#DejaVuSans-2212" transform="translate(128.203125 39.046875) scale(0.7)"/>
       <use xlink:href="#DejaVuSans-32" transform="translate(186.855469 39.046875) scale(0.7)"/>
      </g>
     </g>
    </g>
    <g id="ytick_2">
     <g id="line2d_15">
      <path d="M 55.249375 512.990791 
L 989.882321 512.990791 
" clip-path="url(#p9c596de7de)" style="fill: none; stroke: #b0b0b0; stroke-opacity: 0.15; stroke-width: 0.8; stroke-linecap: square"/>
     </g>
     <g id="line2d_16">
      <g>
       <use xlink:href="#m9863e2e200" x="55.249375" y="512.990791" style="stroke: #000000; stroke-width: 0.8"/>
      </g>
     </g>
     <g id="text_9">
      <!-- $\mathdefault{10^{-1}}$ -->
      <g transform="translate(24.749375 516.79001) scale(0.1 -0.1)">
       <use xlink:href="#DejaVuSans-31" transform="translate(0 0.684375)"/>
       <use xlink:href="#DejaVuSans-30" transform="translate(63.623047 0.684375)"/>
       <use xlink:href="#DejaVuSans-2212" transform="translate(128.203125 38.965625) scale(0.7)"/>
       <use xlink:href="#DejaVuSans-31" transform="translate(186.855469 38.965625) scale(0.7)"/>
      </g>
     </g>
    </g>
    <g id="ytick_3">
     <g id="line2d_17">
      <path d="M 55.249375 359.831708 
L 989.882321 359.831708 
" clip-path="url(#p9c596de7de)" style="fill: none; stroke: #b0b0b0; stroke-opacity: 0.15; stroke-width: 0.8; stroke-linecap: square"/>
     </g>
     <g id="line2d_18">
      <g>
       <use xlink:href="#m9863e2e200" x="55.249375" y="359.831708" style="stroke: #000000; stroke-width: 0.8"/>
      </g>
     </g>
     <g id="text_10">
      <!-- $\mathdefault{10^{0}}$ -->
      <g transform="translate(30.649375 363.630927) scale(0.1 -0.1)">
       <use xlink:href="#DejaVuSans-31" transform="translate(0 0.765625)"/>
       <use xlink:href="#DejaVuSans-30" transform="translate(63.623047 0.765625)"/>
       <use xlink:href="#DejaVuSans-30" transform="translate(128.203125 39.046875) scale(0.7)"/>
      </g>
     </g>
    </g>
    <g id="ytick_4">
     <g id="line2d_19">
      <path d="M 55.249375 206.672624 
L 989.882321 206.672624 
" clip-path="url(#p9c596de7de)" style="fill: none; stroke: #b0b0b0; stroke-opacity: 0.15; stroke-width: 0.8; stroke-linecap: square"/>
     </g>
     <g id="line2d_20">
      <g>
       <use xlink:href="#m9863e2e200" x="55.249375" y="206.672624" style="stroke: #000000; stroke-width: 0.8"/>
      </g>
     </g>
     <g id="text_11">
      <!-- $\mathdefault{10^{1}}$ -->
      <g transform="translate(30.649375 210.471843) scale(0.1 -0.1)">
       <use xlink:href="#DejaVuSans-31" transform="translate(0 0.684375)"/>
       <use xlink:href="#DejaVuSans-30" transform="translate(63.623047 0.684375)"/>
       <use xlink:href="#DejaVuSans-31" transform="translate(128.203125 38.965625) scale(0.7)"/>
      </g>
     </g>
    </g>
    <g id="ytick_5">
     <g id="line2d_21">
      <path d="M 55.249375 53.513541 
L 989.882321 53.513541 
" clip-path="url(#p9c596de7de)" style="fill: none; stroke: #b0b0b0; stroke-opacity: 0.15; stroke-width: 0.8; stroke-linecap: square"/>
     </g>
     <g id="line2d_22">
      <g>
       <use xlink:href="#m9863e2e200" x="55.249375" y="53.513541" style="stroke: #000000; stroke-width: 0.8"/>
      </g>
     </g>
     <g id="text_12">
      <!-- $\mathdefault{10^{2}}$ -->
      <g transform="translate(30.649375 57.312759) scale(0.1 -0.1)">
       <use xlink:href="#DejaVuSans-31" transform="translate(0 0.765625)"/>
       <use xlink:href="#DejaVuSans-30" transform="translate(63.623047 0.765625)"/>
       <use xlink:href="#DejaVuSans-32" transform="translate(128.203125 39.046875) scale(0.7)"/>
      </g>
     </g>
    </g>
    <g id="ytick_6">
     <g id="line2d_23">
      <path d="M 55.249375 620.044397 
L 989.882321 620.044397 
" clip-path="url(#p9c596de7de)" style="fill: none; stroke: #b0b0b0; stroke-opacity: 0.15; stroke-width: 0.8; stroke-linecap: square"/>
     </g>
     <g id="line2d_24">
      <defs>
       <path id="m7782e394bd" d="M 0 0 
L -2 0 
" style="stroke: #000000; stroke-width: 0.6"/>
      </defs>
      <g>
       <use xlink:href="#m7782e394bd" x="55.249375" y="620.044397" style="stroke: #000000; stroke-width: 0.6"/>
      </g>
     </g>
    </g>
    <g id="ytick_7">
     <g id="line2d_25">
      <path d="M 55.249375 593.074421 
L 989.882321 593.074421 
" clip-path="url(#p9c596de7de)" style="fill: none; stroke: #b0b0b0; stroke-opacity: 0.15; stroke-width: 0.8; stroke-linecap: square"/>
     </g>
     <g id="line2d_26">
      <g>
       <use xlink:href="#m7782e394bd" x="55.249375" y="593.074421" style="stroke: #000000; stroke-width: 0.6"/>
      </g>
     </g>
    </g>
    <g id="ytick_8">
     <g id="line2d_27">
      <path d="M 55.249375 573.938918 
L 989.882321 573.938918 
" clip-path="url(#p9c596de7de)" style="fill: none; stroke: #b0b0b0; stroke-opacity: 0.15; stroke-width: 0.8; stroke-linecap: square"/>
     </g>
     <g id="line2d_28">
      <g>
       <use xlink:href="#m7782e394bd" x="55.249375" y="573.938918" style="stroke: #000000; stroke-width: 0.6"/>
      </g>
     </g>
    </g>
    <g id="ytick_9">
     <g id="line2d_29">
      <path d="M 55.249375 559.09627 
L 989.882321 559.09627 
" clip-path="url(#p9c596de7de)" style="fill: none; stroke: #b0b0b0; stroke-opacity: 0.15; stroke-width: 0.8; stroke-linecap: square"/>
     </g>
     <g id="line2d_30">
      <g>
       <use xlink:href="#m7782e394bd" x="55.249375" y="559.09627" style="stroke: #000000; stroke-width: 0.6"/>
      </g>
     </g>
    </g>
    <g id="ytick_10">
     <g id="line2d_31">
      <path d="M 55.249375 546.968943 
L 989.882321 546.968943 
" clip-path="url(#p9c596de7de)" style="fill: none; stroke: #b0b0b0; stroke-opacity: 0.15; stroke-width: 0.8; stroke-linecap: square"/>
     </g>
     <g id="line2d_32">
      <g>
       <use xlink:href="#m7782e394bd" x="55.249375" y="546.968943" style="stroke: #000000; stroke-width: 0.6"/>
      </g>
     </g>
    </g>
    <g id="ytick_11">
     <g id="line2d_33">
      <path d="M 55.249375 536.715434 
L 989.882321 536.715434 
" clip-path="url(#p9c596de7de)" style="fill: none; stroke: #b0b0b0; stroke-opacity: 0.15; stroke-width: 0.8; stroke-linecap: square"/>
     </g>
     <g id="line2d_34">
      <g>
       <use xlink:href="#m7782e394bd" x="55.249375" y="536.715434" style="stroke: #000000; stroke-width: 0.6"/>
      </g>
     </g>
    </g>
    <g id="ytick_12">
     <g id="line2d_35">
      <path d="M 55.249375 527.83344 
L 989.882321 527.83344 
" clip-path="url(#p9c596de7de)" style="fill: none; stroke: #b0b0b0; stroke-opacity: 0.15; stroke-width: 0.8; stroke-linecap: square"/>
     </g>
     <g id="line2d_36">
      <g>
       <use xlink:href="#m7782e394bd" x="55.249375" y="527.83344" style="stroke: #000000; stroke-width: 0.6"/>
      </g>
     </g>
    </g>
    <g id="ytick_13">
     <g id="line2d_37">
      <path d="M 55.249375 519.998967 
L 989.882321 519.998967 
" clip-path="url(#p9c596de7de)" style="fill: none; stroke: #b0b0b0; stroke-opacity: 0.15; stroke-width: 0.8; stroke-linecap: square"/>
     </g>
     <g id="line2d_38">
      <g>
       <use xlink:href="#m7782e394bd" x="55.249375" y="519.998967" style="stroke: #000000; stroke-width: 0.6"/>
      </g>
     </g>
    </g>
    <g id="ytick_14">
     <g id="line2d_39">
      <path d="M 55.249375 466.885313 
L 989.882321 466.885313 
" clip-path="url(#p9c596de7de)" style="fill: none; stroke: #b0b0b0; stroke-opacity: 0.15; stroke-width: 0.8; stroke-linecap: square"/>
     </g>
     <g id="line2d_40">
      <g>
       <use xlink:href="#m7782e394bd" x="55.249375" y="466.885313" style="stroke: #000000; stroke-width: 0.6"/>
      </g>
     </g>
    </g>
    <g id="ytick_15">
     <g id="line2d_41">
      <path d="M 55.249375 439.915337 
L 989.882321 439.915337 
" clip-path="url(#p9c596de7de)" style="fill: none; stroke: #b0b0b0; stroke-opacity: 0.15; stroke-width: 0.8; stroke-linecap: square"/>
     </g>
     <g id="line2d_42">
      <g>
       <use xlink:href="#m7782e394bd" x="55.249375" y="439.915337" style="stroke: #000000; stroke-width: 0.6"/>
      </g>
     </g>
    </g>
    <g id="ytick_16">
     <g id="line2d_43">
      <path d="M 55.249375 420.779835 
L 989.882321 420.779835 
" clip-path="url(#p9c596de7de)" style="fill: none; stroke: #b0b0b0; stroke-opacity: 0.15; stroke-width: 0.8; stroke-linecap: square"/>
     </g>
     <g id="line2d_44">
      <g>
       <use xlink:href="#m7782e394bd" x="55.249375" y="420.779835" style="stroke: #000000; stroke-width: 0.6"/>
      </g>
     </g>
    </g>
    <g id="ytick_17">
     <g id="line2d_45">
      <path d="M 55.249375 405.937186 
L 989.882321 405.937186 
" clip-path="url(#p9c596de7de)" style="fill: none; stroke: #b0b0b0; stroke-opacity: 0.15; stroke-width: 0.8; stroke-linecap: square"/>
     </g>
     <g id="line2d_46">
      <g>
       <use xlink:href="#m7782e394bd" x="55.249375" y="405.937186" style="stroke: #000000; stroke-width: 0.6"/>
      </g>
     </g>
    </g>
    <g id="ytick_18">
     <g id="line2d_47">
      <path d="M 55.249375 393.809859 
L 989.882321 393.809859 
" clip-path="url(#p9c596de7de)" style="fill: none; stroke: #b0b0b0; stroke-opacity: 0.15; stroke-width: 0.8; stroke-linecap: square"/>
     </g>
     <g id="line2d_48">
      <g>
       <use xlink:href="#m7782e394bd" x="55.249375" y="393.809859" style="stroke: #000000; stroke-width: 0.6"/>
      </g>
     </g>
    </g>
    <g id="ytick_19">
     <g id="line2d_49">
      <path d="M 55.249375 383.55635 
L 989.882321 383.55635 
" clip-path="url(#p9c596de7de)" style="fill: none; stroke: #b0b0b0; stroke-opacity: 0.15; stroke-width: 0.8; stroke-linecap: square"/>
     </g>
     <g id="line2d_50">
      <g>
       <use xlink:href="#m7782e394bd" x="55.249375" y="383.55635" style="stroke: #000000; stroke-width: 0.6"/>
      </g>
     </g>
    </g>
    <g id="ytick_20">
     <g id="line2d_51">
      <path d="M 55.249375 374.674357 
L 989.882321 374.674357 
" clip-path="url(#p9c596de7de)" style="fill: none; stroke: #b0b0b0; stroke-opacity: 0.15; stroke-width: 0.8; stroke-linecap: square"/>
     </g>
     <g id="line2d_52">
      <g>
       <use xlink:href="#m7782e394bd" x="55.249375" y="374.674357" style="stroke: #000000; stroke-width: 0.6"/>
      </g>
     </g>
    </g>
    <g id="ytick_21">
     <g id="line2d_53">
      <path d="M 55.249375 366.839883 
L 989.882321 366.839883 
" clip-path="url(#p9c596de7de)" style="fill: none; stroke: #b0b0b0; stroke-opacity: 0.15; stroke-width: 0.8; stroke-linecap: square"/>
     </g>
     <g id="line2d_54">
      <g>
       <use xlink:href="#m7782e394bd" x="55.249375" y="366.839883" style="stroke: #000000; stroke-width: 0.6"/>
      </g>
     </g>
    </g>
    <g id="ytick_22">
     <g id="line2d_55">
      <path d="M 55.249375 313.72623 
L 989.882321 313.72623 
" clip-path="url(#p9c596de7de)" style="fill: none; stroke: #b0b0b0; stroke-opacity: 0.15; stroke-width: 0.8; stroke-linecap: square"/>
     </g>
     <g id="line2d_56">
      <g>
       <use xlink:href="#m7782e394bd" x="55.249375" y="313.72623" style="stroke: #000000; stroke-width: 0.6"/>
      </g>
     </g>
    </g>
    <g id="ytick_23">
     <g id="line2d_57">
      <path d="M 55.249375 286.756254 
L 989.882321 286.756254 
" clip-path="url(#p9c596de7de)" style="fill: none; stroke: #b0b0b0; stroke-opacity: 0.15; stroke-width: 0.8; stroke-linecap: square"/>
     </g>
     <g id="line2d_58">
      <g>
       <use xlink:href="#m7782e394bd" x="55.249375" y="286.756254" style="stroke: #000000; stroke-width: 0.6"/>
      </g>
     </g>
    </g>
    <g id="ytick_24">
     <g id="line2d_59">
      <path d="M 55.249375 267.620751 
L 989.882321 267.620751 
" clip-path="url(#p9c596de7de)" style="fill: none; stroke: #b0b0b0; stroke-opacity: 0.15; stroke-width: 0.8; stroke-linecap: square"/>
     </g>
     <g id="line2d_60">
      <g>
       <use xlink:href="#m7782e394bd" x="55.249375" y="267.620751" style="stroke: #000000; stroke-width: 0.6"/>
      </g>
     </g>
    </g>
    <g id="ytick_25">
     <g id="line2d_61">
      <path d="M 55.249375 252.778103 
L 989.882321 252.778103 
" clip-path="url(#p9c596de7de)" style="fill: none; stroke: #b0b0b0; stroke-opacity: 0.15; stroke-width: 0.8; stroke-linecap: square"/>
     </g>
     <g id="line2d_62">
      <g>
       <use xlink:href="#m7782e394bd" x="55.249375" y="252.778103" style="stroke: #000000; stroke-width: 0.6"/>
      </g>
     </g>
    </g>
    <g id="ytick_26">
     <g id="line2d_63">
      <path d="M 55.249375 240.650775 
L 989.882321 240.650775 
" clip-path="url(#p9c596de7de)" style="fill: none; stroke: #b0b0b0; stroke-opacity: 0.15; stroke-width: 0.8; stroke-linecap: square"/>
     </g>
     <g id="line2d_64">
      <g>
       <use xlink:href="#m7782e394bd" x="55.249375" y="240.650775" style="stroke: #000000; stroke-width: 0.6"/>
      </g>
     </g>
    </g>
    <g id="ytick_27">
     <g id="line2d_65">
      <path d="M 55.249375 230.397267 
L 989.882321 230.397267 
" clip-path="url(#p9c596de7de)" style="fill: none; stroke: #b0b0b0; stroke-opacity: 0.15; stroke-width: 0.8; stroke-linecap: square"/>
     </g>
     <g id="line2d_66">
      <g>
       <use xlink:href="#m7782e394bd" x="55.249375" y="230.397267" style="stroke: #000000; stroke-width: 0.6"/>
      </g>
     </g>
    </g>
    <g id="ytick_28">
     <g id="line2d_67">
      <path d="M 55.249375 221.515273 
L 989.882321 221.515273 
" clip-path="url(#p9c596de7de)" style="fill: none; stroke: #b0b0b0; stroke-opacity: 0.15; stroke-width: 0.8; stroke-linecap: square"/>
     </g>
     <g id="line2d_68">
      <g>
       <use xlink:href="#m7782e394bd" x="55.249375" y="221.515273" style="stroke: #000000; stroke-width: 0.6"/>
      </g>
     </g>
    </g>
    <g id="ytick_29">
     <g id="line2d_69">
      <path d="M 55.249375 213.6808 
L 989.882321 213.6808 
" clip-path="url(#p9c596de7de)" style="fill: none; stroke: #b0b0b0; stroke-opacity: 0.15; stroke-width: 0.8; stroke-linecap: square"/>
     </g>
     <g id="line2d_70">
      <g>
       <use xlink:href="#m7782e394bd" x="55.249375" y="213.6808" style="stroke: #000000; stroke-width: 0.6"/>
      </g>
     </g>
    </g>
    <g id="ytick_30">
     <g id="line2d_71">
      <path d="M 55.249375 160.567146 
L 989.882321 160.567146 
" clip-path="url(#p9c596de7de)" style="fill: none; stroke: #b0b0b0; stroke-opacity: 0.15; stroke-width: 0.8; stroke-linecap: square"/>
     </g>
     <g id="line2d_72">
      <g>
       <use xlink:href="#m7782e394bd" x="55.249375" y="160.567146" style="stroke: #000000; stroke-width: 0.6"/>
      </g>
     </g>
    </g>
    <g id="ytick_31">
     <g id="line2d_73">
      <path d="M 55.249375 133.59717 
L 989.882321 133.59717 
" clip-path="url(#p9c596de7de)" style="fill: none; stroke: #b0b0b0; stroke-opacity: 0.15; stroke-width: 0.8; stroke-linecap: square"/>
     </g>
     <g id="line2d_74">
      <g>
       <use xlink:href="#m7782e394bd" x="55.249375" y="133.59717" style="stroke: #000000; stroke-width: 0.6"/>
      </g>
     </g>
    </g>
    <g id="ytick_32">
     <g id="line2d_75">
      <path d="M 55.249375 114.461668 
L 989.882321 114.461668 
" clip-path="url(#p9c596de7de)" style="fill: none; stroke: #b0b0b0; stroke-opacity: 0.15; stroke-width: 0.8; stroke-linecap: square"/>
     </g>
     <g id="line2d_76">
      <g>
       <use xlink:href="#m7782e394bd" x="55.249375" y="114.461668" style="stroke: #000000; stroke-width: 0.6"/>
      </g>
     </g>
    </g>
    <g id="ytick_33">
     <g id="line2d_77">
      <path d="M 55.249375 99.619019 
L 989.882321 99.619019 
" clip-path="url(#p9c596de7de)" style="fill: none; stroke: #b0b0b0; stroke-opacity: 0.15; stroke-width: 0.8; stroke-linecap: square"/>
     </g>
     <g id="line2d_78">
      <g>
       <use xlink:href="#m7782e394bd" x="55.249375" y="99.619019" style="stroke: #000000; stroke-width: 0.6"/>
      </g>
     </g>
    </g>
    <g id="ytick_34">
     <g id="line2d_79">
      <path d="M 55.249375 87.491692 
L 989.882321 87.491692 
" clip-path="url(#p9c596de7de)" style="fill: none; stroke: #b0b0b0; stroke-opacity: 0.15; stroke-width: 0.8; stroke-linecap: square"/>
     </g>
     <g id="line2d_80">
      <g>
       <use xlink:href="#m7782e394bd" x="55.249375" y="87.491692" style="stroke: #000000; stroke-width: 0.6"/>
      </g>
     </g>
    </g>
    <g id="ytick_35">
     <g id="line2d_81">
      <path d="M 55.249375 77.238183 
L 989.882321 77.238183 
" clip-path="url(#p9c596de7de)" style="fill: none; stroke: #b0b0b0; stroke-opacity: 0.15; stroke-width: 0.8; stroke-linecap: square"/>
     </g>
     <g id="line2d_82">
      <g>
       <use xlink:href="#m7782e394bd" x="55.249375" y="77.238183" style="stroke: #000000; stroke-width: 0.6"/>
      </g>
     </g>
    </g>
    <g id="ytick_36">
     <g id="line2d_83">
      <path d="M 55.249375 68.35619 
L 989.882321 68.35619 
" clip-path="url(#p9c596de7de)" style="fill: none; stroke: #b0b0b0; stroke-opacity: 0.15; stroke-width: 0.8; stroke-linecap: square"/>
     </g>
     <g id="line2d_84">
      <g>
       <use xlink:href="#m7782e394bd" x="55.249375" y="68.35619" style="stroke: #000000; stroke-width: 0.6"/>
      </g>
     </g>
    </g>
    <g id="ytick_37">
     <g id="line2d_85">
      <path d="M 55.249375 60.521716 
L 989.882321 60.521716 
" clip-path="url(#p9c596de7de)" style="fill: none; stroke: #b0b0b0; stroke-opacity: 0.15; stroke-width: 0.8; stroke-linecap: square"/>
     </g>
     <g id="line2d_86">
      <g>
       <use xlink:href="#m7782e394bd" x="55.249375" y="60.521716" style="stroke: #000000; stroke-width: 0.6"/>
      </g>
     </g>
    </g>
    <g id="text_13">
     <!-- Production Loss (% of Total) -->
     <g transform="translate(17.837812 467.477344) rotate(-90) scale(0.14 -0.14)">
      <defs>
       <path id="DejaVuSans-Bold-50" d="M 588 4666 
L 2584 4666 
Q 3475 4666 3951 4270 
Q 4428 3875 4428 3144 
Q 4428 2409 3951 2014 
Q 3475 1619 2584 1619 
L 1791 1619 
L 1791 0 
L 588 0 
L 588 4666 
z
M 1791 3794 
L 1791 2491 
L 2456 2491 
Q 2806 2491 2997 2661 
Q 3188 2831 3188 3144 
Q 3188 3456 2997 3625 
Q 2806 3794 2456 3794 
L 1791 3794 
z
" transform="scale(0.015625)"/>
       <path id="DejaVuSans-Bold-6f" d="M 2203 2784 
Q 1831 2784 1636 2517 
Q 1441 2250 1441 1747 
Q 1441 1244 1636 976 
Q 1831 709 2203 709 
Q 2569 709 2762 976 
Q 2956 1244 2956 1747 
Q 2956 2250 2762 2517 
Q 2569 2784 2203 2784 
z
M 2203 3584 
Q 3106 3584 3614 3096 
Q 4122 2609 4122 1747 
Q 4122 884 3614 396 
Q 3106 -91 2203 -91 
Q 1297 -91 786 396 
Q 275 884 275 1747 
Q 275 2609 786 3096 
Q 1297 3584 2203 3584 
z
" transform="scale(0.015625)"/>
       <path id="DejaVuSans-Bold-4c" d="M 588 4666 
L 1791 4666 
L 1791 909 
L 3903 909 
L 3903 0 
L 588 0 
L 588 4666 
z
" transform="scale(0.015625)"/>
       <path id="DejaVuSans-Bold-73" d="M 3272 3391 
L 3272 2541 
Q 2913 2691 2578 2766 
Q 2244 2841 1947 2841 
Q 1628 2841 1473 2761 
Q 1319 2681 1319 2516 
Q 1319 2381 1436 2309 
Q 1553 2238 1856 2203 
L 2053 2175 
Q 2913 2066 3209 1816 
Q 3506 1566 3506 1031 
Q 3506 472 3093 190 
Q 2681 -91 1863 -91 
Q 1516 -91 1145 -36 
Q 775 19 384 128 
L 384 978 
Q 719 816 1070 734 
Q 1422 653 1784 653 
Q 2113 653 2278 743 
Q 2444 834 2444 1013 
Q 2444 1163 2330 1236 
Q 2216 1309 1875 1350 
L 1678 1375 
Q 931 1469 631 1722 
Q 331 1975 331 2491 
Q 331 3047 712 3315 
Q 1094 3584 1881 3584 
Q 2191 3584 2531 3537 
Q 2872 3491 3272 3391 
z
" transform="scale(0.015625)"/>
       <path id="DejaVuSans-Bold-25" d="M 4959 1925 
Q 4738 1925 4616 1733 
Q 4494 1541 4494 1184 
Q 4494 825 4614 633 
Q 4734 441 4959 441 
Q 5184 441 5303 633 
Q 5422 825 5422 1184 
Q 5422 1541 5301 1733 
Q 5181 1925 4959 1925 
z
M 4959 2450 
Q 5541 2450 5875 2112 
Q 6209 1775 6209 1184 
Q 6209 594 5875 251 
Q 5541 -91 4959 -91 
Q 4378 -91 4042 251 
Q 3706 594 3706 1184 
Q 3706 1772 4042 2111 
Q 4378 2450 4959 2450 
z
M 2094 -91 
L 1403 -91 
L 4319 4750 
L 5013 4750 
L 2094 -91 
z
M 1453 4750 
Q 2034 4750 2367 4411 
Q 2700 4072 2700 3481 
Q 2700 2891 2367 2550 
Q 2034 2209 1453 2209 
Q 872 2209 539 2550 
Q 206 2891 206 3481 
Q 206 4072 539 4411 
Q 872 4750 1453 4750 
z
M 1453 4225 
Q 1228 4225 1106 4031 
Q 984 3838 984 3481 
Q 984 3122 1106 2926 
Q 1228 2731 1453 2731 
Q 1678 2731 1798 2926 
Q 1919 3122 1919 3481 
Q 1919 3838 1797 4031 
Q 1675 4225 1453 4225 
z
" transform="scale(0.015625)"/>
       <path id="DejaVuSans-Bold-66" d="M 2841 4863 
L 2841 4128 
L 2222 4128 
Q 1984 4128 1890 4042 
Q 1797 3956 1797 3744 
L 1797 3500 
L 2753 3500 
L 2753 2700 
L 1797 2700 
L 1797 0 
L 678 0 
L 678 2700 
L 122 2700 
L 122 3500 
L 678 3500 
L 678 3744 
Q 678 4316 997 4589 
Q 1316 4863 1984 4863 
L 2841 4863 
z
" transform="scale(0.015625)"/>
       <path id="DejaVuSans-Bold-54" d="M 31 4666 
L 4331 4666 
L 4331 3756 
L 2784 3756 
L 2784 0 
L 1581 0 
L 1581 3756 
L 31 3756 
L 31 4666 
z
" transform="scale(0.015625)"/>
       <path id="DejaVuSans-Bold-6c" d="M 538 4863 
L 1656 4863 
L 1656 0 
L 538 0 
L 538 4863 
z
" transform="scale(0.015625)"/>
      </defs>
      <use xlink:href="#DejaVuSans-Bold-50"/>
      <use xlink:href="#DejaVuSans-Bold-72" transform="translate(73.291016 0)"/>
      <use xlink:href="#DejaVuSans-Bold-6f" transform="translate(122.607422 0)"/>
      <use xlink:href="#DejaVuSans-Bold-64" transform="translate(191.308594 0)"/>
      <use xlink:href="#DejaVuSans-Bold-75" transform="translate(262.890625 0)"/>
      <use xlink:href="#DejaVuSans-Bold-63" transform="translate(334.082031 0)"/>
      <use xlink:href="#DejaVuSans-Bold-74" transform="translate(393.359375 0)"/>
      <use xlink:href="#DejaVuSans-Bold-69" transform="translate(441.162109 0)"/>
      <use xlink:href="#DejaVuSans-Bold-6f" transform="translate(475.439453 0)"/>
      <use xlink:href="#DejaVuSans-Bold-6e" transform="translate(544.140625 0)"/>
      <use xlink:href="#DejaVuSans-Bold-20" transform="translate(615.332031 0)"/>
      <use xlink:href="#DejaVuSans-Bold-4c" transform="translate(650.146484 0)"/>
      <use xlink:href="#DejaVuSans-Bold-6f" transform="translate(713.867188 0)"/>
      <use xlink:href="#DejaVuSans-Bold-73" transform="translate(782.568359 0)"/>
      <use xlink:href="#DejaVuSans-Bold-73" transform="translate(842.089844 0)"/>
      <use xlink:href="#DejaVuSans-Bold-20" transform="translate(901.611328 0)"/>
      <use xlink:href="#DejaVuSans-Bold-28" transform="translate(936.425781 0)"/>
      <use xlink:href="#DejaVuSans-Bold-25" transform="translate(982.128906 0)"/>
      <use xlink:href="#DejaVuSans-Bold-20" transform="translate(1082.324219 0)"/>
      <use xlink:href="#DejaVuSans-Bold-6f" transform="translate(1117.138672 0)"/>
      <use xlink:href="#DejaVuSans-Bold-66" transform="translate(1185.839844 0)"/>
      <use xlink:href="#DejaVuSans-Bold-20" transform="translate(1229.345703 0)"/>
      <use xlink:href="#DejaVuSans-Bold-54" transform="translate(1264.160156 0)"/>
      <use xlink:href="#DejaVuSans-Bold-6f" transform="translate(1319.123047 0)"/>
      <use xlink:href="#DejaVuSans-Bold-74" transform="translate(1387.824219 0)"/>
      <use xlink:href="#DejaVuSans-Bold-61" transform="translate(1435.626953 0)"/>
      <use xlink:href="#DejaVuSans-Bold-6c" transform="translate(1503.107422 0)"/>
      <use xlink:href="#DejaVuSans-Bold-29" transform="translate(1537.384766 0)"/>
     </g>
    </g>
   </g>
   <g id="line2d_87">
    <path d="M -1 457.473603 
L 16.505742 444.440753 
L 55.498325 415.414821 
L 76.881328 399.138171 
L 99.52214 381.624532 
L 127.194272 359.92176 
L 171.218132 325.050253 
L 246.687637 265.22711 
L 269.328448 247.677535 
L 288.195791 233.349171 
L 338.508735 195.667458 
L 354.860462 183.786116 
L 381.274831 164.852425 
L 416.493901 139.722633 
L 449.197265 116.349317 
L 461.775523 107.593554 
L 476.869398 97.32982 
L 502.025914 80.892864 
L 512.088467 74.526493 
L 519.635405 70.00145 
L 525.924578 66.421877 
L 530.955899 63.801427 
L 534.729368 62.034048 
L 538.502837 60.486957 
L 543.534069 58.714611 
L 549.823242 56.835554 
L 556.112327 55.254942 
L 562.4015 53.894196 
L 564.917116 53.513541 
L 564.917116 53.513541 
" clip-path="url(#p9c596de7de)" style="fill: none; stroke: #1f77b4; stroke-opacity: 0.8; stroke-width: 2; stroke-linecap: square"/>
   </g>
   <g id="line2d_88">
    <path d="M -1 474.128816 
L 21.339499 457.059486 
L 47.775527 437.220758 
L 67.602482 422.795387 
L 76.855079 416.309884 
L 88.751287 408.15996 
L 104.612868 397.712646 
L 215.644117 324.750822 
L 243.401907 306.07468 
L 268.516085 288.926305 
L 296.273875 269.752484 
L 347.824082 233.834431 
L 449.602645 162.306048 
L 526.267029 108.50866 
L 557.990281 86.679235 
L 580.460848 71.468662 
L 589.713444 65.428698 
L 596.322429 61.352897 
L 601.609653 58.352889 
L 605.575026 56.335637 
L 608.218638 55.163046 
L 610.862249 54.22054 
L 613.505861 53.622305 
L 614.827801 53.513541 
L 614.827801 53.513541 
" clip-path="url(#p9c596de7de)" style="fill: none; stroke: #d62728; stroke-opacity: 0.8; stroke-width: 2; stroke-linecap: square"/>
   </g>
   <g id="line2d_89">
    <path d="M -1 442.356017 
L 27.683935 419.893388 
L 34.967305 414.3848 
L 75.02588 384.510226 
L 92.020438 372.817803 
L 98.089897 368.903926 
L 113.870546 359.864312 
L 128.437284 351.160055 
L 139.362293 344.603675 
L 168.49577 327.428083 
L 181.848688 319.124838 
L 195.201517 310.565802 
L 208.554346 301.735677 
L 223.121084 291.837908 
L 238.901733 280.831828 
L 255.896201 268.69729 
L 323.874344 219.725939 
L 342.082812 206.834605 
L 361.5051 193.281607 
L 370.002379 187.459251 
L 380.927388 180.273249 
L 397.921946 169.317951 
L 414.916504 158.707305 
L 448.905531 137.458215 
L 468.327819 125.409572 
L 482.894558 116.700245 
L 537.519872 85.098194 
L 556.94216 74.035438 
L 566.653349 68.741961 
L 572.722808 65.647164 
L 578.792268 62.805302 
L 584.861727 60.20058 
L 589.717366 58.324482 
L 594.572916 56.683769 
L 599.428466 55.235161 
L 603.070195 54.343081 
L 606.711835 53.690763 
L 609.139655 53.513541 
L 609.139655 53.513541 
" clip-path="url(#p9c596de7de)" style="fill: none; stroke: #ff7f0e; stroke-opacity: 0.8; stroke-width: 2; stroke-linecap: square"/>
   </g>
   <g id="line2d_90">
    <path d="M -1 338.513236 
L 11.264779 330.407145 
L 24.030975 322.21864 
L 30.994355 317.887278 
L 43.760551 310.287945 
L 53.045058 305.009189 
L 58.847874 301.907677 
L 80.898577 290.645081 
L 126.160546 266.874887 
L 143.56904 257.519973 
L 163.298572 246.711067 
L 179.546458 237.469441 
L 194.633826 228.657878 
L 210.881712 218.826393 
L 229.450725 207.373768 
L 246.85913 196.378171 
L 286.318282 171.347744 
L 300.245042 162.819973 
L 322.295789 149.563339 
L 348.988701 134.111056 
L 373.360574 119.887772 
L 393.090106 108.03713 
L 422.104233 90.309113 
L 434.870385 82.624059 
L 444.154891 77.274272 
L 452.278879 72.844512 
L 459.242259 69.282614 
L 467.366158 65.394055 
L 475.490145 61.790981 
L 483.614044 58.467275 
L 491.738032 55.370596 
L 495.219677 54.293228 
L 497.540803 53.779984 
L 499.862287 53.513541 
L 499.862287 53.513541 
" clip-path="url(#p9c596de7de)" style="fill: none; stroke: #2ca02c; stroke-opacity: 0.8; stroke-width: 2; stroke-linecap: square"/>
   </g>
   <g id="line2d_91">
    <path d="M -1 293.366703 
L 53.417681 249.90285 
L 89.991669 220.737523 
L 104.058636 210.073071 
L 135.005892 187.067182 
L 161.73303 167.848602 
L 182.833436 153.097721 
L 192.680286 146.38737 
L 209.560574 134.850004 
L 232.067686 119.479865 
L 257.388208 102.554004 
L 284.115347 84.830135 
L 309.43578 67.917658 
L 316.469308 63.557977 
L 322.096041 60.293267 
L 326.316158 58.010335 
L 329.12948 56.634314 
L 331.942891 55.491558 
L 336.163008 54.026831 
L 337.569713 53.655512 
L 338.97633 53.513541 
L 338.97633 53.513541 
" clip-path="url(#p9c596de7de)" style="fill: none; stroke: #9467bd; stroke-opacity: 0.8; stroke-width: 2; stroke-linecap: square"/>
   </g>
   <g id="line2d_92">
    <path d="M -1 367.091838 
L 16.097956 353.745438 
L 85.41591 299.950867 
L 123.807331 270.073214 
L 168.597383 235.450959 
L 193.12524 216.724372 
L 210.188164 203.948107 
L 231.516751 188.376349 
L 242.181045 180.851373 
L 285.904613 150.246277 
L 311.498954 131.942816 
L 341.358958 110.339435 
L 392.547639 73.198364 
L 407.477597 62.675776 
L 416.009103 56.896962 
L 419.208374 54.843489 
L 421.34125 53.850415 
L 422.407644 53.513541 
L 422.407644 53.513541 
" clip-path="url(#p9c596de7de)" style="fill: none; stroke: #8c564b; stroke-opacity: 0.8; stroke-width: 1.5; stroke-linecap: square"/>
   </g>
   <g id="line2d_93">
    <path d="M -1 368.222722 
L 25.916506 347.809977 
L 53.684992 326.882814 
L 92.252363 297.895482 
L 132.362369 268.102081 
L 169.387017 240.988089 
L 184.813894 230.229686 
L 226.466623 201.682471 
L 265.033994 175.643832 
L 288.174399 160.173951 
L 306.686723 148.091024 
L 334.45512 130.230454 
L 357.595525 115.593528 
L 371.479768 107.057058 
L 388.449457 96.878156 
L 403.876334 87.917887 
L 414.67522 81.883429 
L 428.559463 74.370321 
L 437.815536 69.600157 
L 448.614421 64.340096 
L 460.95603 58.626965 
L 467.126745 56.030119 
L 471.754915 54.343845 
L 474.840183 53.513541 
L 474.840183 53.513541 
" clip-path="url(#p9c596de7de)" style="fill: none; stroke: #e377c2; stroke-opacity: 0.8; stroke-width: 1.5; stroke-linecap: square"/>
   </g>
   <g id="line2d_94">
    <path d="M -1 374.685293 
L 93.663704 297.761053 
L 116.639925 279.394701 
L 145.662609 256.726817 
L 155.336807 249.728799 
L 167.429555 241.526337 
L 185.568677 229.612973 
L 250.869604 187.712174 
L 278.682924 170.176106 
L 308.914794 151.073718 
L 331.891015 136.121141 
L 380.262096 104.561332 
L 408.075416 86.699092 
L 421.377438 78.45375 
L 432.260911 72.009078 
L 443.144384 65.840836 
L 454.027947 59.897117 
L 460.074321 56.795559 
L 464.91142 54.586909 
L 467.329969 53.724252 
L 468.539244 53.513541 
L 468.539244 53.513541 
" clip-path="url(#p9c596de7de)" style="fill: none; stroke: #7f7f7f; stroke-opacity: 0.8; stroke-width: 1.5; stroke-linecap: square"/>
   </g>
   <g id="line2d_95">
    <path d="M -1 345.009367 
L 31.346923 319.664758 
L 38.410355 314.417117 
L 73.727605 288.285395 
L 103.747293 265.687049 
L 135.532849 241.552475 
L 174.381793 211.773062 
L 261.79194 144.838515 
L 290.045758 123.590325 
L 326.246009 96.593589 
L 347.436351 81.027521 
L 362.446172 70.256447 
L 373.924255 62.239392 
L 377.455993 59.930195 
L 382.753556 56.860138 
L 386.285295 54.968226 
L 388.934076 53.791407 
L 389.817033 53.513541 
L 389.817033 53.513541 
" clip-path="url(#p9c596de7de)" style="fill: none; stroke: #bcbd22; stroke-opacity: 0.8; stroke-width: 1.5; stroke-linecap: square"/>
   </g>
   <g id="line2d_96">
    <path d="M -1 308.606072 
L 33.596431 282.563467 
L 47.660322 272.620841 
L 64.969655 260.657928 
L 70.378858 257.175678 
L 75.788016 254.07293 
L 79.033547 252.524918 
L 81.197219 251.724446 
L 98.506552 246.571501 
L 109.324913 243.072506 
L 120.143274 239.313851 
L 130.961635 235.297216 
L 148.271013 228.523307 
L 173.153176 218.623195 
L 185.053396 213.635609 
L 198.035429 207.950985 
L 211.017462 202.01509 
L 222.917593 196.297501 
L 235.899626 189.814462 
L 249.963473 182.520903 
L 264.027409 174.99117 
L 278.091256 167.195875 
L 292.155103 159.13364 
L 307.300764 150.17964 
L 322.446514 140.955381 
L 338.673989 130.806908 
L 360.310711 116.950889 
L 432.793663 70.252688 
L 442.530165 64.258851 
L 447.939413 61.123708 
L 452.266757 58.857189 
L 456.594101 56.834986 
L 460.921446 55.03966 
L 464.166887 53.940125 
L 466.330604 53.615049 
L 467.412418 53.513541 
L 467.412418 53.513541 
" clip-path="url(#p9c596de7de)" style="fill: none; stroke: #17becf; stroke-opacity: 0.8; stroke-width: 1.5; stroke-linecap: square"/>
   </g>
   <g id="patch_3">
    <path d="M 55.249375 666.149875 
L 55.249375 47.173875 
" style="fill: none; stroke: #000000; stroke-width: 0.8; stroke-linejoin: miter; stroke-linecap: square"/>
   </g>
   <g id="patch_4">
    <path d="M 989.882321 666.149875 
L 989.882321 47.173875 
" style="fill: none; stroke: #000000; stroke-width: 0.8; stroke-linejoin: miter; stroke-linecap: square"/>
   </g>
   <g id="patch_5">
    <path d="M 55.249375 666.149875 
L 989.882321 666.149875 
" style="fill: none; stroke: #000000; stroke-width: 0.8; stroke-linejoin: miter; stroke-linecap: square"/>
   </g>
   <g id="patch_6">
    <path d="M 55.249375 47.173875 
L 989.882321 47.173875 
" style="fill: none; stroke: #000000; stroke-width: 0.8; stroke-linejoin: miter; stroke-linecap: square"/>
   </g>
   <g id="text_14">
    <!-- Figure S2: National Agricultural Fingerprint Gallery -->
    <g transform="translate(261.788036 20.877187) scale(0.18 -0.18)">
     <defs>
      <path id="DejaVuSans-Bold-46" d="M 588 4666 
L 3834 4666 
L 3834 3756 
L 1791 3756 
L 1791 2888 
L 3713 2888 
L 3713 1978 
L 1791 1978 
L 1791 0 
L 588 0 
L 588 4666 
z
" transform="scale(0.015625)"/>
      <path id="DejaVuSans-Bold-53" d="M 3834 4519 
L 3834 3531 
Q 3450 3703 3084 3790 
Q 2719 3878 2394 3878 
Q 1963 3878 1756 3759 
Q 1550 3641 1550 3391 
Q 1550 3203 1689 3098 
Q 1828 2994 2194 2919 
L 2706 2816 
Q 3484 2659 3812 2340 
Q 4141 2022 4141 1434 
Q 4141 663 3683 286 
Q 3225 -91 2284 -91 
Q 1841 -91 1394 -6 
Q 947 78 500 244 
L 500 1259 
Q 947 1022 1364 901 
Q 1781 781 2169 781 
Q 2563 781 2772 912 
Q 2981 1044 2981 1288 
Q 2981 1506 2839 1625 
Q 2697 1744 2272 1838 
L 1806 1941 
Q 1106 2091 782 2419 
Q 459 2747 459 3303 
Q 459 4000 909 4375 
Q 1359 4750 2203 4750 
Q 2588 4750 2994 4692 
Q 3400 4634 3834 4519 
z
" transform="scale(0.015625)"/>
      <path id="DejaVuSans-Bold-32" d="M 1844 884 
L 3897 884 
L 3897 0 
L 506 0 
L 506 884 
L 2209 2388 
Q 2438 2594 2547 2791 
Q 2656 2988 2656 3200 
Q 2656 3528 2436 3728 
Q 2216 3928 1850 3928 
Q 1569 3928 1234 3808 
Q 900 3688 519 3450 
L 519 4475 
Q 925 4609 1322 4679 
Q 1719 4750 2100 4750 
Q 2938 4750 3402 4381 
Q 3866 4013 3866 3353 
Q 3866 2972 3669 2642 
Q 3472 2313 2841 1759 
L 1844 884 
z
" transform="scale(0.015625)"/>
      <path id="DejaVuSans-Bold-3a" d="M 716 3500 
L 1844 3500 
L 1844 2291 
L 716 2291 
L 716 3500 
z
M 716 1209 
L 1844 1209 
L 1844 0 
L 716 0 
L 716 1209 
z
" transform="scale(0.015625)"/>
      <path id="DejaVuSans-Bold-4e" d="M 588 4666 
L 1931 4666 
L 3628 1466 
L 3628 4666 
L 4769 4666 
L 4769 0 
L 3425 0 
L 1728 3200 
L 1728 0 
L 588 0 
L 588 4666 
z
" transform="scale(0.015625)"/>
      <path id="DejaVuSans-Bold-70" d="M 1656 506 
L 1656 -1331 
L 538 -1331 
L 538 3500 
L 1656 3500 
L 1656 2988 
Q 1888 3294 2169 3439 
Q 2450 3584 2816 3584 
Q 3463 3584 3878 3070 
Q 4294 2556 4294 1747 
Q 4294 938 3878 423 
Q 3463 -91 2816 -91 
Q 2450 -91 2169 54 
Q 1888 200 1656 506 
z
M 2400 2772 
Q 2041 2772 1848 2508 
Q 1656 2244 1656 1747 
Q 1656 1250 1848 986 
Q 2041 722 2400 722 
Q 2759 722 2948 984 
Q 3138 1247 3138 1747 
Q 3138 2247 2948 2509 
Q 2759 2772 2400 2772 
z
" transform="scale(0.015625)"/>
      <path id="DejaVuSans-Bold-47" d="M 4781 347 
Q 4331 128 3847 18 
Q 3363 -91 2847 -91 
Q 1681 -91 1000 561 
Q 319 1213 319 2328 
Q 319 3456 1012 4103 
Q 1706 4750 2913 4750 
Q 3378 4750 3804 4662 
Q 4231 4575 4609 4403 
L 4609 3438 
Q 4219 3659 3833 3768 
Q 3447 3878 3059 3878 
Q 2341 3878 1952 3476 
Q 1563 3075 1563 2328 
Q 1563 1588 1938 1184 
Q 2313 781 3003 781 
Q 3191 781 3352 804 
Q 3513 828 3641 878 
L 3641 1784 
L 2906 1784 
L 2906 2591 
L 4781 2591 
L 4781 347 
z
" transform="scale(0.015625)"/>
      <path id="DejaVuSans-Bold-79" d="M 78 3500 
L 1197 3500 
L 2138 1125 
L 2938 3500 
L 4056 3500 
L 2584 -331 
Q 2363 -916 2067 -1148 
Q 1772 -1381 1288 -1381 
L 641 -1381 
L 641 -647 
L 991 -647 
Q 1275 -647 1404 -556 
Q 1534 -466 1606 -231 
L 1638 -134 
L 78 3500 
z
" transform="scale(0.015625)"/>
     </defs>
     <use xlink:href="#DejaVuSans-Bold-46"/>
     <use xlink:href="#DejaVuSans-Bold-69" transform="translate(68.310547 0)"/>
     <use xlink:href="#DejaVuSans-Bold-67" transform="translate(102.587891 0)"/>
     <use xlink:href="#DejaVuSans-Bold-75" transform="translate(174.169922 0)"/>
     <use xlink:href="#DejaVuSans-Bold-72" transform="translate(245.361328 0)"/>
     <use xlink:href="#DejaVuSans-Bold-65" transform="translate(294.677734 0)"/>
     <use xlink:href="#DejaVuSans-Bold-20" transform="translate(362.5 0)"/>
     <use xlink:href="#DejaVuSans-Bold-53" transform="translate(397.314453 0)"/>
     <use xlink:href="#DejaVuSans-Bold-32" transform="translate(469.335938 0)"/>
     <use xlink:href="#DejaVuSans-Bold-3a" transform="translate(538.916016 0)"/>
     <use xlink:href="#DejaVuSans-Bold-20" transform="translate(578.90625 0)"/>
     <use xlink:href="#DejaVuSans-Bold-4e" transform="translate(613.720703 0)"/>
     <use xlink:href="#DejaVuSans-Bold-61" transform="translate(697.412109 0)"/>
     <use xlink:href="#DejaVuSans-Bold-74" transform="translate(764.892578 0)"/>
     <use xlink:href="#DejaVuSans-Bold-69" transform="translate(812.695312 0)"/>
     <use xlink:href="#DejaVuSans-Bold-6f" transform="translate(846.972656 0)"/>
     <use xlink:href="#DejaVuSans-Bold-6e" transform="translate(915.673828 0)"/>
     <use xlink:href="#DejaVuSans-Bold-61" transform="translate(986.865234 0)"/>
     <use xlink:href="#DejaVuSans-Bold-6c" transform="translate(1054.345703 0)"/>
     <use xlink:href="#DejaVuSans-Bold-20" transform="translate(1088.623047 0)"/>
     <use xlink:href="#DejaVuSans-Bold-41" transform="translate(1123.4375 0)"/>
     <use xlink:href="#DejaVuSans-Bold-67" transform="translate(1200.830078 0)"/>
     <use xlink:href="#DejaVuSans-Bold-72" transform="translate(1272.412109 0)"/>
     <use xlink:href="#DejaVuSans-Bold-69" transform="translate(1321.728516 0)"/>
     <use xlink:href="#DejaVuSans-Bold-63" transform="translate(1356.005859 0)"/>
     <use xlink:href="#DejaVuSans-Bold-75" transform="translate(1415.283203 0)"/>
     <use xlink:href="#DejaVuSans-Bold-6c" transform="translate(1486.474609 0)"/>
     <use xlink:href="#DejaVuSans-Bold-74" transform="translate(1520.751953 0)"/>
     <use xlink:href="#DejaVuSans-Bold-75" transform="translate(1568.554688 0)"/>
     <use xlink:href="#DejaVuSans-Bold-72" transform="translate(1639.746094 0)"/>
     <use xlink:href="#DejaVuSans-Bold-61" transform="translate(1689.0625 0)"/>
     <use xlink:href="#DejaVuSans-Bold-6c" transform="translate(1756.542969 0)"/>
     <use xlink:href="#DejaVuSans-Bold-20" transform="translate(1790.820312 0)"/>
     <use xlink:href="#DejaVuSans-Bold-46" transform="translate(1825.634766 0)"/>
     <use xlink:href="#DejaVuSans-Bold-69" transform="translate(1893.945312 0)"/>
     <use xlink:href="#DejaVuSans-Bold-6e" transform="translate(1928.222656 0)"/>
     <use xlink:href="#DejaVuSans-Bold-67" transform="translate(1999.414062 0)"/>
     <use xlink:href="#DejaVuSans-Bold-65" transform="translate(2070.996094 0)"/>
     <use xlink:href="#DejaVuSans-Bold-72" transform="translate(2138.818359 0)"/>
     <use xlink:href="#DejaVuSans-Bold-70" transform="translate(2188.134766 0)"/>
     <use xlink:href="#DejaVuSans-Bold-72" transform="translate(2259.716797 0)"/>
     <use xlink:href="#DejaVuSans-Bold-69" transform="translate(2309.033203 0)"/>
     <use xlink:href="#DejaVuSans-Bold-6e" transform="translate(2343.310547 0)"/>
     <use xlink:href="#DejaVuSans-Bold-74" transform="translate(2414.501953 0)"/>
     <use xlink:href="#DejaVuSans-Bold-20" transform="translate(2462.304688 0)"/>
     <use xlink:href="#DejaVuSans-Bold-47" transform="translate(2497.119141 0)"/>
     <use xlink:href="#DejaVuSans-Bold-61" transform="translate(2579.199219 0)"/>
     <use xlink:href="#DejaVuSans-Bold-6c" transform="translate(2646.679688 0)"/>
     <use xlink:href="#DejaVuSans-Bold-6c" transform="translate(2680.957031 0)"/>
     <use xlink:href="#DejaVuSans-Bold-65" transform="translate(2715.234375 0)"/>
     <use xlink:href="#DejaVuSans-Bold-72" transform="translate(2783.056641 0)"/>
     <use xlink:href="#DejaVuSans-Bold-79" transform="translate(2832.373047 0)"/>
    </g>
    <!-- (Normalized Envelopes - loglog version) -->
    <g transform="translate(319.950536 41.173875) scale(0.18 -0.18)">
     <defs>
      <path id="DejaVuSans-Bold-6d" d="M 3781 2919 
Q 3994 3244 4286 3414 
Q 4578 3584 4928 3584 
Q 5531 3584 5847 3212 
Q 6163 2841 6163 2131 
L 6163 0 
L 5038 0 
L 5038 1825 
Q 5041 1866 5042 1909 
Q 5044 1953 5044 2034 
Q 5044 2406 4934 2573 
Q 4825 2741 4581 2741 
Q 4263 2741 4089 2478 
Q 3916 2216 3909 1719 
L 3909 0 
L 2784 0 
L 2784 1825 
Q 2784 2406 2684 2573 
Q 2584 2741 2328 2741 
Q 2006 2741 1831 2477 
Q 1656 2213 1656 1722 
L 1656 0 
L 531 0 
L 531 3500 
L 1656 3500 
L 1656 2988 
Q 1863 3284 2130 3434 
Q 2397 3584 2719 3584 
Q 3081 3584 3359 3409 
Q 3638 3234 3781 2919 
z
" transform="scale(0.015625)"/>
      <path id="DejaVuSans-Bold-7a" d="M 366 3500 
L 3419 3500 
L 3419 2719 
L 1575 800 
L 3419 800 
L 3419 0 
L 288 0 
L 288 781 
L 2131 2700 
L 366 2700 
L 366 3500 
z
" transform="scale(0.015625)"/>
      <path id="DejaVuSans-Bold-45" d="M 588 4666 
L 3834 4666 
L 3834 3756 
L 1791 3756 
L 1791 2888 
L 3713 2888 
L 3713 1978 
L 1791 1978 
L 1791 909 
L 3903 909 
L 3903 0 
L 588 0 
L 588 4666 
z
" transform="scale(0.015625)"/>
      <path id="DejaVuSans-Bold-76" d="M 97 3500 
L 1216 3500 
L 2088 1081 
L 2956 3500 
L 4078 3500 
L 2700 0 
L 1472 0 
L 97 3500 
z
" transform="scale(0.015625)"/>
      <path id="DejaVuSans-Bold-2d" d="M 347 2297 
L 2309 2297 
L 2309 1388 
L 347 1388 
L 347 2297 
z
" transform="scale(0.015625)"/>
     </defs>
     <use xlink:href="#DejaVuSans-Bold-28"/>
     <use xlink:href="#DejaVuSans-Bold-4e" transform="translate(45.703125 0)"/>
     <use xlink:href="#DejaVuSans-Bold-6f" transform="translate(129.394531 0)"/>
     <use xlink:href="#DejaVuSans-Bold-72" transform="translate(198.095703 0)"/>
     <use xlink:href="#DejaVuSans-Bold-6d" transform="translate(247.412109 0)"/>
     <use xlink:href="#DejaVuSans-Bold-61" transform="translate(351.611328 0)"/>
     <use xlink:href="#DejaVuSans-Bold-6c" transform="translate(419.091797 0)"/>
     <use xlink:href="#DejaVuSans-Bold-69" transform="translate(453.369141 0)"/>
     <use xlink:href="#DejaVuSans-Bold-7a" transform="translate(487.646484 0)"/>
     <use xlink:href="#DejaVuSans-Bold-65" transform="translate(545.849609 0)"/>
     <use xlink:href="#DejaVuSans-Bold-64" transform="translate(613.671875 0)"/>
     <use xlink:href="#DejaVuSans-Bold-20" transform="translate(685.253906 0)"/>
     <use xlink:href="#DejaVuSans-Bold-45" transform="translate(720.068359 0)"/>
     <use xlink:href="#DejaVuSans-Bold-6e" transform="translate(788.378906 0)"/>
     <use xlink:href="#DejaVuSans-Bold-76" transform="translate(859.570312 0)"/>
     <use xlink:href="#DejaVuSans-Bold-65" transform="translate(924.755859 0)"/>
     <use xlink:href="#DejaVuSans-Bold-6c" transform="translate(992.578125 0)"/>
     <use xlink:href="#DejaVuSans-Bold-6f" transform="translate(1026.855469 0)"/>
     <use xlink:href="#DejaVuSans-Bold-70" transform="translate(1095.556641 0)"/>
     <use xlink:href="#DejaVuSans-Bold-65" transform="translate(1167.138672 0)"/>
     <use xlink:href="#DejaVuSans-Bold-73" transform="translate(1234.960938 0)"/>
     <use xlink:href="#DejaVuSans-Bold-20" transform="translate(1294.482422 0)"/>
     <use xlink:href="#DejaVuSans-Bold-2d" transform="translate(1329.296875 0)"/>
     <use xlink:href="#DejaVuSans-Bold-20" transform="translate(1370.800781 0)"/>
     <use xlink:href="#DejaVuSans-Bold-6c" transform="translate(1405.615234 0)"/>
     <use xlink:href="#DejaVuSans-Bold-6f" transform="translate(1439.892578 0)"/>
     <use xlink:href="#DejaVuSans-Bold-67" transform="translate(1508.59375 0)"/>
     <use xlink:href="#DejaVuSans-Bold-6c" transform="translate(1580.175781 0)"/>
     <use xlink:href="#DejaVuSans-Bold-6f" transform="translate(1614.453125 0)"/>
     <use xlink:href="#DejaVuSans-Bold-67" transform="translate(1683.154297 0)"/>
     <use xlink:href="#DejaVuSans-Bold-20" transform="translate(1754.736328 0)"/>
     <use xlink:href="#DejaVuSans-Bold-76" transform="translate(1789.550781 0)"/>
     <use xlink:href="#DejaVuSans-Bold-65" transform="translate(1854.736328 0)"/>
     <use xlink:href="#DejaVuSans-Bold-72" transform="translate(1922.558594 0)"/>
     <use xlink:href="#DejaVuSans-Bold-73" transform="translate(1971.875 0)"/>
     <use xlink:href="#DejaVuSans-Bold-69" transform="translate(2031.396484 0)"/>
     <use xlink:href="#DejaVuSans-Bold-6f" transform="translate(2065.673828 0)"/>
     <use xlink:href="#DejaVuSans-Bold-6e" transform="translate(2134.375 0)"/>
     <use xlink:href="#DejaVuSans-Bold-29" transform="translate(2205.566406 0)"/>
    </g>
   </g>
   <g id="legend_1">
    <g id="patch_7">
     <path d="M 62.249375 143.242625 
L 278.23375 143.242625 
Q 280.23375 143.242625 280.23375 141.242625 
L 280.23375 54.173875 
Q 280.23375 52.173875 278.23375 52.173875 
L 62.249375 52.173875 
Q 60.249375 52.173875 60.249375 54.173875 
L 60.249375 141.242625 
Q 60.249375 143.242625 62.249375 143.242625 
z
" style="fill: #ffffff; opacity: 0.9; stroke: #cccccc; stroke-linejoin: miter"/>
    </g>
    <g id="line2d_97">
     <path d="M 64.249375 60.272312 
L 74.249375 60.272312 
L 84.249375 60.272312 
" style="fill: none; stroke: #000000; stroke-width: 3; stroke-linecap: square"/>
    </g>
    <g id="text_15">
     <!-- Global Aggregate -->
     <g transform="translate(92.249375 63.772312) scale(0.1 -0.1)">
      <defs>
       <path id="DejaVuSans-47" d="M 3809 666 
L 3809 1919 
L 2778 1919 
L 2778 2438 
L 4434 2438 
L 4434 434 
Q 4069 175 3628 42 
Q 3188 -91 2688 -91 
Q 1594 -91 976 548 
Q 359 1188 359 2328 
Q 359 3472 976 4111 
Q 1594 4750 2688 4750 
Q 3144 4750 3555 4637 
Q 3966 4525 4313 4306 
L 4313 3634 
Q 3963 3931 3569 4081 
Q 3175 4231 2741 4231 
Q 1884 4231 1454 3753 
Q 1025 3275 1025 2328 
Q 1025 1384 1454 906 
Q 1884 428 2741 428 
Q 3075 428 3337 486 
Q 3600 544 3809 666 
z
" transform="scale(0.015625)"/>
       <path id="DejaVuSans-62" d="M 3116 1747 
Q 3116 2381 2855 2742 
Q 2594 3103 2138 3103 
Q 1681 3103 1420 2742 
Q 1159 2381 1159 1747 
Q 1159 1113 1420 752 
Q 1681 391 2138 391 
Q 2594 391 2855 752 
Q 3116 1113 3116 1747 
z
M 1159 2969 
Q 1341 3281 1617 3432 
Q 1894 3584 2278 3584 
Q 2916 3584 3314 3078 
Q 3713 2572 3713 1747 
Q 3713 922 3314 415 
Q 2916 -91 2278 -91 
Q 1894 -91 1617 61 
Q 1341 213 1159 525 
L 1159 0 
L 581 0 
L 581 4863 
L 1159 4863 
L 1159 2969 
z
" transform="scale(0.015625)"/>
       <path id="DejaVuSans-61" d="M 2194 1759 
Q 1497 1759 1228 1600 
Q 959 1441 959 1056 
Q 959 750 1161 570 
Q 1363 391 1709 391 
Q 2188 391 2477 730 
Q 2766 1069 2766 1631 
L 2766 1759 
L 2194 1759 
z
M 3341 1997 
L 3341 0 
L 2766 0 
L 2766 531 
Q 2569 213 2275 61 
Q 1981 -91 1556 -91 
Q 1019 -91 701 211 
Q 384 513 384 1019 
Q 384 1609 779 1909 
Q 1175 2209 1959 2209 
L 2766 2209 
L 2766 2266 
Q 2766 2663 2505 2880 
Q 2244 3097 1772 3097 
Q 1472 3097 1187 3025 
Q 903 2953 641 2809 
L 641 3341 
Q 956 3463 1253 3523 
Q 1550 3584 1831 3584 
Q 2591 3584 2966 3190 
Q 3341 2797 3341 1997 
z
" transform="scale(0.015625)"/>
       <path id="DejaVuSans-20" transform="scale(0.015625)"/>
       <path id="DejaVuSans-41" d="M 2188 4044 
L 1331 1722 
L 3047 1722 
L 2188 4044 
z
M 1831 4666 
L 2547 4666 
L 4325 0 
L 3669 0 
L 3244 1197 
L 1141 1197 
L 716 0 
L 50 0 
L 1831 4666 
z
" transform="scale(0.015625)"/>
       <path id="DejaVuSans-72" d="M 2631 2963 
Q 2534 3019 2420 3045 
Q 2306 3072 2169 3072 
Q 1681 3072 1420 2755 
Q 1159 2438 1159 1844 
L 1159 0 
L 581 0 
L 581 3500 
L 1159 3500 
L 1159 2956 
Q 1341 3275 1631 3429 
Q 1922 3584 2338 3584 
Q 2397 3584 2469 3576 
Q 2541 3569 2628 3553 
L 2631 2963 
z
" transform="scale(0.015625)"/>
       <path id="DejaVuSans-65" d="M 3597 1894 
L 3597 1613 
L 953 1613 
Q 991 1019 1311 708 
Q 1631 397 2203 397 
Q 2534 397 2845 478 
Q 3156 559 3463 722 
L 3463 178 
Q 3153 47 2828 -22 
Q 2503 -91 2169 -91 
Q 1331 -91 842 396 
Q 353 884 353 1716 
Q 353 2575 817 3079 
Q 1281 3584 2069 3584 
Q 2775 3584 3186 3129 
Q 3597 2675 3597 1894 
z
M 3022 2063 
Q 3016 2534 2758 2815 
Q 2500 3097 2075 3097 
Q 1594 3097 1305 2825 
Q 1016 2553 972 2059 
L 3022 2063 
z
" transform="scale(0.015625)"/>
       <path id="DejaVuSans-74" d="M 1172 4494 
L 1172 3500 
L 2356 3500 
L 2356 3053 
L 1172 3053 
L 1172 1153 
Q 1172 725 1289 603 
Q 1406 481 1766 481 
L 2356 481 
L 2356 0 
L 1766 0 
Q 1100 0 847 248 
Q 594 497 594 1153 
L 594 3053 
L 172 3053 
L 172 3500 
L 594 3500 
L 594 4494 
L 1172 4494 
z
" transform="scale(0.015625)"/>
      </defs>
      <use xlink:href="#DejaVuSans-47"/>
      <use xlink:href="#DejaVuSans-6c" transform="translate(77.490234 0)"/>
      <use xlink:href="#DejaVuSans-6f" transform="translate(105.273438 0)"/>
      <use xlink:href="#DejaVuSans-62" transform="translate(166.455078 0)"/>
      <use xlink:href="#DejaVuSans-61" transform="translate(229.931641 0)"/>
      <use xlink:href="#DejaVuSans-6c" transform="translate(291.210938 0)"/>
      <use xlink:href="#DejaVuSans-20" transform="translate(318.994141 0)"/>
      <use xlink:href="#DejaVuSans-41" transform="translate(350.78125 0)"/>
      <use xlink:href="#DejaVuSans-67" transform="translate(419.189453 0)"/>
      <use xlink:href="#DejaVuSans-67" transform="translate(482.666016 0)"/>
      <use xlink:href="#DejaVuSans-72" transform="translate(546.142578 0)"/>
      <use xlink:href="#DejaVuSans-65" transform="translate(585.005859 0)"/>
      <use xlink:href="#DejaVuSans-67" transform="translate(646.529297 0)"/>
      <use xlink:href="#DejaVuSans-61" transform="translate(710.005859 0)"/>
      <use xlink:href="#DejaVuSans-74" transform="translate(771.285156 0)"/>
      <use xlink:href="#DejaVuSans-65" transform="translate(810.494141 0)"/>
     </g>
    </g>
    <g id="line2d_98">
     <path d="M 64.249375 74.950438 
L 74.249375 74.950438 
L 84.249375 74.950438 
" style="fill: none; stroke: #1f77b4; stroke-opacity: 0.8; stroke-width: 2; stroke-linecap: square"/>
    </g>
    <g id="text_16">
     <!-- USA -->
     <g transform="translate(92.249375 78.450438) scale(0.1 -0.1)">
      <defs>
       <path id="DejaVuSans-55" d="M 556 4666 
L 1191 4666 
L 1191 1831 
Q 1191 1081 1462 751 
Q 1734 422 2344 422 
Q 2950 422 3222 751 
Q 3494 1081 3494 1831 
L 3494 4666 
L 4128 4666 
L 4128 1753 
Q 4128 841 3676 375 
Q 3225 -91 2344 -91 
Q 1459 -91 1007 375 
Q 556 841 556 1753 
L 556 4666 
z
" transform="scale(0.015625)"/>
       <path id="DejaVuSans-53" d="M 3425 4513 
L 3425 3897 
Q 3066 4069 2747 4153 
Q 2428 4238 2131 4238 
Q 1616 4238 1336 4038 
Q 1056 3838 1056 3469 
Q 1056 3159 1242 3001 
Q 1428 2844 1947 2747 
L 2328 2669 
Q 3034 2534 3370 2195 
Q 3706 1856 3706 1288 
Q 3706 609 3251 259 
Q 2797 -91 1919 -91 
Q 1588 -91 1214 -16 
Q 841 59 441 206 
L 441 856 
Q 825 641 1194 531 
Q 1563 422 1919 422 
Q 2459 422 2753 634 
Q 3047 847 3047 1241 
Q 3047 1584 2836 1778 
Q 2625 1972 2144 2069 
L 1759 2144 
Q 1053 2284 737 2584 
Q 422 2884 422 3419 
Q 422 4038 858 4394 
Q 1294 4750 2059 4750 
Q 2388 4750 2728 4690 
Q 3069 4631 3425 4513 
z
" transform="scale(0.015625)"/>
      </defs>
      <use xlink:href="#DejaVuSans-55"/>
      <use xlink:href="#DejaVuSans-53" transform="translate(73.193359 0)"/>
      <use xlink:href="#DejaVuSans-41" transform="translate(138.544922 0)"/>
     </g>
    </g>
    <g id="line2d_99">
     <path d="M 64.249375 89.628563 
L 74.249375 89.628563 
L 84.249375 89.628563 
" style="fill: none; stroke: #d62728; stroke-opacity: 0.8; stroke-width: 2; stroke-linecap: square"/>
    </g>
    <g id="text_17">
     <!-- China -->
     <g transform="translate(92.249375 93.128563) scale(0.1 -0.1)">
      <defs>
       <path id="DejaVuSans-43" d="M 4122 4306 
L 4122 3641 
Q 3803 3938 3442 4084 
Q 3081 4231 2675 4231 
Q 1875 4231 1450 3742 
Q 1025 3253 1025 2328 
Q 1025 1406 1450 917 
Q 1875 428 2675 428 
Q 3081 428 3442 575 
Q 3803 722 4122 1019 
L 4122 359 
Q 3791 134 3420 21 
Q 3050 -91 2638 -91 
Q 1578 -91 968 557 
Q 359 1206 359 2328 
Q 359 3453 968 4101 
Q 1578 4750 2638 4750 
Q 3056 4750 3426 4639 
Q 3797 4528 4122 4306 
z
" transform="scale(0.015625)"/>
       <path id="DejaVuSans-68" d="M 3513 2113 
L 3513 0 
L 2938 0 
L 2938 2094 
Q 2938 2591 2744 2837 
Q 2550 3084 2163 3084 
Q 1697 3084 1428 2787 
Q 1159 2491 1159 1978 
L 1159 0 
L 581 0 
L 581 4863 
L 1159 4863 
L 1159 2956 
Q 1366 3272 1645 3428 
Q 1925 3584 2291 3584 
Q 2894 3584 3203 3211 
Q 3513 2838 3513 2113 
z
" transform="scale(0.015625)"/>
       <path id="DejaVuSans-69" d="M 603 3500 
L 1178 3500 
L 1178 0 
L 603 0 
L 603 3500 
z
M 603 4863 
L 1178 4863 
L 1178 4134 
L 603 4134 
L 603 4863 
z
" transform="scale(0.015625)"/>
       <path id="DejaVuSans-6e" d="M 3513 2113 
L 3513 0 
L 2938 0 
L 2938 2094 
Q 2938 2591 2744 2837 
Q 2550 3084 2163 3084 
Q 1697 3084 1428 2787 
Q 1159 2491 1159 1978 
L 1159 0 
L 581 0 
L 581 3500 
L 1159 3500 
L 1159 2956 
Q 1366 3272 1645 3428 
Q 1925 3584 2291 3584 
Q 2894 3584 3203 3211 
Q 3513 2838 3513 2113 
z
" transform="scale(0.015625)"/>
      </defs>
      <use xlink:href="#DejaVuSans-43"/>
      <use xlink:href="#DejaVuSans-68" transform="translate(69.824219 0)"/>
      <use xlink:href="#DejaVuSans-69" transform="translate(133.203125 0)"/>
      <use xlink:href="#DejaVuSans-6e" transform="translate(160.986328 0)"/>
      <use xlink:href="#DejaVuSans-61" transform="translate(224.365234 0)"/>
     </g>
    </g>
    <g id="line2d_100">
     <path d="M 64.249375 104.306687 
L 74.249375 104.306687 
L 84.249375 104.306687 
" style="fill: none; stroke: #ff7f0e; stroke-opacity: 0.8; stroke-width: 2; stroke-linecap: square"/>
    </g>
    <g id="text_18">
     <!-- India -->
     <g transform="translate(92.249375 107.806687) scale(0.1 -0.1)">
      <defs>
       <path id="DejaVuSans-49" d="M 628 4666 
L 1259 4666 
L 1259 0 
L 628 0 
L 628 4666 
z
" transform="scale(0.015625)"/>
       <path id="DejaVuSans-64" d="M 2906 2969 
L 2906 4863 
L 3481 4863 
L 3481 0 
L 2906 0 
L 2906 525 
Q 2725 213 2448 61 
Q 2172 -91 1784 -91 
Q 1150 -91 751 415 
Q 353 922 353 1747 
Q 353 2572 751 3078 
Q 1150 3584 1784 3584 
Q 2172 3584 2448 3432 
Q 2725 3281 2906 2969 
z
M 947 1747 
Q 947 1113 1208 752 
Q 1469 391 1925 391 
Q 2381 391 2643 752 
Q 2906 1113 2906 1747 
Q 2906 2381 2643 2742 
Q 2381 3103 1925 3103 
Q 1469 3103 1208 2742 
Q 947 2381 947 1747 
z
" transform="scale(0.015625)"/>
      </defs>
      <use xlink:href="#DejaVuSans-49"/>
      <use xlink:href="#DejaVuSans-6e" transform="translate(29.492188 0)"/>
      <use xlink:href="#DejaVuSans-64" transform="translate(92.871094 0)"/>
      <use xlink:href="#DejaVuSans-69" transform="translate(156.347656 0)"/>
      <use xlink:href="#DejaVuSans-61" transform="translate(184.130859 0)"/>
     </g>
    </g>
    <g id="line2d_101">
     <path d="M 64.249375 118.984812 
L 74.249375 118.984812 
L 84.249375 118.984812 
" style="fill: none; stroke: #2ca02c; stroke-opacity: 0.8; stroke-width: 2; stroke-linecap: square"/>
    </g>
    <g id="text_19">
     <!-- Brazil -->
     <g transform="translate(92.249375 122.484812) scale(0.1 -0.1)">
      <defs>
       <path id="DejaVuSans-42" d="M 1259 2228 
L 1259 519 
L 2272 519 
Q 2781 519 3026 730 
Q 3272 941 3272 1375 
Q 3272 1813 3026 2020 
Q 2781 2228 2272 2228 
L 1259 2228 
z
M 1259 4147 
L 1259 2741 
L 2194 2741 
Q 2656 2741 2882 2914 
Q 3109 3088 3109 3444 
Q 3109 3797 2882 3972 
Q 2656 4147 2194 4147 
L 1259 4147 
z
M 628 4666 
L 2241 4666 
Q 2963 4666 3353 4366 
Q 3744 4066 3744 3513 
Q 3744 3084 3544 2831 
Q 3344 2578 2956 2516 
Q 3422 2416 3680 2098 
Q 3938 1781 3938 1306 
Q 3938 681 3513 340 
Q 3088 0 2303 0 
L 628 0 
L 628 4666 
z
" transform="scale(0.015625)"/>
       <path id="DejaVuSans-7a" d="M 353 3500 
L 3084 3500 
L 3084 2975 
L 922 459 
L 3084 459 
L 3084 0 
L 275 0 
L 275 525 
L 2438 3041 
L 353 3041 
L 353 3500 
z
" transform="scale(0.015625)"/>
      </defs>
      <use xlink:href="#DejaVuSans-42"/>
      <use xlink:href="#DejaVuSans-72" transform="translate(68.603516 0)"/>
      <use xlink:href="#DejaVuSans-61" transform="translate(109.716797 0)"/>
      <use xlink:href="#DejaVuSans-7a" transform="translate(170.996094 0)"/>
      <use xlink:href="#DejaVuSans-69" transform="translate(223.486328 0)"/>
      <use xlink:href="#DejaVuSans-6c" transform="translate(251.269531 0)"/>
     </g>
    </g>
    <g id="line2d_102">
     <path d="M 64.249375 133.662937 
L 74.249375 133.662937 
L 84.249375 133.662937 
" style="fill: none; stroke: #9467bd; stroke-opacity: 0.8; stroke-width: 2; stroke-linecap: square"/>
    </g>
    <g id="text_20">
     <!-- Egypt (Stiff) -->
     <g transform="translate(92.249375 137.162937) scale(0.1 -0.1)">
      <defs>
       <path id="DejaVuSans-45" d="M 628 4666 
L 3578 4666 
L 3578 4134 
L 1259 4134 
L 1259 2753 
L 3481 2753 
L 3481 2222 
L 1259 2222 
L 1259 531 
L 3634 531 
L 3634 0 
L 628 0 
L 628 4666 
z
" transform="scale(0.015625)"/>
       <path id="DejaVuSans-79" d="M 2059 -325 
Q 1816 -950 1584 -1140 
Q 1353 -1331 966 -1331 
L 506 -1331 
L 506 -850 
L 844 -850 
Q 1081 -850 1212 -737 
Q 1344 -625 1503 -206 
L 1606 56 
L 191 3500 
L 800 3500 
L 1894 763 
L 2988 3500 
L 3597 3500 
L 2059 -325 
z
" transform="scale(0.015625)"/>
       <path id="DejaVuSans-70" d="M 1159 525 
L 1159 -1331 
L 581 -1331 
L 581 3500 
L 1159 3500 
L 1159 2969 
Q 1341 3281 1617 3432 
Q 1894 3584 2278 3584 
Q 2916 3584 3314 3078 
Q 3713 2572 3713 1747 
Q 3713 922 3314 415 
Q 2916 -91 2278 -91 
Q 1894 -91 1617 61 
Q 1341 213 1159 525 
z
M 3116 1747 
Q 3116 2381 2855 2742 
Q 2594 3103 2138 3103 
Q 1681 3103 1420 2742 
Q 1159 2381 1159 1747 
Q 1159 1113 1420 752 
Q 1681 391 2138 391 
Q 2594 391 2855 752 
Q 3116 1113 3116 1747 
z
" transform="scale(0.015625)"/>
       <path id="DejaVuSans-66" d="M 2375 4863 
L 2375 4384 
L 1825 4384 
Q 1516 4384 1395 4259 
Q 1275 4134 1275 3809 
L 1275 3500 
L 2222 3500 
L 2222 3053 
L 1275 3053 
L 1275 0 
L 697 0 
L 697 3053 
L 147 3053 
L 147 3500 
L 697 3500 
L 697 3744 
Q 697 4328 969 4595 
Q 1241 4863 1831 4863 
L 2375 4863 
z
" transform="scale(0.015625)"/>
      </defs>
      <use xlink:href="#DejaVuSans-45"/>
      <use xlink:href="#DejaVuSans-67" transform="translate(63.183594 0)"/>
      <use xlink:href="#DejaVuSans-79" transform="translate(126.660156 0)"/>
      <use xlink:href="#DejaVuSans-70" transform="translate(185.839844 0)"/>
      <use xlink:href="#DejaVuSans-74" transform="translate(249.316406 0)"/>
      <use xlink:href="#DejaVuSans-20" transform="translate(288.525391 0)"/>
      <use xlink:href="#DejaVuSans-28" transform="translate(320.3125 0)"/>
      <use xlink:href="#DejaVuSans-53" transform="translate(359.326172 0)"/>
      <use xlink:href="#DejaVuSans-74" transform="translate(422.802734 0)"/>
      <use xlink:href="#DejaVuSans-69" transform="translate(462.011719 0)"/>
      <use xlink:href="#DejaVuSans-66" transform="translate(489.794922 0)"/>
      <use xlink:href="#DejaVuSans-66" transform="translate(525 0)"/>
      <use xlink:href="#DejaVuSans-29" transform="translate(560.205078 0)"/>
     </g>
    </g>
    <g id="line2d_103">
     <path d="M 199.454063 60.272312 
L 209.454063 60.272312 
L 219.454063 60.272312 
" style="fill: none; stroke: #8c564b; stroke-opacity: 0.8; stroke-width: 1.5; stroke-linecap: square"/>
    </g>
    <g id="text_21">
     <!-- France -->
     <g transform="translate(227.454063 63.772312) scale(0.1 -0.1)">
      <defs>
       <path id="DejaVuSans-46" d="M 628 4666 
L 3309 4666 
L 3309 4134 
L 1259 4134 
L 1259 2759 
L 3109 2759 
L 3109 2228 
L 1259 2228 
L 1259 0 
L 628 0 
L 628 4666 
z
" transform="scale(0.015625)"/>
       <path id="DejaVuSans-63" d="M 3122 3366 
L 3122 2828 
Q 2878 2963 2633 3030 
Q 2388 3097 2138 3097 
Q 1578 3097 1268 2742 
Q 959 2388 959 1747 
Q 959 1106 1268 751 
Q 1578 397 2138 397 
Q 2388 397 2633 464 
Q 2878 531 3122 666 
L 3122 134 
Q 2881 22 2623 -34 
Q 2366 -91 2075 -91 
Q 1284 -91 818 406 
Q 353 903 353 1747 
Q 353 2603 823 3093 
Q 1294 3584 2113 3584 
Q 2378 3584 2631 3529 
Q 2884 3475 3122 3366 
z
" transform="scale(0.015625)"/>
      </defs>
      <use xlink:href="#DejaVuSans-46"/>
      <use xlink:href="#DejaVuSans-72" transform="translate(50.269531 0)"/>
      <use xlink:href="#DejaVuSans-61" transform="translate(91.382812 0)"/>
      <use xlink:href="#DejaVuSans-6e" transform="translate(152.662109 0)"/>
      <use xlink:href="#DejaVuSans-63" transform="translate(216.041016 0)"/>
      <use xlink:href="#DejaVuSans-65" transform="translate(271.021484 0)"/>
     </g>
    </g>
    <g id="line2d_104">
     <path d="M 199.454063 74.950438 
L 209.454063 74.950438 
L 219.454063 74.950438 
" style="fill: none; stroke: #e377c2; stroke-opacity: 0.8; stroke-width: 1.5; stroke-linecap: square"/>
    </g>
    <g id="text_22">
     <!-- Australia -->
     <g transform="translate(227.454063 78.450438) scale(0.1 -0.1)">
      <defs>
       <path id="DejaVuSans-75" d="M 544 1381 
L 544 3500 
L 1119 3500 
L 1119 1403 
Q 1119 906 1312 657 
Q 1506 409 1894 409 
Q 2359 409 2629 706 
Q 2900 1003 2900 1516 
L 2900 3500 
L 3475 3500 
L 3475 0 
L 2900 0 
L 2900 538 
Q 2691 219 2414 64 
Q 2138 -91 1772 -91 
Q 1169 -91 856 284 
Q 544 659 544 1381 
z
M 1991 3584 
L 1991 3584 
z
" transform="scale(0.015625)"/>
       <path id="DejaVuSans-73" d="M 2834 3397 
L 2834 2853 
Q 2591 2978 2328 3040 
Q 2066 3103 1784 3103 
Q 1356 3103 1142 2972 
Q 928 2841 928 2578 
Q 928 2378 1081 2264 
Q 1234 2150 1697 2047 
L 1894 2003 
Q 2506 1872 2764 1633 
Q 3022 1394 3022 966 
Q 3022 478 2636 193 
Q 2250 -91 1575 -91 
Q 1294 -91 989 -36 
Q 684 19 347 128 
L 347 722 
Q 666 556 975 473 
Q 1284 391 1588 391 
Q 1994 391 2212 530 
Q 2431 669 2431 922 
Q 2431 1156 2273 1281 
Q 2116 1406 1581 1522 
L 1381 1569 
Q 847 1681 609 1914 
Q 372 2147 372 2553 
Q 372 3047 722 3315 
Q 1072 3584 1716 3584 
Q 2034 3584 2315 3537 
Q 2597 3491 2834 3397 
z
" transform="scale(0.015625)"/>
      </defs>
      <use xlink:href="#DejaVuSans-41"/>
      <use xlink:href="#DejaVuSans-75" transform="translate(68.408203 0)"/>
      <use xlink:href="#DejaVuSans-73" transform="translate(131.787109 0)"/>
      <use xlink:href="#DejaVuSans-74" transform="translate(183.886719 0)"/>
      <use xlink:href="#DejaVuSans-72" transform="translate(223.095703 0)"/>
      <use xlink:href="#DejaVuSans-61" transform="translate(264.208984 0)"/>
      <use xlink:href="#DejaVuSans-6c" transform="translate(325.488281 0)"/>
      <use xlink:href="#DejaVuSans-69" transform="translate(353.271484 0)"/>
      <use xlink:href="#DejaVuSans-61" transform="translate(381.054688 0)"/>
     </g>
    </g>
    <g id="line2d_105">
     <path d="M 199.454063 89.628563 
L 209.454063 89.628563 
L 219.454063 89.628563 
" style="fill: none; stroke: #7f7f7f; stroke-opacity: 0.8; stroke-width: 1.5; stroke-linecap: square"/>
    </g>
    <g id="text_23">
     <!-- Argentina -->
     <g transform="translate(227.454063 93.128563) scale(0.1 -0.1)">
      <use xlink:href="#DejaVuSans-41"/>
      <use xlink:href="#DejaVuSans-72" transform="translate(68.408203 0)"/>
      <use xlink:href="#DejaVuSans-67" transform="translate(107.771484 0)"/>
      <use xlink:href="#DejaVuSans-65" transform="translate(171.248047 0)"/>
      <use xlink:href="#DejaVuSans-6e" transform="translate(232.771484 0)"/>
      <use xlink:href="#DejaVuSans-74" transform="translate(296.150391 0)"/>
      <use xlink:href="#DejaVuSans-69" transform="translate(335.359375 0)"/>
      <use xlink:href="#DejaVuSans-6e" transform="translate(363.142578 0)"/>
      <use xlink:href="#DejaVuSans-61" transform="translate(426.521484 0)"/>
     </g>
    </g>
    <g id="line2d_106">
     <path d="M 199.454063 104.306687 
L 209.454063 104.306687 
L 219.454063 104.306687 
" style="fill: none; stroke: #bcbd22; stroke-opacity: 0.8; stroke-width: 1.5; stroke-linecap: square"/>
    </g>
    <g id="text_24">
     <!-- Germany -->
     <g transform="translate(227.454063 107.806687) scale(0.1 -0.1)">
      <use xlink:href="#DejaVuSans-47"/>
      <use xlink:href="#DejaVuSans-65" transform="translate(77.490234 0)"/>
      <use xlink:href="#DejaVuSans-72" transform="translate(139.013672 0)"/>
      <use xlink:href="#DejaVuSans-6d" transform="translate(178.376953 0)"/>
      <use xlink:href="#DejaVuSans-61" transform="translate(275.789062 0)"/>
      <use xlink:href="#DejaVuSans-6e" transform="translate(337.068359 0)"/>
      <use xlink:href="#DejaVuSans-79" transform="translate(400.447266 0)"/>
     </g>
    </g>
    <g id="line2d_107">
     <path d="M 199.454063 118.984812 
L 209.454063 118.984812 
L 219.454063 118.984812 
" style="fill: none; stroke: #17becf; stroke-opacity: 0.8; stroke-width: 1.5; stroke-linecap: square"/>
    </g>
    <g id="text_25">
     <!-- Nigeria -->
     <g transform="translate(227.454063 122.484812) scale(0.1 -0.1)">
      <defs>
       <path id="DejaVuSans-4e" d="M 628 4666 
L 1478 4666 
L 3547 763 
L 3547 4666 
L 4159 4666 
L 4159 0 
L 3309 0 
L 1241 3903 
L 1241 0 
L 628 0 
L 628 4666 
z
" transform="scale(0.015625)"/>
      </defs>
      <use xlink:href="#DejaVuSans-4e"/>
      <use xlink:href="#DejaVuSans-69" transform="translate(74.804688 0)"/>
      <use xlink:href="#DejaVuSans-67" transform="translate(102.587891 0)"/>
      <use xlink:href="#DejaVuSans-65" transform="translate(166.064453 0)"/>
      <use xlink:href="#DejaVuSans-72" transform="translate(227.587891 0)"/>
      <use xlink:href="#DejaVuSans-69" transform="translate(268.701172 0)"/>
      <use xlink:href="#DejaVuSans-61" transform="translate(296.484375 0)"/>
     </g>
    </g>
   </g>
   <g id="line2d_108">
    <path d="M -1 548.925243 
L 10.934049 540.904759 
L 30.330266 528.182531 
L 46.955632 517.639173 
L 66.351894 505.391064 
L 96.831688 485.841585 
L 141.165955 457.077327 
L 160.562217 444.17984 
L 199.35465 418.206607 
L 214.594614 407.706906 
L 232.605384 395.008433 
L 252.0016 381.056756 
L 278.325053 361.826888 
L 306.033998 341.624216 
L 332.357451 322.750273 
L 382.233551 287.119036 
L 411.327899 266.795337 
L 437.651352 248.397274 
L 477.829277 220.269754 
L 497.225538 207.004105 
L 513.850905 195.800405 
L 552.643338 170.082793 
L 569.268705 159.402968 
L 594.206755 143.702742 
L 623.301103 125.653855 
L 659.322731 103.589863 
L 673.177114 95.314307 
L 682.875289 89.749405 
L 692.573375 84.41668 
L 702.271551 79.33417 
L 711.969637 74.500127 
L 720.28232 70.574601 
L 728.595004 66.891077 
L 736.907687 63.470392 
L 745.22037 60.343938 
L 750.762159 58.45948 
L 756.303948 56.79281 
L 761.845648 55.396552 
L 767.387437 54.302931 
L 771.543823 53.704323 
L 774.346895 53.513541 
L 774.346895 53.513541 
" clip-path="url(#p9c596de7de)" style="fill: none; stroke: #000000; stroke-width: 3; stroke-linecap: square"/>
   </g>
  </g>
 </g>
 <defs>
  <clipPath id="p9c596de7de">
   <rect x="55.249375" y="47.173875" width="934.632946" height="618.976"/>
  </clipPath>
 </defs>
</svg>
